<?xml version="1.0" standalone="no"?>
<!DOCTYPE svg PUBLIC "-//W3C//DTD SVG 20010904//EN"
 "http://www.w3.org/TR/2001/REC-SVG-20010904/DTD/svg10.dtd">
<svg version="1.0" xmlns="http://www.w3.org/2000/svg"
 width="700.000000pt" height="700.000000pt" viewBox="0 0 700.000000 700.000000"
 preserveAspectRatio="xMidYMid meet">
<metadata>
Created by potrace 1.14, written by Peter Selinger 2001-2017
</metadata>
<g transform="translate(0.000000,700.000000) scale(0.100000,-0.100000)"
fill="#000000" stroke="none">
<path d="M3335 6373 c-84 -17 -219 -79 -289 -131 -28 -21 -59 -41 -70 -45 -13
-5 -51 9 -120 43 -116 57 -202 79 -298 74 -108 -5 -162 -37 -354 -210 -44 -39
-95 -84 -114 -100 -19 -16 -37 -31 -40 -34 -24 -26 -151 -109 -215 -141 -130
-65 -228 -63 -316 4 -24 18 -77 81 -120 140 -136 193 -197 237 -326 237 -82 0
-149 -19 -210 -61 -53 -37 -143 -126 -143 -142 0 -15 23 -50 150 -227 119
-165 178 -267 224 -385 82 -215 93 -438 34 -725 -6 -30 -12 -60 -14 -65 -7
-36 -52 -188 -108 -367 -87 -275 -109 -385 -103 -508 4 -94 14 -129 64 -240
52 -114 79 -282 53 -330 -6 -11 -30 -23 -62 -30 -65 -13 -132 -55 -193 -121
-76 -81 -78 -92 -79 -347 -1 -221 -1 -223 -24 -240 -13 -10 -37 -19 -53 -20
-51 -4 -107 -38 -113 -69 -14 -68 -18 -169 -21 -468 -3 -456 5 -500 99 -529
28 -9 73 -20 99 -25 49 -9 75 -31 78 -66 8 -88 -15 -155 -82 -230 -41 -46 -68
-95 -84 -153 -12 -43 -6 -131 11 -167 20 -42 53 -62 120 -70 50 -6 343 -6 489
0 44 2 98 4 121 4 l41 1 3 68 c9 171 4 228 -19 268 -13 22 -29 43 -37 47 -8 4
-26 31 -40 60 -22 42 -27 68 -30 145 l-4 95 1743 -7 c2098 -8 2582 -14 2675
-30 9 -2 38 -7 64 -10 31 -5 51 -14 58 -26 15 -28 -12 -102 -74 -206 -29 -50
-61 -116 -70 -147 -28 -98 -17 -199 28 -236 29 -24 191 -38 426 -36 269 2 299
10 319 77 31 101 4 228 -69 324 -137 182 -109 269 108 329 l62 18 0 507 0 507
-59 13 c-92 19 -111 47 -126 180 -13 123 -15 148 -21 215 -12 139 -35 218 -77
263 -25 27 -88 60 -166 88 -71 25 -89 49 -86 117 3 63 20 123 68 237 19 47 41
114 48 149 24 124 -2 303 -81 561 -61 199 -111 385 -135 505 -33 169 -36 195
-40 333 -4 147 12 217 81 361 51 104 151 278 225 387 56 83 101 165 117 213
11 31 10 38 -10 68 -48 70 -197 138 -313 142 -124 4 -211 -61 -345 -253 -38
-56 -84 -112 -100 -125 -146 -107 -342 -34 -659 246 -168 149 -247 210 -291
225 -19 7 -78 12 -130 12 -109 -1 -157 -16 -259 -82 -35 -23 -76 -42 -90 -42
-15 0 -50 16 -79 35 -204 138 -438 191 -647 148z m250 -138 c54 -9 114 -23
150 -37 44 -17 135 -76 170 -111 78 -76 142 -96 215 -64 19 8 69 40 110 71
106 79 166 93 247 56 42 -19 119 -68 145 -93 7 -6 29 -25 48 -41 32 -26 148
-127 174 -151 6 -6 46 -37 89 -69 168 -125 295 -180 415 -179 126 1 229 78
422 317 114 140 143 153 250 110 70 -28 61 -59 -71 -259 -144 -219 -220 -377
-255 -530 -25 -113 -25 -354 1 -475 3 -14 10 -51 15 -82 14 -75 68 -270 125
-455 26 -81 68 -218 94 -303 l48 -155 -54 -160 c-74 -222 -85 -265 -92 -385
l-6 -105 -890 1 c-1135 2 -3738 13 -3741 17 -2 1 -5 27 -8 57 -13 132 -39 237
-98 384 -38 97 -46 146 -34 226 5 32 70 282 89 341 58 176 161 557 181 669 3
19 9 46 12 60 43 197 -71 566 -271 880 -86 135 -135 220 -135 235 0 34 134 74
182 54 16 -6 68 -62 123 -129 126 -158 211 -248 254 -269 85 -43 226 -48 335
-11 93 31 252 133 352 226 41 38 138 121 172 148 15 11 33 26 41 34 19 18 120
86 157 105 52 27 112 7 272 -90 68 -41 105 -57 141 -61 46 -4 49 -3 112 53 71
64 205 133 314 163 68 19 116 21 200 7z m1360 -3249 c753 -9 1048 -17 1131
-32 48 -9 59 -60 59 -274 0 -156 -2 -178 -20 -208 -28 -46 -40 -48 -305 -57
-649 -21 -4030 -21 -4635 0 -194 7 -245 13 -266 31 -34 31 -54 122 -53 254 0
139 19 220 57 245 38 25 220 31 1087 41 338 3 616 7 617 8 5 3 1842 -3 2328
-8z m1442 -1115 l2 -383 -2442 7 c-1343 3 -2639 7 -2879 8 l-438 2 -1 50 c0
28 -2 84 -4 125 -5 99 -6 490 -2 515 7 38 66 43 552 51 209 4 381 7 382 8 1 0
1087 1 2415 1 l2413 0 2 -384z m-5343 -576 c34 -34 32 -147 -3 -176 -26 -21
-106 -19 -129 4 -12 13 -16 35 -17 88 0 59 3 73 19 85 27 19 110 18 130 -1z
m5032 7 c23 -15 33 -51 30 -106 -4 -67 -19 -86 -68 -91 -87 -8 -109 17 -103
121 2 41 8 62 21 71 19 14 102 18 120 5z m-5015 -387 c94 -6 149 -21 163 -44
3 -5 8 -24 11 -44 7 -39 -12 -66 -48 -68 -87 -6 -347 -5 -376 2 -55 12 -63 35
-52 136 3 29 79 33 302 18z m5114 1 c67 -16 95 -42 95 -87 0 -30 -27 -55 -71
-65 -13 -3 -84 -7 -158 -8 -206 -4 -271 14 -271 74 0 45 30 72 96 86 80 17
236 17 309 0z"/>
<path d="M3411 6055 c-77 -22 -134 -53 -235 -127 -186 -138 -279 -131 -520 36
-48 33 -60 37 -79 28 -12 -6 -83 -65 -157 -132 -221 -199 -313 -273 -398 -318
-78 -41 -188 -74 -287 -87 -123 -14 -211 -32 -243 -48 -21 -10 -23 -15 -16
-62 3 -27 8 -58 9 -67 2 -9 6 -43 10 -75 3 -32 9 -74 12 -93 16 -90 4 -248
-31 -407 -14 -67 -75 -282 -137 -486 -90 -295 -104 -342 -122 -398 -8 -26 -11
-53 -7 -60 4 -8 42 -106 85 -219 42 -113 81 -207 85 -210 5 -3 961 -5 2125 -5
l2116 0 21 50 c11 28 24 59 28 70 4 11 15 36 23 55 34 77 60 147 72 193 27 97
8 192 -113 567 -89 275 -119 395 -139 565 -8 67 -9 327 -3 480 5 98 5 99 -20
111 -14 7 -43 15 -65 18 -22 3 -73 10 -113 16 -215 30 -373 101 -537 241 -11
10 -29 26 -41 36 -24 20 -182 163 -198 178 -33 32 -119 95 -130 95 -7 0 -49
-28 -94 -61 -111 -83 -177 -109 -267 -106 -83 3 -133 26 -245 111 -147 111
-266 145 -389 111z m232 -194 c34 -17 73 -40 87 -53 69 -63 172 -122 237 -135
102 -19 213 4 362 78 53 26 101 44 108 40 6 -3 50 -44 98 -89 117 -112 192
-172 300 -239 151 -94 274 -145 380 -158 96 -11 98 -12 109 -72 5 -25 15 -141
21 -247 3 -49 8 -106 10 -128 3 -21 7 -57 10 -80 13 -118 54 -300 109 -483 92
-307 108 -361 111 -376 2 -9 8 -33 13 -53 20 -72 8 -153 -42 -281 -26 -66 -51
-124 -56 -129 -6 -6 -3794 -12 -3963 -7 -32 2 -162 299 -152 348 12 62 36 148
106 376 118 385 146 514 163 757 17 222 28 306 45 339 5 9 35 22 68 30 98 22
259 78 332 115 62 31 170 104 204 137 30 31 250 215 272 228 21 13 31 10 132
-42 235 -119 331 -110 546 52 122 92 167 109 270 105 39 -2 77 -13 120 -33z"/>
<path d="M2460 5210 c-26 -26 -25 -48 6 -127 14 -35 27 -72 29 -81 2 -19 -15
-62 -25 -62 -4 0 -15 -17 -24 -39 -14 -29 -15 -43 -7 -59 20 -38 112 -34 155
7 28 26 60 27 94 2 39 -26 79 -34 118 -21 43 14 43 32 2 96 -39 60 -40 97 -5
149 34 50 34 81 1 116 -31 32 -41 30 -104 -21 -52 -42 -70 -41 -123 6 -36 34
-69 54 -86 54 -6 0 -20 -9 -31 -20z"/>
<path d="M3335 5210 c-24 -27 -21 -69 9 -136 33 -72 32 -89 -4 -143 -39 -57
-40 -96 -2 -108 38 -14 81 -6 124 23 47 30 59 30 111 0 47 -27 108 -29 133 -5
15 16 15 15 -39 114 -24 42 -21 73 10 117 14 22 26 52 26 68 0 56 -61 91 -96
56 -8 -8 -31 -26 -52 -40 -42 -29 -46 -28 -120 33 -56 46 -74 50 -100 21z"/>
<path d="M4210 5208 c-26 -28 -23 -58 15 -150 l28 -67 -32 -49 c-54 -84 -49
-118 16 -126 31 -4 105 23 117 43 11 17 55 13 85 -8 39 -28 75 -35 115 -21 45
14 46 31 4 96 -39 60 -40 97 -5 149 31 46 34 81 8 113 -26 31 -56 28 -104 -11
-64 -51 -68 -51 -137 4 -34 27 -68 49 -75 49 -8 0 -24 -10 -35 -22z"/>
<path d="M2257 4307 l-58 -42 -59 33 c-64 35 -104 40 -138 16 -29 -20 -28 -37
8 -112 36 -77 37 -96 5 -138 -31 -41 -33 -87 -4 -108 25 -17 51 -14 119 18 55
26 67 25 113 -7 16 -11 49 -22 73 -25 79 -8 105 45 54 108 -41 50 -42 64 -10
144 34 85 36 103 14 134 -22 32 -51 27 -117 -21z"/>
<path d="M3169 4332 c-15 -9 -38 -25 -52 -35 -39 -28 -57 -27 -113 4 -55 31
-99 36 -126 15 -25 -18 -22 -58 7 -116 35 -70 36 -88 3 -139 -31 -50 -34 -69
-15 -94 21 -28 60 -27 127 3 67 30 75 29 129 -7 38 -26 97 -30 126 -10 24 18
15 65 -20 111 -31 41 -31 60 0 129 32 69 35 125 10 143 -25 18 -45 17 -76 -4z"/>
<path d="M4054 4337 c-12 -6 -40 -25 -64 -42 l-42 -29 -59 32 c-64 35 -103 40
-137 16 -29 -20 -28 -37 8 -112 35 -75 37 -94 10 -132 -45 -63 -43 -102 7
-121 19 -7 36 -4 71 12 86 39 97 40 138 11 52 -35 122 -41 147 -14 16 18 17
26 7 56 -6 19 -18 40 -27 47 -33 28 -34 56 -3 133 34 85 36 103 14 134 -17 25
-39 28 -70 9z"/>
<path d="M4909 4325 c-83 -59 -84 -60 -149 -26 -126 66 -185 19 -125 -99 35
-70 36 -88 3 -139 -31 -50 -34 -69 -15 -94 21 -28 60 -27 127 3 67 30 75 29
129 -7 36 -24 89 -30 122 -13 28 16 24 60 -11 108 -36 51 -37 65 -5 134 31 66
33 133 6 148 -29 15 -45 12 -82 -15z"/>
</g>
</svg>
