<?xml version="1.0" standalone="no"?>
<!DOCTYPE svg PUBLIC "-//W3C//DTD SVG 1.1//EN" "http://www.w3.org/Graphics/SVG/1.1/DTD/svg11.dtd" >
<svg xmlns="http://www.w3.org/2000/svg" xmlns:xlink="http://www.w3.org/1999/xlink" version="1.1">
<metadata>
Created by FontForge 20170731 at Sat Mar  5 20:24:03 2022
 By Aleksey,,,
Copyright 2021 The Montserrat Project Authors (https://github.com/JulietaUla/Montserrat)
</metadata>
<defs>
<font id="MontserratLightAlt1Light" horiz-adv-x="1370" >
  <font-face 
    font-family="Montserrat Light Alt1"
    font-weight="500"
    font-stretch="normal"
    units-per-em="2048"
    panose-1="0 0 0 0 0 0 0 0 0 0"
    ascent="1638"
    descent="-410"
    x-height="1069"
    cap-height="1434"
    bbox="-180 -535 2896 2118"
    underline-thickness="102"
    underline-position="-307"
    unicode-range="U+0020-0237"
  />
<missing-glyph horiz-adv-x="935" 
d="M41 1382h854v-1382h-854v1382zM139 98h656v1186h-656v-1186z" />
    <glyph glyph-name=".notdef" horiz-adv-x="935" 
d="M41 1382h854v-1382h-854v1382zM139 98h656v1186h-656v-1186z" />
    <glyph glyph-name=".notdef" horiz-adv-x="935" 
d="M41 1382h854v-1382h-854v1382zM139 98h656v1186h-656v-1186z" />
    <glyph glyph-name=".null" horiz-adv-x="0" 
 />
    <glyph glyph-name="nonmarkingreturn" horiz-adv-x="682" 
 />
    <glyph glyph-name="space" unicode=" " horiz-adv-x="526" 
 />
    <glyph glyph-name="exclam" unicode="!" horiz-adv-x="516" 
d="M219 412l-20 1022h118l-20 -1022h-78zM258 -8q-35 0 -59 24q-25 25 -25 60q0 34 25 59t59 25q36 0 61 -25t25 -59q0 -35 -25 -60q-24 -24 -61 -24z" />
    <glyph glyph-name="quotedbl" unicode="&#x22;" horiz-adv-x="731" 
d="M160 905l-8 529h94l-8 -529h-78zM492 905l-9 529h95l-9 -529h-77z" />
    <glyph glyph-name="numbersign" unicode="#" horiz-adv-x="1413" 
d="M1348 946h-306l-57 -459h297v-81h-307l-49 -406h-82l49 406h-449l-51 -406h-82l49 406h-294v81h305l57 459h-299v82h309l49 406h84l-51 -406h451l49 406h82l-49 -406h295v-82zM903 487l58 459h-451l-55 -459h448z" />
    <glyph glyph-name="dollar" unicode="$" horiz-adv-x="1247" 
d="M1143 369q0 -103 -51 -183q-55 -86 -160 -137q-109 -53 -264 -59v-236h-76v236q-147 6 -281 59t-207 135l48 78q71 -74 190 -123q116 -51 250 -57v594q-149 37 -234 74q-95 42 -153 114q-62 77 -62 199q0 151 115 260q113 107 334 119v237h76v-235q118 -3 227 -37
q111 -36 188 -92l-39 -84q-81 57 -182 88q-111 30 -194 33v-594q169 -44 250 -76q94 -38 159 -111q66 -78 66 -202zM248 1065q0 -126 88 -184q90 -62 256 -105v574q-169 -12 -256 -90q-88 -79 -88 -195zM668 82q183 9 278 86q92 77 92 194q0 90 -49 148q-51 57 -125 86
q-84 33 -196 61v-575z" />
    <glyph glyph-name="percent" unicode="%" horiz-adv-x="1673" 
d="M408 668q-144 0 -228 106q-88 107 -88 281q0 173 88 280q85 107 228 107q141 0 229 -107t88 -280q0 -174 -88 -281q-87 -106 -229 -106zM303 0l979 1434h88l-979 -1434h-88zM408 737q109 0 174 86q65 83 65 232q0 147 -65 233q-66 84 -174 84q-107 0 -172 -86
q-66 -87 -66 -231q0 -145 66 -232q65 -86 172 -86zM1266 -8q-143 0 -230 106q-88 107 -88 281q0 173 88 280t230 107q141 0 229 -107q86 -109 86 -280q0 -172 -86 -281q-87 -106 -229 -106zM1266 61q107 0 172 86t65 232q0 145 -65 231t-172 86q-108 0 -174 -84
q-66 -87 -66 -233q0 -148 66 -232q65 -86 174 -86z" />
    <glyph glyph-name="ampersand" unicode="&#x26;" horiz-adv-x="1341" 
d="M1319 47l-62 -67l-206 217q-87 -101 -209 -154q-121 -53 -269 -53q-136 0 -241 45q-109 47 -166 127q-60 85 -60 186q0 123 84 230q79 98 287 221l-2 4q-102 105 -145 186q-39 71 -39 160q0 133 92 213t248 80q144 0 231 -72q84 -75 84 -201q0 -106 -72 -190
q-72 -83 -256 -193l424 -448q68 118 103 291l84 -27q-40 -197 -123 -330zM387 1149q0 -67 35 -129q33 -62 137 -172q172 101 234 168q63 66 63 151q0 91 -59 144q-57 51 -166 51q-115 0 -178 -57q-66 -60 -66 -156zM578 76q262 0 411 186l-452 477q-187 -110 -258 -194
q-72 -84 -72 -189q0 -126 104 -202q104 -78 267 -78z" />
    <glyph glyph-name="quotesingle" unicode="'" horiz-adv-x="397" 
d="M160 905l-8 529h94l-8 -529h-78z" />
    <glyph glyph-name="parenleft" unicode="(" horiz-adv-x="657" 
d="M463 -397q-113 185 -172 432q-62 245 -62 526q0 280 62 531q59 248 172 428h98q-231 -396 -231 -959q0 -562 231 -958h-98z" />
    <glyph glyph-name="parenright" unicode=")" horiz-adv-x="659" 
d="M195 -397h-97q117 194 174 438q56 239 56 520t-56 520q-57 245 -174 439h97q115 -182 176 -428q59 -251 59 -531q0 -281 -59 -526q-61 -242 -176 -432z" />
    <glyph glyph-name="asterisk" unicode="*" horiz-adv-x="768" 
d="M719 1307l-262 -148l262 -149l-37 -66l-264 154l2 -301h-72v299l-262 -152l-37 66l264 149l-264 148l37 65l262 -151v299h72l-2 -301l264 153z" />
    <glyph glyph-name="plus" unicode="+" horiz-adv-x="1165" 
d="M1018 760v-88h-389v-379h-92v379h-390v88h390v381h92v-381h389z" />
    <glyph glyph-name="comma" unicode="," horiz-adv-x="409" 
d="M205 166q36 0 61 -25q25 -28 25 -61q0 -15 -4 -43q-12 -42 -15 -51l-79 -279h-74l67 289q-30 9 -49 31q-18 21 -18 53q0 37 24 61q25 25 62 25z" />
    <glyph glyph-name="hyphen" unicode="-" horiz-adv-x="780" 
d="M127 504v92h526v-92h-526z" />
    <glyph glyph-name="period" unicode="." horiz-adv-x="409" 
d="M205 -8q-37 0 -60 26q-26 23 -26 62q0 38 26 61q25 25 60 25q33 0 61 -25q25 -25 25 -61q0 -37 -25 -62q-26 -26 -61 -26z" />
    <glyph glyph-name="slash" unicode="/" horiz-adv-x="655" 
d="M-47 -205l676 1929h94l-676 -1929h-94z" />
    <glyph glyph-name="zero" unicode="0" horiz-adv-x="1347" 
d="M674 -10q-163 0 -291 90q-128 88 -199 252q-71 165 -71 385t71 385q72 167 199 254q125 88 291 88q165 0 293 -88q127 -89 198 -254q70 -162 70 -385t-70 -385t-198 -252q-131 -90 -293 -90zM674 86q135 0 239 76q102 73 160 217q57 137 57 338q0 200 -57 340
q-58 141 -160 217q-106 74 -239 74q-135 0 -238 -74q-103 -75 -162 -217q-57 -140 -57 -340q0 -201 57 -338q59 -145 162 -217q101 -76 238 -76z" />
    <glyph glyph-name="one" unicode="1" horiz-adv-x="722" 
d="M18 1434h455v-1434h-104v1339h-351v95z" />
    <glyph glyph-name="two" unicode="2" horiz-adv-x="1153" 
d="M238 94h831v-94h-985v74l606 602q117 117 162 205q41 84 41 174q0 138 -92 215q-96 78 -271 78q-132 0 -235 -41q-100 -40 -176 -125l-74 65q81 93 209 146q122 51 285 51q208 0 335 -103q125 -101 125 -276q0 -110 -49 -211t-184 -233z" />
    <glyph glyph-name="three" unicode="3" horiz-adv-x="1142" 
d="M549 809q235 -6 362 -115q123 -111 123 -291q0 -124 -57 -213q-59 -96 -170 -147q-115 -53 -275 -53q-153 0 -292 53q-138 53 -213 139l53 80q72 -78 190 -127q119 -49 262 -49q190 0 293 86q103 83 103 231q0 151 -105 234q-107 84 -313 84h-90v76l424 542h-764v95h899
v-74z" />
    <glyph glyph-name="four" unicode="4" horiz-adv-x="1339" 
d="M1309 489v-92h-301v-397h-103v397h-817v76l778 961h117l-764 -945h688v351h101v-351h301z" />
    <glyph glyph-name="five" unicode="5" horiz-adv-x="1142" 
d="M463 834q313 0 455 -109q141 -111 141 -311q0 -123 -55 -217q-61 -99 -170 -152q-113 -55 -277 -55q-155 0 -291 53q-134 51 -213 139l53 80q68 -77 189 -127q119 -49 260 -49q193 0 297 88q102 88 102 236q0 163 -116 245q-122 84 -398 84h-290l75 695h760v-95h-672
l-55 -505h205z" />
    <glyph glyph-name="six" unicode="6" horiz-adv-x="1232" 
d="M686 848q144 0 252 -51q107 -52 168 -150q59 -100 59 -225q0 -129 -61 -227q-62 -99 -170 -152q-109 -53 -246 -53q-279 0 -426 190q-149 186 -149 529q0 235 80 403q78 166 221 248q147 84 336 84q201 0 325 -74l-43 -84q-104 66 -282 66q-248 0 -390 -160
q-143 -162 -143 -467q0 -95 12 -172q45 142 168 217q125 78 289 78zM684 80q168 0 272 94q105 92 105 246t-105 246q-106 92 -284 92q-119 0 -205 -45q-91 -47 -141 -123q-52 -76 -52 -174q0 -87 50 -164q48 -79 139 -125q92 -47 221 -47z" />
    <glyph glyph-name="seven" unicode="7" horiz-adv-x="1189" 
d="M70 1434h1028v-74l-617 -1360h-114l610 1339h-805v-274h-102v369z" />
    <glyph glyph-name="eight" unicode="8" horiz-adv-x="1294" 
d="M881 750q146 -40 229 -132q80 -92 80 -225q0 -186 -146 -295q-144 -108 -399 -108q-251 0 -395 108q-146 109 -146 295q0 136 80 228q76 88 226 129q-126 42 -189 122q-65 83 -65 201q0 170 133 273q131 98 356 98t359 -101q135 -102 135 -270q0 -115 -66 -199
q-69 -85 -192 -124zM260 1071q0 -129 102 -205q100 -75 283 -75q184 0 287 75q102 74 102 203q0 133 -104 209q-107 76 -285 76q-179 0 -280 -76q-105 -76 -105 -207zM645 80q205 0 324 84q116 82 116 229q0 146 -116 228q-119 84 -324 84q-203 0 -319 -84
q-117 -83 -117 -228q0 -146 115 -229q116 -84 321 -84z" />
    <glyph glyph-name="nine" unicode="9" horiz-adv-x="1232" 
d="M545 1444q277 0 428 -189q147 -191 147 -530q0 -234 -78 -401q-80 -168 -223 -250q-147 -84 -336 -84q-203 0 -325 73l43 84q103 -65 282 -65q248 0 391 162q142 160 142 465q0 95 -12 172q-45 -141 -166 -217q-128 -78 -291 -78q-141 0 -250 53q-114 54 -170 149
q-59 95 -59 224t61 227q62 99 170 152q109 53 246 53zM561 676q118 0 207 45q88 47 141 123q49 76 49 174q0 87 -47 164q-51 79 -141 125q-92 47 -221 47q-167 0 -273 -92q-104 -94 -104 -248q0 -155 104 -246q106 -92 285 -92z" />
    <glyph glyph-name="colon" unicode=":" horiz-adv-x="409" 
d="M205 903q-36 0 -60 27q-26 23 -26 61q0 39 26 62q24 24 60 24q34 0 61 -24q25 -25 25 -62q0 -36 -25 -61q-27 -27 -61 -27zM205 -8q-37 0 -60 26q-26 23 -26 62q0 38 26 61q25 25 60 25q33 0 61 -25q25 -25 25 -61q0 -37 -25 -62q-26 -26 -61 -26z" />
    <glyph glyph-name="semicolon" unicode=";" horiz-adv-x="409" 
d="M205 903q-36 0 -60 27q-26 23 -26 61q0 39 26 62q24 24 60 24q34 0 61 -24q25 -25 25 -62q0 -36 -25 -61q-27 -27 -61 -27zM205 166q36 0 61 -25q25 -28 25 -61q0 -15 -4 -43q-12 -42 -15 -51l-79 -279h-74l67 289q-30 9 -49 31q-18 21 -18 53q0 37 24 61q25 25 62 25z
" />
    <glyph glyph-name="less" unicode="&#x3c;" horiz-adv-x="1165" 
d="M1018 1120v-94l-772 -309l772 -309v-95l-871 355v98z" />
    <glyph glyph-name="equal" unicode="=" horiz-adv-x="1165" 
d="M147 905v86h871v-86h-871zM147 442v86h871v-86h-871z" />
    <glyph glyph-name="greater" unicode="&#x3e;" horiz-adv-x="1165" 
d="M147 1120l871 -354v-98l-871 -355v95l773 309l-773 309v94z" />
    <glyph glyph-name="question" unicode="?" horiz-adv-x="1150" 
d="M494 412q0 84 28 151q23 55 70 109q43 49 106 104q94 84 138 146q43 61 43 157q0 120 -95 197q-94 76 -264 76q-134 0 -237 -41q-100 -42 -174 -129l-76 59q170 203 493 203q209 0 334 -94t125 -256q0 -86 -27 -150t-67 -110q-45 -51 -109 -107q-71 -65 -98 -96
q-37 -43 -59 -92q-25 -58 -25 -127h-106zM547 -8q-36 0 -60 24t-24 60q0 35 24 59q25 25 60 25q36 0 61 -25t25 -59q0 -35 -25 -60q-24 -24 -61 -24z" />
    <glyph glyph-name="at" unicode="@" horiz-adv-x="2115" 
d="M1061 1444q274 0 487 -113q217 -115 336 -319t119 -473q0 -255 -84 -402q-86 -145 -231 -145q-97 0 -156 59t-59 160v43q-60 -121 -177 -193q-112 -69 -260 -69q-145 0 -260 69q-117 67 -182 189q-68 121 -68 274q0 152 68 273q64 119 182 190q118 68 260 68
q145 0 260 -68q111 -66 174 -188v248h95v-809q0 -83 37 -123q36 -39 98 -39q102 0 164 123q59 121 59 338q0 247 -108 434q-111 187 -306 293q-197 102 -448 102q-259 0 -449 -106q-199 -110 -305 -299q-110 -192 -110 -441q0 -246 108 -440q107 -191 303 -299
q195 -109 445 -109q87 0 202 23q109 22 189 67l26 -75q-85 -46 -198 -70q-119 -25 -219 -25q-278 0 -488 119q-214 117 -334 328q-118 208 -118 481q0 270 120 481q120 208 336 326q214 117 492 117zM1047 78q123 0 219 57q96 56 151 158q56 103 56 231q0 131 -56 234
q-53 97 -151 155q-100 56 -219 56q-123 0 -218 -56q-99 -61 -151 -157q-55 -101 -55 -232q0 -130 55 -231q55 -102 151 -158q92 -57 218 -57z" />
    <glyph glyph-name="A" unicode="A" horiz-adv-x="1443" 
d="M121 0h-111l660 1434h104l660 -1432h-111l-598 1313h-8z" />
    <glyph glyph-name="B" unicode="B" horiz-adv-x="1540" 
d="M250 0v88h18q72 0 203 -0.5t238.5 -0.5t203.5 1q141 4 228 41q172 68 172 252q0 148 -101 223q-53 41 -147 62q-93 20 -234 16h-552h-29v88h26l295 -1q295 -1 295 1q129 4 211 41q77 35 118.5 104t37.5 154q-6 137 -107 205q-91 60 -192 63q-74 5 -293 9h-391v88h22h574
q184 -4 297 -60q197 -93 194 -315q-3 -212 -198 -301q-4 -2 -12.5 -6.5t-12.5 -6.5l-12 -6q16 -5 42.5 -12.5t37.5 -11.5q200 -71 227 -279q20 -153 -51 -258q-71 -104 -234 -151q-108 -27 -245 -27h-600h-29z" />
    <glyph glyph-name="C" unicode="C" horiz-adv-x="1466" 
d="M1366 1245l-66 -59q-55 44 -65 51q-157 115 -383 115q-219 -3 -383 -125q-184 -134 -236 -350q-43 -181 13 -363q39 -127 137 -233q205 -212 539 -193q141 9 274 86q16 9 42 29.5t32 25.5q5 3 16 12t17 13q10 -11 31.5 -34t29.5 -32q-7 -6 -22 -21t-23 -22
q-114 -95 -279 -135q-159 -36 -331 -8q-302 56 -476 305q-76 107 -105 249.5t-7.5 282.5t86.5 248q156 260 452 334q242 57 486 -28q119 -40 209 -133q2 -2 5.5 -7t6.5 -8z" />
    <glyph glyph-name="D" unicode="D" horiz-adv-x="1691" 
d="M250 1341v91q3 0 8.5 1t7.5 1q482 0 580 -2q245 -3 430 -132q213 -147 276 -387q42 -160 15 -329q-31 -188 -150 -328q-128 -149 -317 -211q-139 -45 -299 -45h-525q-16 0 -26 2v711h102v-617q4 0 10 -1t9 -1q44 0 154.5 -1t191 -0.5t155.5 3.5q271 9 447 197
q110 115 141 282q47 223 -47 424q-81 177 -268 267q-147 73 -352 73q0 -1 -255 -1l-255 1q-21 0 -33 2z" />
    <glyph glyph-name="E" unicode="E" 
d="M250 1343v91h926v-91h-926zM1176 0h-926v90h926v-90zM250 686v86h926v-86h-926z" />
    <glyph glyph-name="F" unicode="F" horiz-adv-x="1292" 
d="M1167 725v-90h-815v-635h-102v725h917zM250 1343v91h915v-91h-915z" />
    <glyph glyph-name="G" unicode="G" horiz-adv-x="1583" 
d="M1274 217v494h100v-537q-98 -91 -227 -137q-136 -47 -285 -47q-214 0 -383 94q-175 96 -268 260q-98 165 -98 373t98 373q93 164 268 260q169 94 385 94q160 0 291 -49q128 -51 225 -148l-65 -69q-91 91 -201 131q-110 39 -248 39q-185 0 -331 -82q-153 -84 -234 -226
q-84 -147 -84 -323q0 -175 86 -320q82 -143 232 -227t331 -84q246 0 408 131z" />
    <glyph glyph-name="H" unicode="H" horiz-adv-x="1667" 
d="M1313 1434h104v-1434h-104v682h-959v-682h-104v1434h104v-660h959v660z" />
    <glyph glyph-name="I" unicode="I" horiz-adv-x="604" 
d="M250 0v1434h104v-1434h-104z" />
    <glyph glyph-name="J" unicode="J" horiz-adv-x="1005" 
d="M379 -10q-116 0 -217 55q-100 51 -164 150l63 69q56 -84 142 -133q80 -47 176 -47q143 0 215 84q70 82 70 254v917h-529v95h633v-1012q0 -217 -98 -324q-99 -108 -291 -108z" />
    <glyph glyph-name="K" unicode="K" horiz-adv-x="1439" 
d="M1292 0l-616 707l-322 -330v-377h-104v1434h104v-922l895 922h127l-631 -652l674 -782h-127z" />
    <glyph glyph-name="L" unicode="L" horiz-adv-x="1198" 
d="M250 0v1434h104v-1340h826v-94h-930z" />
    <glyph glyph-name="M" unicode="M" horiz-adv-x="1957" 
d="M1708 0h-102l-2 1227l-600 -1037h-52l-600 1033v-1223h-102v1434h88l641 -1108l641 1108h86z" />
    <glyph glyph-name="N" unicode="N" horiz-adv-x="1667" 
d="M1313 1434h104v-1434h-86l-977 1245v-1245h-104v1434h88l975 -1246v1246z" />
    <glyph glyph-name="O" unicode="O" horiz-adv-x="1716" 
d="M858 -10q-209 0 -381 96q-173 97 -266 260q-98 165 -98 371q0 205 98 370q95 168 266 263q169 94 381 94t381 -94q170 -95 268 -260q97 -171 97 -373t-97 -373q-98 -165 -268 -260q-169 -94 -381 -94zM858 86q183 0 326 82q147 84 229 227q84 147 84 322q0 176 -84 323
q-81 141 -229 226q-143 82 -326 82t-326 -82q-150 -84 -231 -226q-84 -147 -84 -323q0 -175 84 -322q82 -143 231 -227q143 -82 326 -82z" />
    <glyph glyph-name="P" unicode="P" horiz-adv-x="1464" 
d="M250 561h31q350 0 524 2q144 0 258 64q148 85 170 262q13 110 -19 201q-50 151 -213 210q-103 39 -251 39h-469q-5 0 -15.5 1t-15.5 1v91q4 0 12 1t12 1h494q189 -3 317 -66q234 -112 252 -369q10 -136 -26 -229q-76 -190 -271 -258q-131 -46 -276 -43h-377q-5 0 -16 -1
t-19 -1v-467h-102v561z" />
    <glyph glyph-name="Q" unicode="Q" horiz-adv-x="1716" 
d="M915 -8v-264h-106v264q-104 15 -121 18q-366 81 -504 396q-164 375 47 710q172 265 498 316q274 46 500 -76q306 -166 364 -504q45 -236 -51 -438q-162 -351 -563 -414q-42 -4 -64 -8zM811 455h100v-365q4 -2 9 -2q231 15 389 170q219 212 188 528q-24 261 -237 431
q-199 154 -467 129q-188 -18 -330 -125t-205 -275.5t-27 -359.5q49 -257 279 -404q134 -85 301 -94v367z" />
    <glyph glyph-name="R" unicode="R" horiz-adv-x="1474" 
d="M1360 0h-117l-336 471h-557v-471h-100v559q5 0 16.5 1t16.5 1q57 0 161.5 -0.5t190.5 -0.5t162 1q152 0 264 64q139 81 166 245q21 114 -17 226q-36 103 -133 166q-114 72 -272 75q-174 2 -524 2h-31v93q3 0 8 1t8 1q446 0 535 -2q219 -7 364 -113q116 -85 154 -225
q48 -175 -14 -332q-71 -176 -246 -240l-58 -22q132 -182 359 -500z" />
    <glyph glyph-name="S" unicode="S" horiz-adv-x="1247" 
d="M627 -10q-159 0 -299 55q-143 52 -224 139l48 78q77 -80 204 -129q122 -51 269 -51q202 0 309 78q104 76 104 202q0 96 -55 154t-137 88q-77 28 -221 64q-182 47 -252 75q-98 39 -162 115q-68 77 -68 205q0 103 56 192q55 85 170 138q111 51 282 51q118 0 234 -35
q114 -35 198 -94l-39 -84q-89 61 -188 90q-109 31 -205 31q-198 0 -301 -80q-102 -80 -102 -207q0 -96 55 -154t137 -88q86 -31 224 -65q172 -45 251 -76q95 -38 162 -111q66 -78 66 -202q0 -105 -56 -191q-58 -85 -174 -137q-114 -51 -286 -51z" />
    <glyph glyph-name="T" unicode="T" horiz-adv-x="1153" 
d="M524 0v1339h-516v95h1137v-95h-516v-1339h-105z" />
    <glyph glyph-name="U" unicode="U" horiz-adv-x="1624" 
d="M811 -10q-271 0 -422 157t-151 461v826h104v-822q0 -262 121 -395q119 -131 350 -131q229 0 348 131q121 133 121 395v822h104v-826q0 -304 -151 -461t-424 -157z" />
    <glyph glyph-name="V" unicode="V" horiz-adv-x="1406" 
d="M1286 1434h109l-639 -1434h-105l-639 1434h115l580 -1299z" />
    <glyph glyph-name="W" unicode="W" horiz-adv-x="2248" 
d="M2064 1434h103l-486 -1434h-110l-445 1286l-446 -1286h-111l-487 1434h111l436 -1291l448 1291h101l446 -1293z" />
    <glyph glyph-name="X" unicode="X" horiz-adv-x="1314" 
d="M1272 0h-123l-494 664l-491 -664h-123l551 739l-512 695h123l456 -617l457 617h117l-512 -693z" />
    <glyph glyph-name="Y" unicode="Y" horiz-adv-x="1280" 
d="M1270 1434l-578 -940v-494h-104v494l-578 940h115l518 -844l518 844h109z" />
    <glyph glyph-name="Z" unicode="Z" horiz-adv-x="1323" 
d="M242 94h1009v-94h-1155v74l989 1265h-976v95h1120v-74z" />
    <glyph glyph-name="bracketleft" unicode="[" horiz-adv-x="626" 
d="M250 -397v1917h330v-88h-228v-1741h228v-88h-330z" />
    <glyph glyph-name="backslash" unicode="\" horiz-adv-x="655" 
d="M702 -205h-94l-676 1929h95z" />
    <glyph glyph-name="bracketright" unicode="]" horiz-adv-x="626" 
d="M377 -397h-330v88h227v1741h-227v88h330v-1917z" />
    <glyph glyph-name="asciicircum" unicode="^" horiz-adv-x="1167" 
d="M985 295h-90l-311 752l-312 -752h-88l355 844h92z" />
    <glyph glyph-name="underscore" unicode="_" horiz-adv-x="1024" 
d="M0 -74v74h1024v-74h-1024z" />
    <glyph glyph-name="grave" unicode="`" horiz-adv-x="1228" 
d="M621 1243l-322 242h147l285 -242h-110z" />
    <glyph glyph-name="a" unicode="a" horiz-adv-x="1193" 
d="M578 1077q199 0 305 -100t106 -299v-678h-98v190q-52 -93 -150 -145q-100 -53 -235 -53q-177 0 -281 84q-104 82 -104 221q0 133 96 217q94 82 303 82h367v86q0 150 -80 227q-84 78 -238 78q-109 0 -202 -37q-100 -38 -166 -98l-51 74q82 73 192 112t236 39zM520 76
q134 0 228 61q93 63 139 178v201h-365q-158 0 -227 -57q-72 -60 -72 -158q0 -104 78 -164q76 -61 219 -61z" />
    <glyph glyph-name="b" unicode="b" horiz-adv-x="1382" 
d="M754 1077q151 0 270 -67q120 -70 190 -193q68 -127 68 -282q0 -157 -68 -281q-70 -123 -190 -193q-117 -69 -270 -69q-146 0 -258 69q-116 67 -181 191v-252h-98v1520h102v-695q64 119 179 187q115 65 256 65zM748 84q125 0 221 57t155 160q56 103 56 234q0 130 -56 233
q-59 103 -155 160t-221 57q-128 0 -220 -57q-97 -57 -153 -160q-58 -101 -58 -233q0 -133 58 -234q56 -103 153 -160q92 -57 220 -57z" />
    <glyph glyph-name="c" unicode="c" horiz-adv-x="1136" 
d="M641 -8q-159 0 -279 69q-122 70 -192 195q-70 122 -70 279t70 282q71 124 192 193q122 67 279 67q129 0 236 -49q106 -53 170 -147l-76 -56q-59 80 -142 121q-82 39 -188 39q-125 0 -223 -55q-100 -57 -156 -160q-57 -99 -57 -235q0 -137 57 -236q57 -104 156 -158
q96 -57 223 -57q101 0 188 41q85 42 142 119l76 -56q-65 -96 -170 -145q-105 -51 -236 -51z" />
    <glyph glyph-name="d" unicode="d" horiz-adv-x="1382" 
d="M1065 1520h102v-1520h-100v252q-64 -126 -178 -193q-113 -67 -260 -67q-154 0 -271 69q-121 71 -188 193q-70 122 -70 281q0 157 70 282q67 122 188 193q119 67 271 67q145 0 258 -67q112 -66 178 -189v699zM635 84q125 0 221 57q96 60 154 160q55 101 55 234
q0 132 -55 233q-58 100 -154 160q-96 57 -221 57q-127 0 -219 -57q-99 -58 -154 -160q-57 -99 -57 -233q0 -135 57 -234q55 -102 154 -160q92 -57 219 -57z" />
    <glyph glyph-name="e" unicode="e" horiz-adv-x="1222" 
d="M1122 539l-2 -29h-919q3 -124 63 -221q58 -99 162 -152q103 -53 227 -53q110 0 195 39q90 38 147 110l60 -67q-71 -84 -174 -129q-105 -45 -230 -45q-161 0 -284 69q-124 70 -195 193q-72 126 -72 281q0 153 68 280q64 122 182 193q115 69 262 69q146 0 262 -67
q117 -72 183 -193q65 -124 65 -278zM612 987q-114 0 -202 -49q-93 -55 -144 -141q-54 -88 -63 -207h819q-6 118 -61 205q-54 87 -146 141q-86 51 -203 51z" />
    <glyph glyph-name="f" unicode="f" horiz-adv-x="671" 
d="M539 1440q-201 0 -201 -215v-156h342v-88h-340v-981h-102v981h-197v88h197v164q0 135 77 215t220 80q52 0 118 -17q53 -17 92 -53l-40 -78q-66 60 -166 60z" />
    <glyph glyph-name="g" unicode="g" horiz-adv-x="1396" 
d="M1081 1069h99v-954q0 -268 -129 -394q-130 -127 -389 -127q-148 0 -279 46q-134 47 -211 124l55 78q80 -74 193 -114q115 -41 239 -41q214 0 316 102t102 313v181q-64 -116 -182 -181q-114 -63 -262 -63q-152 0 -271 67q-120 63 -192 185q-70 119 -70 268t70 268
q72 122 192 185q121 65 271 65q145 0 266 -65q116 -62 182 -185v242zM641 131q124 0 225 55q98 50 158 152q55 94 55 221t-55 221q-62 100 -158 152q-103 53 -225 53q-123 0 -223 -53q-98 -53 -156 -152q-57 -92 -57 -221t57 -221q57 -101 156 -152q98 -55 223 -55z" />
    <glyph glyph-name="h" unicode="h" horiz-adv-x="1378" 
d="M739 1077q202 0 318 -116q117 -117 117 -336v-625h-103v616q0 179 -90 275q-91 94 -256 94q-190 0 -297 -113q-109 -115 -109 -303v-569h-102v1520h102v-674q55 110 164 172q109 59 256 59z" />
    <glyph glyph-name="i" unicode="i" horiz-adv-x="534" 
d="M217 0v1069h102v-1069h-102zM268 1329q-34 0 -59 25q-25 22 -25 57q0 34 25 59t59 25q35 0 60 -22q24 -24 24 -60q0 -35 -24 -59q-25 -25 -60 -25z" />
    <glyph glyph-name="j" unicode="j" horiz-adv-x="544" 
d="M41 -406q-63 0 -125 19q-58 18 -96 53l41 76q65 -59 174 -59q94 0 143 55t49 160v1171h103v-1175q0 -139 -76 -218q-76 -82 -213 -82zM279 1329q-35 0 -60 25q-24 21 -24 57q0 35 24 59q25 25 60 25q34 0 59 -22q24 -24 24 -60q0 -35 -24 -59q-25 -25 -59 -25z" />
    <glyph glyph-name="k" unicode="k" horiz-adv-x="1204" 
d="M1053 0l-455 571l-279 -254v-317h-102v1520h102v-1076l685 625h131l-461 -432l506 -637h-127z" />
    <glyph glyph-name="l" unicode="l" horiz-adv-x="534" 
d="M217 0v1520h102v-1520h-102z" />
    <glyph glyph-name="m" unicode="m" horiz-adv-x="2179" 
d="M1548 1077q201 0 314 -116q112 -115 112 -336v-625h-102v616q0 181 -88 275t-246 94q-181 0 -285 -113q-106 -112 -106 -303v-569h-103v616q0 181 -88 275t-245 94q-181 0 -285 -113q-107 -113 -107 -303v-569h-102v1069h98v-229q51 111 160 176q104 61 250 61
q145 0 248 -65q98 -62 143 -193q51 117 168 189q112 69 264 69z" />
    <glyph glyph-name="n" unicode="n" horiz-adv-x="1378" 
d="M739 1077q202 0 318 -116q117 -117 117 -336v-625h-103v616q0 179 -90 275q-91 94 -256 94q-190 0 -297 -113q-109 -115 -109 -303v-569h-102v1069h98v-231q54 111 166 176q105 63 258 63z" />
    <glyph glyph-name="o" unicode="o" horiz-adv-x="1269" 
d="M635 -8q-156 0 -273 69q-122 70 -192 195q-70 122 -70 279q0 155 70 280q71 124 192 193q117 69 273 69q154 0 274 -69q121 -71 191 -193q69 -123 69 -280q0 -159 -69 -279q-69 -123 -191 -195q-120 -69 -274 -69zM635 84q125 0 221 57q96 60 154 160q55 101 55 234
q0 132 -55 233q-58 100 -154 160q-96 57 -221 57q-127 0 -219 -57q-99 -58 -154 -160q-57 -99 -57 -233q0 -135 57 -234q55 -102 154 -160q92 -57 219 -57z" />
    <glyph glyph-name="p" unicode="p" horiz-adv-x="1382" 
d="M754 1077q153 0 270 -69q120 -70 190 -193q68 -124 68 -280q0 -157 -68 -281q-70 -126 -190 -193q-117 -69 -270 -69q-143 0 -256 67q-114 65 -179 185v-641h-102v1466h98v-252q64 123 181 193q113 67 258 67zM748 84q125 0 221 57t155 160q56 103 56 234q0 130 -56 233
q-59 103 -155 160t-221 57q-128 0 -220 -57q-97 -57 -153 -160q-58 -101 -58 -233q0 -133 58 -234q56 -103 153 -160q92 -57 220 -57z" />
    <glyph glyph-name="q" unicode="q" horiz-adv-x="1382" 
d="M1067 1069h100v-1466h-102v645q-66 -123 -178 -189q-113 -67 -258 -67q-154 0 -271 69q-121 68 -188 193q-70 122 -70 281q0 158 70 280q67 122 188 193q117 69 271 69q147 0 260 -67q114 -67 178 -193v252zM635 84q125 0 221 57q96 60 154 160q55 101 55 234
q0 132 -55 233q-58 100 -154 160q-96 57 -221 57q-127 0 -219 -57q-99 -58 -154 -160q-57 -99 -57 -233q0 -135 57 -234q55 -102 154 -160q92 -57 219 -57z" />
    <glyph glyph-name="r" unicode="r" horiz-adv-x="806" 
d="M315 836q49 115 154 180q104 61 254 61v-100l-25 2q-176 0 -278 -111q-101 -113 -101 -311v-557h-102v1069h98v-233z" />
    <glyph glyph-name="s" unicode="s" horiz-adv-x="978" 
d="M487 -8q-132 0 -245 39q-121 42 -183 98l47 82q62 -53 170 -92q101 -37 216 -37q162 0 239 53q76 52 76 148q0 65 -41 106q-42 39 -104 57q-61 18 -170 39q-120 20 -205 50q-77 27 -133 86t-56 163q0 129 107 211q104 82 299 82q97 0 203 -28q91 -24 163 -76l-47 -82
q-67 48 -149 72q-83 24 -172 24q-150 0 -226 -55q-75 -54 -75 -146q0 -70 43 -110q47 -43 106 -60q70 -24 174 -43q113 -19 203 -47q78 -28 129 -84q53 -59 53 -157q0 -134 -110 -213q-112 -80 -312 -80z" />
    <glyph glyph-name="t" unicode="t" horiz-adv-x="815" 
d="M705 139l43 -71q-42 -39 -97 -56q-56 -20 -123 -20q-137 0 -215 78q-75 75 -75 213v698h-197v88h197v234h102v-234h340v-88h-340v-688q0 -107 51 -158q49 -55 148 -55q101 0 166 59z" />
    <glyph glyph-name="u" unicode="u" 
d="M1051 1069h102v-1069h-98v229q-51 -112 -158 -174q-103 -63 -246 -63q-207 0 -327 117q-119 116 -119 335v625h102v-616q0 -180 92 -275q91 -94 260 -94q180 0 287 113q105 114 105 303v569z" />
    <glyph glyph-name="v" unicode="v" horiz-adv-x="1081" 
d="M971 1069h104l-483 -1069h-105l-481 1069h109l426 -956z" />
    <glyph glyph-name="w" unicode="w" horiz-adv-x="1765" 
d="M1651 1069h94l-406 -1069h-96l-360 928l-363 -928h-94l-406 1069h99l356 -954l365 954h88l362 -952z" />
    <glyph glyph-name="x" unicode="x" horiz-adv-x="1062" 
d="M1018 0h-121l-367 477l-366 -477h-117l424 551l-401 518h116l344 -444l344 444h115l-401 -518z" />
    <glyph glyph-name="y" unicode="y" horiz-adv-x="1081" 
d="M971 1069h104l-549 -1214q-62 -143 -141 -201q-85 -60 -192 -60q-71 0 -138 25q-61 23 -110 72l51 78q84 -84 199 -84q78 0 133 43q57 44 102 147l57 129l-481 1065h109l428 -956z" />
    <glyph glyph-name="z" unicode="z" horiz-adv-x="1030" 
d="M221 88h719v-88h-850v70l705 911h-695v88h828v-70z" />
    <glyph glyph-name="braceleft" unicode="{" horiz-adv-x="655" 
d="M393 713q0 -68 -20 -101q-22 -37 -64 -51q43 -15 64 -49q20 -33 20 -102v-553q0 -166 156 -166h59v-88h-65q-252 0 -252 245v564q0 106 -92 106h-72v88h72q92 0 92 105v563q0 246 252 246h65v-88h-59q-156 0 -156 -166v-553z" />
    <glyph glyph-name="bar" unicode="|" horiz-adv-x="595" 
d="M250 -397v1917h96v-1917h-96z" />
    <glyph glyph-name="braceright" unicode="}" horiz-adv-x="655" 
d="M457 606h71v-88h-71q-90 0 -90 -106v-564q0 -245 -254 -245h-66v88h59q158 0 158 166v553q0 68 21 102q18 34 63 49q-44 14 -63 51q-21 34 -21 101v553q0 166 -158 166h-59v88h66q254 0 254 -246v-563q0 -105 90 -105z" />
    <glyph glyph-name="asciitilde" unicode="~" horiz-adv-x="1165" 
d="M791 569q-66 0 -117 31q-48 26 -117 86q-62 55 -94 76q-42 22 -86 22q-75 0 -121 -55q-48 -61 -51 -151h-72q3 133 70 213q63 75 172 75q66 0 117 -28q48 -29 116 -88q63 -56 97 -74q39 -25 83 -25q74 0 121 56q46 55 49 149h74q-6 -137 -71 -211q-64 -76 -170 -76z" />
    <glyph glyph-name="nbsp" unicode="&#xa0;" horiz-adv-x="526" 
 />
    <glyph glyph-name="exclamdown" unicode="&#xa1;" horiz-adv-x="516" 
d="M258 1077q37 0 61 -24q25 -25 25 -60q0 -34 -25 -59t-61 -25q-34 0 -59 25t-25 59q0 35 25 60q24 24 59 24zM297 657l20 -972h-118l20 972h78z" />
    <glyph glyph-name="cent" unicode="&#xa2;" horiz-adv-x="1136" 
d="M666 84q91 3 174 45q82 43 131 115l76 -56q-62 -92 -160 -141q-101 -52 -221 -55v-238h-74v240q-135 9 -254 82q-111 68 -174 192q-64 119 -64 267q0 149 64 268q62 121 174 190q115 73 254 82v240h74v-238q121 -3 221 -53q99 -53 160 -143l-76 -56q-51 75 -131 117
q-78 40 -174 43v-901zM205 535q0 -187 108 -310q109 -124 279 -139v897q-170 -15 -279 -139q-108 -123 -108 -309z" />
    <glyph glyph-name="sterling" unicode="&#xa3;" horiz-adv-x="1288" 
d="M403 680v-586h826v-94h-1168v94h238v586h-238v74h238v207q0 221 139 354q138 129 402 129q257 0 413 -117l-43 -86q-143 107 -376 107q-215 0 -322 -101q-109 -103 -109 -291v-202h586v-74h-586z" />
    <glyph glyph-name="currency" unicode="&#xa4;" horiz-adv-x="1433" 
d="M1288 649q0 -104 -37 -194q-42 -99 -106 -168l215 -215l-62 -66l-221 219q-80 -61 -168 -90q-88 -33 -192 -33q-106 0 -191 33q-94 35 -168 92l-223 -221l-61 66l217 217q-66 76 -103 168q-36 88 -36 192q0 106 36 197q37 91 103 166l-217 217l61 65l221 -219
q72 58 168 94q88 33 193 33q104 0 194 -33q94 -35 168 -92l219 217l62 -65l-215 -215q64 -69 106 -168q37 -93 37 -197zM240 649q0 -121 65 -227q64 -107 174 -168q107 -64 238 -64t241 64q114 63 177 166q65 106 65 229q0 125 -65 234q-61 103 -177 170q-110 61 -241 61
t-238 -61q-111 -64 -174 -170q-65 -109 -65 -234z" />
    <glyph glyph-name="yen" unicode="&#xa5;" horiz-adv-x="1402" 
d="M1393 1434l-594 -793h422v-70h-467v-213h467v-69h-467v-289h-105v289h-469v69h469v213h-469v70h424l-594 793h113l579 -766l580 766h111z" />
    <glyph glyph-name="brokenbar" unicode="&#xa6;" horiz-adv-x="595" 
d="M250 803v717h96v-717h-96zM250 -397v716h96v-716h-96z" />
    <glyph glyph-name="section" unicode="&#xa7;" horiz-adv-x="987" 
d="M909 586q0 -91 -49 -158q-51 -69 -133 -106q66 -38 100 -93q35 -56 35 -139q0 -143 -106 -221q-107 -82 -291 -82q-112 0 -227 41q-118 42 -177 98l39 80q58 -55 164 -94q98 -39 205 -39q142 0 221 55q78 57 78 162q0 72 -41 119q-43 43 -102 67q-87 30 -168 50
q-108 27 -195 59q-70 26 -125 90q-51 60 -51 166q0 92 49 162q49 67 131 104q-133 74 -133 228q0 145 113 227q115 80 311 80q91 0 201 -29q97 -26 162 -78l-39 -78q-64 49 -150 74q-89 25 -178 25q-159 0 -242 -56q-84 -57 -84 -161q0 -71 41 -115q41 -47 103 -68
q62 -24 166 -51q92 -23 194 -59q74 -30 127 -92q51 -63 51 -168zM625 365q90 22 139 77q53 59 53 144q0 77 -43 123q-42 45 -104 69q-71 24 -170 49q-22 5 -127 35q-90 -21 -142 -76q-53 -59 -53 -141q0 -77 43 -123q42 -49 105 -69q68 -26 170 -52q31 -9 63 -16
q18 -4 66 -20z" />
    <glyph glyph-name="dieresis" unicode="&#xa8;" horiz-adv-x="1228" 
d="M438 1298q-28 0 -51 23q-22 22 -22 51q0 31 22 53q21 21 51 21q33 0 54 -21q20 -20 20 -53q0 -28 -23 -51t-51 -23zM791 1298q-29 0 -52 23q-22 22 -22 51q0 31 22 53q21 21 52 21q32 0 53 -21q20 -20 20 -53q0 -31 -20 -51q-23 -23 -53 -23z" />
    <glyph glyph-name="copyright" unicode="&#xa9;" horiz-adv-x="1669" 
d="M834 -6q-199 0 -365 96q-164 93 -260 262t-96 365q0 195 96 364t260 262q171 97 369 97q202 0 368 -94q163 -94 258 -259q95 -167 95 -366q0 -196 -97 -367q-94 -169 -262 -264q-169 -96 -366 -96zM834 53q182 0 335 90q152 90 240 242q88 149 88 336q0 185 -86 336
q-84 148 -235 237q-151 86 -338 86q-189 0 -338 -88q-153 -90 -238 -239q-88 -152 -88 -336q0 -185 88 -334q85 -152 238 -242q149 -88 334 -88zM852 289q-123 0 -217 55q-99 53 -152 152q-55 94 -55 221q0 125 55 223q54 97 152 152q95 53 217 53q103 0 182 -39
q82 -40 135 -111l-63 -51q-47 62 -111 92q-70 31 -145 31q-96 0 -172 -43q-76 -46 -119 -125q-45 -77 -45 -182t45 -182q44 -80 119 -123q74 -45 172 -45q77 0 145 30q64 30 111 92l63 -49q-50 -70 -135 -112q-79 -39 -182 -39z" />
    <glyph glyph-name="ordfeminine" unicode="&#xaa;" horiz-adv-x="815" 
d="M387 1526q133 0 205 -60q70 -61 70 -182v-399h-76v110q-37 -56 -94 -84q-60 -32 -154 -32q-119 0 -182 51q-66 51 -66 133q0 80 64 129q62 47 196 47h230v47q0 174 -197 174q-72 0 -131 -20q-64 -21 -107 -58l-34 54q55 42 127 65q77 25 149 25zM354 938q165 0 226 131
v117h-222q-190 0 -190 -121q0 -58 49 -92q50 -35 137 -35z" />
    <glyph glyph-name="guillemotleft" unicode="&#xab;" horiz-adv-x="931" 
d="M408 152l-299 383l299 385h100l-295 -385l295 -383h-100zM750 152l-299 383l299 385h100l-295 -385l295 -383h-100z" />
    <glyph glyph-name="logicalnot" unicode="&#xac;" horiz-adv-x="1165" 
d="M1018 760v-455h-94v369h-777v86h871z" />
    <glyph glyph-name="uni00AD" unicode="&#xad;" horiz-adv-x="780" 
d="M127 504v92h526v-92h-526z" />
    <glyph glyph-name="registered" unicode="&#xae;" horiz-adv-x="1669" 
d="M838 1440q202 0 368 -94q163 -94 258 -259q95 -167 95 -366q0 -196 -97 -367q-94 -169 -262 -264q-169 -96 -366 -96q-199 0 -365 96q-164 93 -260 262t-96 365q0 195 96 364t260 262q171 97 369 97zM834 53q182 0 335 90q152 90 240 242q88 149 88 336q0 185 -86 336
q-84 148 -235 237q-151 86 -338 86q-189 0 -338 -88q-153 -90 -238 -239q-88 -152 -88 -336q0 -185 88 -334q85 -152 238 -242q149 -88 334 -88zM1196 862q0 -98 -49 -162q-54 -70 -143 -96l198 -307h-86l-188 291q-10 -2 -54 -2h-235v-289h-80v840h315q147 0 236 -74
q86 -77 86 -201zM868 655q120 0 185 56q65 53 65 151q0 96 -65 152q-65 53 -185 53h-231v-412h231z" />
    <glyph glyph-name="macron" unicode="&#xaf;" horiz-adv-x="1228" 
d="M313 1327v74h602v-74h-602z" />
    <glyph glyph-name="degree" unicode="&#xb0;" horiz-adv-x="860" 
d="M430 807q-90 0 -160 43q-72 43 -116 117q-43 70 -43 157q0 89 43 162q45 73 116 115q71 41 160 41q86 0 160 -41q73 -43 117 -115q41 -74 41 -162q0 -87 -43 -157q-43 -73 -115 -117q-73 -43 -160 -43zM430 872q104 0 178 74q72 75 72 178q0 106 -72 181q-71 71 -178 71
t-178 -71q-72 -75 -72 -181t72 -178q71 -74 178 -74z" />
    <glyph glyph-name="plusminus" unicode="&#xb1;" horiz-adv-x="1165" 
d="M629 799h389v-88h-389v-375h-92v375h-390v88h390v377h92v-377zM147 0v88h871v-88h-871z" />
    <glyph glyph-name="uni00B2" unicode="&#xb2;" horiz-adv-x="880" 
d="M227 739h537v-69h-662v53l398 354q79 73 110 121q29 50 29 96q0 71 -61 117q-62 45 -187 45q-172 0 -262 -96l-57 45q106 121 323 121q160 0 242 -64t82 -164q0 -66 -33 -122q-32 -54 -127 -140z" />
    <glyph glyph-name="uni00B3" unicode="&#xb3;" horiz-adv-x="880" 
d="M436 1153q155 -3 238 -68q82 -64 82 -174q0 -111 -88 -178q-87 -69 -254 -69q-110 0 -201 30q-94 30 -141 80l37 62q48 -48 127 -74q85 -29 178 -29q128 0 196 47q66 48 66 131t-66 131q-67 48 -194 48h-78v55l274 305h-524v70h631v-54z" />
    <glyph glyph-name="acute" unicode="&#xb4;" horiz-adv-x="1228" 
d="M498 1243l284 242h148l-322 -242h-110z" />
    <glyph glyph-name="mu" unicode="&#xb5;" horiz-adv-x="1382" 
d="M1063 1069h102v-1069h-98v231q-52 -115 -156 -178q-101 -61 -237 -61q-124 0 -213 47q-94 48 -142 133v-569h-102v1466h102v-616q0 -179 93 -275q91 -94 260 -94q179 0 286 113q105 114 105 303v569z" />
    <glyph glyph-name="paragraph" unicode="&#xb6;" horiz-adv-x="1267" 
d="M463 -205v1034q-188 3 -301 97q-115 92 -115 250q0 160 117 251q116 93 309 93h545v-1725h-90v1641h-377v-1641h-88z" />
    <glyph glyph-name="periodcentered" unicode="&#xb7;" horiz-adv-x="491" 
d="M246 461q-37 0 -60 26q-26 23 -26 62q0 40 26 63q25 25 60 25q36 0 61 -25t25 -63q0 -37 -25 -62q-26 -26 -61 -26z" />
    <glyph glyph-name="cedilla" unicode="&#xb8;" horiz-adv-x="1228" 
d="M573 -444q-98 0 -161 51l28 57q55 -43 133 -43q59 0 99 29q37 27 37 80q0 48 -35 75q-37 29 -101 29h-41l48 178h67l-33 -123q83 -6 129 -49q45 -45 45 -114q0 -76 -59 -123q-62 -47 -156 -47z" />
    <glyph glyph-name="uni00B9" unicode="&#xb9;" horiz-adv-x="880" 
d="M516 739h232v-69h-572v69h260v711h-243v70h323v-781z" />
    <glyph glyph-name="ordmasculine" unicode="&#xba;" horiz-adv-x="841" 
d="M420 879q-100 0 -176 43q-80 40 -123 114q-45 71 -45 166t45 166q43 74 123 117q77 41 176 41q98 0 178 -41q76 -43 123 -117q45 -71 45 -166t-45 -166q-47 -74 -123 -114q-79 -43 -178 -43zM420 948q114 0 192 72q76 70 76 182q0 114 -76 184q-78 72 -192 72
q-116 0 -191 -72q-75 -69 -75 -184q0 -113 75 -182q75 -72 191 -72z" />
    <glyph glyph-name="guillemotright" unicode="&#xbb;" horiz-adv-x="931" 
d="M182 152h-98l295 383l-295 385h98l299 -385zM524 152h-98l295 383l-295 385h98l299 -385z" />
    <glyph glyph-name="onequarter" unicode="&#xbc;" horiz-adv-x="2099" 
d="M516 653h232v-69h-572v69h260v711h-243v70h323v-781zM516 0l979 1434h88l-979 -1434h-88zM2034 297v-68h-193v-229h-78v229h-481v56l430 565h90l-422 -553h387v199h74v-199h193z" />
    <glyph glyph-name="onehalf" unicode="&#xbd;" horiz-adv-x="2099" 
d="M516 653h232v-69h-572v69h260v711h-243v70h323v-781zM516 0l979 1434h88l-979 -1434h-88zM1446 70h536v-70h-661v53l397 355q83 77 111 120q29 50 29 97q0 69 -62 116q-62 45 -186 45q-172 0 -262 -96l-58 45q106 121 324 121q160 0 241 -63q82 -64 82 -164
q0 -69 -32 -123q-31 -52 -127 -139z" />
    <glyph glyph-name="threequarters" unicode="&#xbe;" horiz-adv-x="2099" 
d="M436 1067q155 -3 238 -68q82 -64 82 -174q0 -111 -88 -178q-87 -69 -254 -69q-110 0 -201 30q-94 30 -141 80l37 62q48 -48 127 -74q85 -29 178 -29q128 0 196 47q66 48 66 131t-66 131q-67 48 -194 48h-78v55l274 305h-524v70h631v-54zM516 0l979 1434h88l-979 -1434
h-88zM2034 297v-68h-193v-229h-78v229h-481v56l430 565h90l-422 -553h387v199h74v-199h193z" />
    <glyph glyph-name="questiondown" unicode="&#xbf;" horiz-adv-x="1150" 
d="M602 909q-34 0 -59 25t-25 59q0 35 25 60q24 24 59 24q38 0 62 -24t24 -60q0 -35 -24 -59q-25 -25 -62 -25zM625 -326q-138 0 -242 43q-105 44 -160 119q-57 75 -57 174q0 78 29 144q28 65 65 104q55 54 107 100q96 80 139 140q45 62 45 159h104q0 -85 -26 -141
q-26 -59 -68 -104q-36 -38 -108 -101q-94 -81 -136 -137q-45 -60 -45 -154q0 -108 97 -180q94 -73 260 -73q269 0 413 170l76 -60q-80 -96 -207 -149q-130 -54 -286 -54z" />
    <glyph glyph-name="Agrave" unicode="&#xc0;" horiz-adv-x="1443" 
d="M1321 0l-184 403h-832l-182 -403h-113l660 1434h104l660 -1434h-113zM346 492h752l-377 827zM729 1550l-321 242h147l285 -242h-111z" />
    <glyph glyph-name="Aacute" unicode="&#xc1;" horiz-adv-x="1443" 
d="M1321 0l-184 403h-832l-182 -403h-113l660 1434h104l660 -1434h-113zM346 492h752l-377 827zM606 1550l285 242h147l-321 -242h-111z" />
    <glyph glyph-name="Acircumflex" unicode="&#xc2;" horiz-adv-x="1443" 
d="M1321 0l-184 403h-832l-182 -403h-113l660 1434h104l660 -1434h-113zM346 492h752l-377 827zM1038 1550h-102l-213 179l-213 -179h-102l258 242h114z" />
    <glyph glyph-name="Atilde" unicode="&#xc3;" horiz-adv-x="1443" 
d="M1321 0l-184 403h-832l-182 -403h-113l660 1434h104l660 -1434h-113zM346 492h752l-377 827zM858 1567q-44 0 -80 22q-34 19 -76 58q-40 35 -57 47q-22 14 -51 14q-49 0 -76 -35q-30 -42 -33 -98h-67q3 91 49 149q47 56 121 56q44 0 82 -21q27 -16 73 -59q31 -27 60 -45
q24 -17 49 -17q49 0 76 35q30 39 33 94h67q-3 -90 -49 -145t-121 -55z" />
    <glyph glyph-name="Adieresis" unicode="&#xc4;" horiz-adv-x="1443" 
d="M1321 0l-184 403h-832l-182 -403h-113l660 1434h104l660 -1434h-113zM346 492h752l-377 827zM547 1606q-29 0 -51 22q-23 23 -23 51q0 31 23 54q20 20 51 20q33 0 53 -20q21 -21 21 -54q0 -28 -23 -51q-22 -22 -51 -22zM899 1606q-29 0 -51 22q-23 23 -23 51q0 31 23 54
q20 20 51 20q33 0 53 -20q21 -21 21 -54q0 -30 -21 -51q-22 -22 -53 -22z" />
    <glyph glyph-name="Aring" unicode="&#xc5;" horiz-adv-x="1443" 
d="M1321 0l-184 403h-832l-182 -403h-113l660 1434h104l660 -1434h-113zM346 492h752l-377 827zM721 1585q-83 0 -143 60t-60 139q0 82 60 145q60 60 143 60q85 0 145 -60q60 -63 60 -145q0 -81 -58 -139q-60 -60 -147 -60zM721 1642q61 0 102 41t41 101t-41 104
q-41 41 -102 41q-59 0 -100 -41q-41 -44 -41 -104t41 -101t100 -41z" />
    <glyph glyph-name="AE" unicode="&#xc6;" horiz-adv-x="2093" 
d="M1077 94h885v-94h-989v403h-600l-250 -403h-113l889 1434h1032v-95h-854v-565h764v-92h-764v-588zM426 492h547v847h-23z" />
    <glyph glyph-name="Ccedilla" unicode="&#xc7;" horiz-adv-x="1466" 
d="M856 -10q-210 0 -379 94q-173 97 -266 260q-98 165 -98 373t98 373q93 163 266 260q169 94 379 94q156 0 287 -49q133 -53 223 -150l-66 -67q-173 170 -440 170q-182 0 -328 -82q-150 -84 -231 -226q-84 -147 -84 -323q0 -175 84 -322q82 -143 231 -227q146 -82 328 -82
q265 0 440 172l66 -68q-88 -95 -223 -149q-128 -51 -287 -51zM791 -444q-99 0 -162 51l28 57q55 -43 134 -43q58 0 98 29q37 27 37 80q0 48 -35 75q-37 29 -100 29h-41l47 178h67l-33 -123q84 -6 130 -49q45 -45 45 -114q0 -75 -60 -123q-62 -47 -155 -47z" />
    <glyph glyph-name="Egrave" unicode="&#xc8;" 
d="M354 94h885v-94h-989v1434h958v-95h-854v-565h764v-92h-764v-588zM737 1550l-321 242h147l285 -242h-111z" />
    <glyph glyph-name="Eacute" unicode="&#xc9;" 
d="M354 94h885v-94h-989v1434h958v-95h-854v-565h764v-92h-764v-588zM614 1550l285 242h148l-322 -242h-111z" />
    <glyph glyph-name="Ecircumflex" unicode="&#xca;" 
d="M354 94h885v-94h-989v1434h958v-95h-854v-565h764v-92h-764v-588zM1047 1550h-103l-213 179l-213 -179h-102l258 242h114z" />
    <glyph glyph-name="Edieresis" unicode="&#xcb;" 
d="M354 94h885v-94h-989v1434h958v-95h-854v-565h764v-92h-764v-588zM555 1606q-29 0 -51 22q-23 23 -23 51q0 31 23 54q20 20 51 20q33 0 53 -20q21 -21 21 -54q0 -28 -23 -51q-22 -22 -51 -22zM907 1606q-29 0 -51 22t-22 51q0 32 22 54q20 20 51 20q34 0 54 -20t20 -54
q0 -31 -20 -51q-22 -22 -54 -22z" />
    <glyph glyph-name="Igrave" unicode="&#xcc;" horiz-adv-x="604" 
d="M250 0v1434h104v-1434h-104zM309 1550l-321 242h147l285 -242h-111z" />
    <glyph glyph-name="Iacute" unicode="&#xcd;" horiz-adv-x="604" 
d="M250 0v1434h104v-1434h-104zM186 1550l285 242h147l-321 -242h-111z" />
    <glyph glyph-name="Icircumflex" unicode="&#xce;" horiz-adv-x="604" 
d="M250 0v1434h104v-1434h-104zM618 1550h-102l-213 179l-213 -179h-102l258 242h114z" />
    <glyph glyph-name="Idieresis" unicode="&#xcf;" horiz-adv-x="604" 
d="M250 0v1434h104v-1434h-104zM127 1606q-29 0 -51 22q-23 23 -23 51q0 31 23 54q20 20 51 20q33 0 53 -20q21 -21 21 -54q0 -28 -23 -51q-22 -22 -51 -22zM479 1606q-29 0 -51 22t-22 51q0 32 22 54q20 20 51 20q33 0 53 -20q21 -21 21 -54q0 -30 -21 -51q-22 -22 -53 -22
z" />
    <glyph glyph-name="Eth" unicode="&#xd0;" horiz-adv-x="1697" 
d="M256 0v1434h567q220 0 398 -93q175 -93 268 -254q96 -166 96 -370q0 -203 -96 -369q-95 -164 -268 -256q-176 -92 -398 -92h-567zM360 94h455q199 0 350 80q151 77 234 219q82 140 82 324q0 183 -82 323q-83 142 -234 222q-151 77 -350 77h-455v-1245zM33 684v88h770v-88
h-770z" />
    <glyph glyph-name="Ntilde" unicode="&#xd1;" horiz-adv-x="1667" 
d="M1313 1434h104v-1434h-86l-977 1245v-1245h-104v1434h88l975 -1246v1246zM969 1567q-44 0 -80 22q-34 19 -76 58q-40 35 -57 47q-22 14 -51 14q-49 0 -76 -35q-30 -42 -33 -98h-68q3 90 50 149q47 56 120 56q44 0 82 -21q30 -18 74 -59q33 -29 59 -45q24 -17 50 -17
q48 0 75 35q30 39 33 94h68q-3 -90 -49 -145t-121 -55z" />
    <glyph glyph-name="Ograve" unicode="&#xd2;" horiz-adv-x="1716" 
d="M858 -10q-209 0 -381 96q-173 97 -266 260q-98 165 -98 371q0 205 98 370q95 168 266 263q169 94 381 94t381 -94q170 -95 268 -260q97 -171 97 -373t-97 -373q-98 -165 -268 -260q-169 -94 -381 -94zM858 86q183 0 326 82q147 84 229 227q84 147 84 322q0 176 -84 323
q-81 141 -229 226q-143 82 -326 82t-326 -82q-150 -84 -231 -226q-84 -147 -84 -323q0 -175 84 -322q82 -143 231 -227q143 -82 326 -82zM864 1550l-321 242h147l285 -242h-111z" />
    <glyph glyph-name="Oacute" unicode="&#xd3;" horiz-adv-x="1716" 
d="M858 -10q-209 0 -381 96q-173 97 -266 260q-98 165 -98 371q0 205 98 370q95 168 266 263q169 94 381 94t381 -94q170 -95 268 -260q97 -171 97 -373t-97 -373q-98 -165 -268 -260q-169 -94 -381 -94zM858 86q183 0 326 82q147 84 229 227q84 147 84 322q0 176 -84 323
q-81 141 -229 226q-143 82 -326 82t-326 -82q-150 -84 -231 -226q-84 -147 -84 -323q0 -175 84 -322q82 -143 231 -227q143 -82 326 -82zM741 1550l285 242h148l-322 -242h-111z" />
    <glyph glyph-name="Ocircumflex" unicode="&#xd4;" horiz-adv-x="1716" 
d="M858 -10q-209 0 -381 96q-173 97 -266 260q-98 165 -98 371q0 205 98 370q95 168 266 263q169 94 381 94t381 -94q170 -95 268 -260q97 -171 97 -373t-97 -373q-98 -165 -268 -260q-169 -94 -381 -94zM858 86q183 0 326 82q147 84 229 227q84 147 84 322q0 176 -84 323
q-81 141 -229 226q-143 82 -326 82t-326 -82q-150 -84 -231 -226q-84 -147 -84 -323q0 -175 84 -322q82 -143 231 -227q143 -82 326 -82zM1174 1550h-103l-213 179l-213 -179h-102l258 242h114z" />
    <glyph glyph-name="Otilde" unicode="&#xd5;" horiz-adv-x="1716" 
d="M858 -10q-209 0 -381 96q-173 97 -266 260q-98 165 -98 371q0 205 98 370q95 168 266 263q169 94 381 94t381 -94q170 -95 268 -260q97 -171 97 -373t-97 -373q-98 -165 -268 -260q-169 -94 -381 -94zM858 86q183 0 326 82q147 84 229 227q84 147 84 322q0 176 -84 323
q-81 141 -229 226q-143 82 -326 82t-326 -82q-150 -84 -231 -226q-84 -147 -84 -323q0 -175 84 -322q82 -143 231 -227q143 -82 326 -82zM993 1567q-44 0 -80 22q-31 18 -75 58q-36 31 -58 47q-22 14 -51 14q-49 0 -76 -35q-29 -41 -32 -98h-68q3 91 49 149q47 56 121 56
q45 0 82 -21q30 -18 74 -59q33 -29 59 -45q24 -17 49 -17q49 0 76 35q30 39 33 94h67q-3 -90 -49 -145t-121 -55z" />
    <glyph glyph-name="Odieresis" unicode="&#xd6;" horiz-adv-x="1716" 
d="M858 -10q-209 0 -381 96q-173 97 -266 260q-98 165 -98 371q0 205 98 370q95 168 266 263q169 94 381 94t381 -94q170 -95 268 -260q97 -171 97 -373t-97 -373q-98 -165 -268 -260q-169 -94 -381 -94zM858 86q183 0 326 82q147 84 229 227q84 147 84 322q0 176 -84 323
q-81 141 -229 226q-143 82 -326 82t-326 -82q-150 -84 -231 -226q-84 -147 -84 -323q0 -175 84 -322q82 -143 231 -227q143 -82 326 -82zM682 1606q-29 0 -51 22q-23 23 -23 51q0 31 23 54q20 20 51 20q33 0 53 -20q21 -21 21 -54q0 -28 -23 -51q-22 -22 -51 -22zM1034 1606
q-29 0 -51 22t-22 51q0 32 22 54q20 20 51 20q33 0 53 -20q21 -21 21 -54q0 -30 -21 -51q-22 -22 -53 -22z" />
    <glyph glyph-name="multiply" unicode="&#xd7;" horiz-adv-x="1165" 
d="M920 993l-277 -276l277 -277l-60 -63l-276 278l-279 -278l-59 63l276 277l-276 276l59 64l279 -279l276 279z" />
    <glyph glyph-name="Oslash" unicode="&#xd8;" horiz-adv-x="1716" 
d="M858 -10q-209 0 -381 96q-173 97 -266 260q-98 165 -98 371q0 205 98 370q95 168 266 263q169 94 381 94t381 -94q170 -95 268 -260q97 -171 97 -373t-97 -373q-98 -165 -268 -260q-169 -94 -381 -94zM858 86q183 0 326 82q147 84 229 227q84 147 84 322q0 176 -84 323
q-81 141 -229 226q-143 82 -326 82t-326 -82q-150 -84 -231 -226q-84 -147 -84 -323q0 -175 84 -322q82 -143 231 -227q143 -82 326 -82zM188 -143l1250 1720h92l-1249 -1720h-93z" />
    <glyph glyph-name="Ugrave" unicode="&#xd9;" horiz-adv-x="1624" 
d="M811 -10q-271 0 -422 157t-151 461v826h104v-822q0 -262 121 -395q119 -131 350 -131q229 0 348 131q121 133 121 395v822h104v-826q0 -304 -151 -461t-424 -157zM819 1550l-321 242h147l285 -242h-111z" />
    <glyph glyph-name="Uacute" unicode="&#xda;" horiz-adv-x="1624" 
d="M811 -10q-271 0 -422 157t-151 461v826h104v-822q0 -262 121 -395q119 -131 350 -131q229 0 348 131q121 133 121 395v822h104v-826q0 -304 -151 -461t-424 -157zM696 1550l285 242h147l-321 -242h-111z" />
    <glyph glyph-name="Ucircumflex" unicode="&#xdb;" horiz-adv-x="1624" 
d="M811 -10q-271 0 -422 157t-151 461v826h104v-822q0 -262 121 -395q119 -131 350 -131q229 0 348 131q121 133 121 395v822h104v-826q0 -304 -151 -461t-424 -157zM1128 1550h-102l-213 179l-213 -179h-102l258 242h114z" />
    <glyph glyph-name="Udieresis" unicode="&#xdc;" horiz-adv-x="1624" 
d="M811 -10q-271 0 -422 157t-151 461v826h104v-822q0 -262 121 -395q119 -131 350 -131q229 0 348 131q121 133 121 395v822h104v-826q0 -304 -151 -461t-424 -157zM637 1606q-29 0 -51 22q-23 23 -23 51q0 31 23 54q20 20 51 20q33 0 53 -20q21 -21 21 -54q0 -28 -23 -51
q-22 -22 -51 -22zM989 1606q-29 0 -51 22q-23 23 -23 51q0 31 23 54q20 20 51 20q33 0 53 -20q21 -21 21 -54q0 -30 -21 -51q-22 -22 -53 -22z" />
    <glyph glyph-name="Yacute" unicode="&#xdd;" horiz-adv-x="1280" 
d="M1270 1434l-578 -940v-494h-104v494l-578 940h115l518 -844l518 844h109zM522 1550l285 242h147l-321 -242h-111z" />
    <glyph glyph-name="Thorn" unicode="&#xde;" horiz-adv-x="1464" 
d="M764 1239q270 0 424 -127q153 -129 153 -354q0 -231 -153 -357q-153 -129 -424 -129h-410v-272h-104v1434h104v-195h410zM764 367q230 0 350 102q121 103 121 289t-121 289q-118 100 -350 100h-410v-780h410z" />
    <glyph glyph-name="germandbls" unicode="&#xdf;" horiz-adv-x="1353" 
d="M901 795q163 -27 258 -129q94 -101 94 -263q0 -126 -61 -217q-64 -93 -172 -143q-105 -51 -244 -51q-127 0 -225 31l20 90q88 -31 201 -31q168 0 275 88q104 85 104 236q0 152 -107 237q-110 84 -280 84h-119v88q184 3 287 90q102 89 102 240q0 129 -90 213
q-92 80 -252 80q-172 0 -272 -103q-101 -104 -101 -301v-1034h-102v1028q0 243 131 371q129 129 344 129q135 0 236 -49q96 -48 153 -136q54 -88 54 -194q0 -126 -64 -217q-63 -93 -170 -137z" />
    <glyph glyph-name="agrave" unicode="&#xe0;" horiz-adv-x="1193" 
d="M578 1077q199 0 305 -100t106 -299v-678h-98v190q-52 -93 -150 -145q-100 -53 -235 -53q-177 0 -281 84q-104 82 -104 221q0 133 96 217q94 82 303 82h367v86q0 150 -80 227q-84 78 -238 78q-109 0 -202 -37q-100 -38 -166 -98l-51 74q82 73 192 112t236 39zM520 76
q134 0 228 61q93 63 139 178v201h-365q-158 0 -227 -57q-72 -60 -72 -158q0 -104 78 -164q76 -61 219 -61zM580 1243l-322 242h148l284 -242h-110z" />
    <glyph glyph-name="aacute" unicode="&#xe1;" horiz-adv-x="1193" 
d="M578 1077q199 0 305 -100t106 -299v-678h-98v190q-52 -93 -150 -145q-100 -53 -235 -53q-177 0 -281 84q-104 82 -104 221q0 133 96 217q94 82 303 82h367v86q0 150 -80 227q-84 78 -238 78q-109 0 -202 -37q-100 -38 -166 -98l-51 74q82 73 192 112t236 39zM520 76
q134 0 228 61q93 63 139 178v201h-365q-158 0 -227 -57q-72 -60 -72 -158q0 -104 78 -164q76 -61 219 -61zM457 1243l284 242h148l-322 -242h-110z" />
    <glyph glyph-name="acircumflex" unicode="&#xe2;" horiz-adv-x="1193" 
d="M578 1077q199 0 305 -100t106 -299v-678h-98v190q-52 -93 -150 -145q-100 -53 -235 -53q-177 0 -281 84q-104 82 -104 221q0 133 96 217q94 82 303 82h367v86q0 150 -80 227q-84 78 -238 78q-109 0 -202 -37q-100 -38 -166 -98l-51 74q82 73 192 112t236 39zM520 76
q134 0 228 61q93 63 139 178v201h-365q-158 0 -227 -57q-72 -60 -72 -158q0 -104 78 -164q76 -61 219 -61zM889 1243h-103l-213 178l-213 -178h-102l258 242h115z" />
    <glyph glyph-name="atilde" unicode="&#xe3;" horiz-adv-x="1193" 
d="M578 1077q199 0 305 -100t106 -299v-678h-98v190q-52 -93 -150 -145q-100 -53 -235 -53q-177 0 -281 84q-104 82 -104 221q0 133 96 217q94 82 303 82h367v86q0 150 -80 227q-84 78 -238 78q-109 0 -202 -37q-100 -38 -166 -98l-51 74q82 73 192 112t236 39zM520 76
q134 0 228 61q93 63 139 178v201h-365q-158 0 -227 -57q-72 -60 -72 -158q0 -104 78 -164q76 -61 219 -61zM709 1260q-44 0 -80 22q-37 20 -76 57q-40 35 -57 47q-24 15 -52 15q-48 0 -75 -35q-30 -42 -33 -98h-68q3 91 49 149q47 56 121 56q45 0 82 -21q30 -18 74 -59
q33 -29 59 -45q24 -17 49 -17q49 0 76 35q30 39 33 94h68q-3 -89 -50 -145q-46 -55 -120 -55z" />
    <glyph glyph-name="adieresis" unicode="&#xe4;" horiz-adv-x="1193" 
d="M578 1077q199 0 305 -100t106 -299v-678h-98v190q-52 -93 -150 -145q-100 -53 -235 -53q-177 0 -281 84q-104 82 -104 221q0 133 96 217q94 82 303 82h367v86q0 150 -80 227q-84 78 -238 78q-109 0 -202 -37q-100 -38 -166 -98l-51 74q82 73 192 112t236 39zM520 76
q134 0 228 61q93 63 139 178v201h-365q-158 0 -227 -57q-72 -60 -72 -158q0 -104 78 -164q76 -61 219 -61zM397 1298q-28 0 -51 23q-22 22 -22 51q0 31 22 53q21 21 51 21q33 0 54 -21q20 -20 20 -53q0 -29 -22 -51q-23 -23 -52 -23zM750 1298q-29 0 -52 23q-22 22 -22 51
q0 31 22 53q21 21 52 21q32 0 53 -21q20 -20 20 -53q0 -31 -20 -51q-23 -23 -53 -23z" />
    <glyph glyph-name="aring" unicode="&#xe5;" horiz-adv-x="1193" 
d="M578 1077q199 0 305 -100t106 -299v-678h-98v190q-52 -93 -150 -145q-100 -53 -235 -53q-177 0 -281 84q-104 82 -104 221q0 133 96 217q94 82 303 82h367v86q0 150 -80 227q-84 78 -238 78q-109 0 -202 -37q-100 -38 -166 -98l-51 74q82 73 192 112t236 39zM520 76
q134 0 228 61q93 63 139 178v201h-365q-158 0 -227 -57q-72 -60 -72 -158q0 -104 78 -164q76 -61 219 -61zM571 1221q-84 0 -143 59t-59 139q0 84 59 146q59 59 143 59q87 0 146 -59q59 -62 59 -146q0 -82 -57 -139q-59 -59 -148 -59zM571 1278q62 0 103 41t41 100
q0 61 -41 105q-41 41 -103 41q-59 0 -100 -41q-41 -44 -41 -105q0 -59 41 -100t100 -41z" />
    <glyph glyph-name="ae" unicode="&#xe6;" horiz-adv-x="2013" 
d="M1913 547l-2 -33h-922q3 -124 64 -223q60 -101 159 -152q101 -55 230 -55q107 0 192 39q90 38 150 110l61 -67q-74 -86 -178 -129q-102 -45 -227 -45q-157 0 -287 71q-131 72 -201 205q-47 -142 -166 -209t-272 -67q-183 0 -289 86q-104 82 -104 223q0 127 96 211
q94 82 303 82h367v88q0 150 -80 227q-84 78 -238 78q-109 0 -202 -37q-100 -38 -166 -98l-51 74q82 73 192 112q107 39 233 39q323 0 390 -254q63 118 180 187q113 67 256 67q146 0 262 -67q116 -70 184 -191q66 -123 66 -272zM1401 987q-109 0 -197 -49q-90 -50 -147 -137
q-57 -86 -66 -207h819q-9 120 -63 205q-59 89 -148 139q-88 49 -198 49zM520 76q164 0 268 90q99 88 99 248v100h-365q-158 0 -227 -57q-72 -60 -72 -154q0 -107 80 -166q76 -61 217 -61z" />
    <glyph glyph-name="ccedilla" unicode="&#xe7;" horiz-adv-x="1136" 
d="M641 -8q-159 0 -279 69q-122 70 -192 195q-70 122 -70 279t70 282q71 124 192 193q122 67 279 67q129 0 236 -49q106 -53 170 -147l-76 -56q-59 80 -142 121q-82 39 -188 39q-125 0 -223 -55q-100 -57 -156 -160q-57 -99 -57 -235q0 -137 57 -236q57 -104 156 -158
q96 -57 223 -57q101 0 188 41q85 42 142 119l76 -56q-65 -96 -170 -145q-105 -51 -236 -51zM563 -444q-99 0 -162 51l29 57q55 -43 133 -43q59 0 99 29q36 26 36 80q0 48 -34 75q-37 29 -101 29h-41l47 178h68l-33 -123q83 -6 129 -49q45 -45 45 -114q0 -76 -59 -123
q-62 -47 -156 -47z" />
    <glyph glyph-name="egrave" unicode="&#xe8;" horiz-adv-x="1222" 
d="M1122 539l-2 -29h-919q3 -124 63 -221q58 -99 162 -152q103 -53 227 -53q110 0 195 39q90 38 147 110l60 -67q-71 -84 -174 -129q-105 -45 -230 -45q-161 0 -284 69q-124 70 -195 193q-72 126 -72 281q0 153 68 280q64 122 182 193q115 69 262 69q146 0 262 -67
q117 -72 183 -193q65 -124 65 -278zM612 987q-114 0 -202 -49q-93 -55 -144 -141q-54 -88 -63 -207h819q-6 118 -61 205q-54 87 -146 141q-86 51 -203 51zM618 1243l-321 242h147l285 -242h-111z" />
    <glyph glyph-name="eacute" unicode="&#xe9;" horiz-adv-x="1222" 
d="M1122 539l-2 -29h-919q3 -124 63 -221q58 -99 162 -152q103 -53 227 -53q110 0 195 39q90 38 147 110l60 -67q-71 -84 -174 -129q-105 -45 -230 -45q-161 0 -284 69q-124 70 -195 193q-72 126 -72 281q0 153 68 280q64 122 182 193q115 69 262 69q146 0 262 -67
q117 -72 183 -193q65 -124 65 -278zM612 987q-114 0 -202 -49q-93 -55 -144 -141q-54 -88 -63 -207h819q-6 118 -61 205q-54 87 -146 141q-86 51 -203 51zM496 1243l284 242h148l-322 -242h-110z" />
    <glyph glyph-name="ecircumflex" unicode="&#xea;" horiz-adv-x="1222" 
d="M1122 539l-2 -29h-919q3 -124 63 -221q58 -99 162 -152q103 -53 227 -53q110 0 195 39q90 38 147 110l60 -67q-71 -84 -174 -129q-105 -45 -230 -45q-161 0 -284 69q-124 70 -195 193q-72 126 -72 281q0 153 68 280q64 122 182 193q115 69 262 69q146 0 262 -67
q117 -72 183 -193q65 -124 65 -278zM612 987q-114 0 -202 -49q-93 -55 -144 -141q-54 -88 -63 -207h819q-6 118 -61 205q-54 87 -146 141q-86 51 -203 51zM928 1243h-103l-213 178l-213 -178h-102l258 242h115z" />
    <glyph glyph-name="edieresis" unicode="&#xeb;" horiz-adv-x="1222" 
d="M1122 539l-2 -29h-919q3 -124 63 -221q58 -99 162 -152q103 -53 227 -53q110 0 195 39q90 38 147 110l60 -67q-71 -84 -174 -129q-105 -45 -230 -45q-161 0 -284 69q-124 70 -195 193q-72 126 -72 281q0 153 68 280q64 122 182 193q115 69 262 69q146 0 262 -67
q117 -72 183 -193q65 -124 65 -278zM612 987q-114 0 -202 -49q-93 -55 -144 -141q-54 -88 -63 -207h819q-6 118 -61 205q-54 87 -146 141q-86 51 -203 51zM436 1298q-28 0 -51 23t-23 51q0 30 23 53q21 21 51 21q32 0 53 -21t21 -53q0 -28 -23 -51t-51 -23zM788 1298
q-28 0 -51 23q-22 22 -22 51q0 31 22 53q21 21 51 21q33 0 54 -21q20 -20 20 -53q0 -31 -20 -51q-23 -23 -54 -23z" />
    <glyph glyph-name="igrave" unicode="&#xec;" horiz-adv-x="534" 
d="M217 0v1069h102v-1069h-102zM274 1243l-321 242h147l285 -242h-111z" />
    <glyph glyph-name="iacute" unicode="&#xed;" horiz-adv-x="534" 
d="M217 0v1069h102v-1069h-102zM152 1243l284 242h148l-322 -242h-110z" />
    <glyph glyph-name="icircumflex" unicode="&#xee;" horiz-adv-x="534" 
d="M217 0v1069h102v-1069h-102zM532 1243h-100l-164 176l-164 -176h-100l209 242h111z" />
    <glyph glyph-name="idieresis" unicode="&#xef;" horiz-adv-x="534" 
d="M217 0v1069h102v-1069h-102zM141 1300q-28 0 -51 23q-20 20 -20 49q0 33 20 53q21 21 51 21q31 0 52 -21q20 -20 20 -53q0 -31 -20 -51q-21 -21 -52 -21zM395 1300q-28 0 -51 23q-20 20 -20 49q0 33 20 53q21 21 51 21t51 -21t21 -53q0 -30 -21 -51t-51 -21z" />
    <glyph glyph-name="eth" unicode="&#xf0;" horiz-adv-x="1284" 
d="M956 1313q108 -95 168 -248q58 -149 58 -352q0 -333 -152 -529q-153 -194 -438 -194q-144 0 -252 57q-110 54 -176 158q-64 101 -64 235q0 135 64 236q65 103 178 158t262 55q169 0 297 -84q122 -85 166 -240q12 73 12 168q0 190 -57 324q-61 140 -164 213l-551 -236
l-31 74l496 213q-107 49 -250 49q-164 0 -303 -45l-20 90q154 43 323 43q208 0 359 -92l180 78l31 -74zM598 80q135 0 227 51q95 53 144 135t49 174q0 103 -51 183q-52 81 -146 129q-92 47 -209 47q-191 0 -299 -99t-108 -260t108 -260q106 -100 285 -100z" />
    <glyph glyph-name="ntilde" unicode="&#xf1;" horiz-adv-x="1378" 
d="M739 1077q202 0 318 -116q117 -117 117 -336v-625h-103v616q0 179 -90 275q-91 94 -256 94q-190 0 -297 -113q-109 -115 -109 -303v-569h-102v1069h98v-231q54 111 166 176q105 63 258 63zM827 1260q-43 0 -79 22q-37 20 -76 57q-36 31 -58 47q-24 15 -51 15
q-49 0 -76 -35q-29 -41 -32 -98h-68q3 91 49 149q47 56 121 56q45 0 82 -21q30 -18 74 -59q33 -29 59 -45q24 -17 49 -17q49 0 76 35q30 39 33 94h67q-3 -90 -49 -145t-121 -55z" />
    <glyph glyph-name="ograve" unicode="&#xf2;" horiz-adv-x="1269" 
d="M635 -8q-156 0 -273 69q-122 70 -192 195q-70 122 -70 279q0 155 70 280q71 124 192 193q117 69 273 69q154 0 274 -69q121 -71 191 -193q69 -123 69 -280q0 -159 -69 -279q-69 -123 -191 -195q-120 -69 -274 -69zM635 84q125 0 221 57q96 60 154 160q55 101 55 234
q0 132 -55 233q-58 100 -154 160q-96 57 -221 57q-127 0 -219 -57q-99 -58 -154 -160q-57 -99 -57 -233q0 -135 57 -234q55 -102 154 -160q92 -57 219 -57zM641 1243l-322 242h148l285 -242h-111z" />
    <glyph glyph-name="oacute" unicode="&#xf3;" horiz-adv-x="1269" 
d="M635 -8q-156 0 -273 69q-122 70 -192 195q-70 122 -70 279q0 155 70 280q71 124 192 193q117 69 273 69q154 0 274 -69q121 -71 191 -193q69 -123 69 -280q0 -159 -69 -279q-69 -123 -191 -195q-120 -69 -274 -69zM635 84q125 0 221 57q96 60 154 160q55 101 55 234
q0 132 -55 233q-58 100 -154 160q-96 57 -221 57q-127 0 -219 -57q-99 -58 -154 -160q-57 -99 -57 -233q0 -135 57 -234q55 -102 154 -160q92 -57 219 -57zM518 1243l285 242h147l-321 -242h-111z" />
    <glyph glyph-name="ocircumflex" unicode="&#xf4;" horiz-adv-x="1269" 
d="M635 -8q-156 0 -273 69q-122 70 -192 195q-70 122 -70 279q0 155 70 280q71 124 192 193q117 69 273 69q154 0 274 -69q121 -71 191 -193q69 -123 69 -280q0 -159 -69 -279q-69 -123 -191 -195q-120 -69 -274 -69zM635 84q125 0 221 57q96 60 154 160q55 101 55 234
q0 132 -55 233q-58 100 -154 160q-96 57 -221 57q-127 0 -219 -57q-99 -58 -154 -160q-57 -99 -57 -233q0 -135 57 -234q55 -102 154 -160q92 -57 219 -57zM950 1243h-102l-213 178l-213 -178h-103l259 242h114z" />
    <glyph glyph-name="otilde" unicode="&#xf5;" horiz-adv-x="1269" 
d="M635 -8q-156 0 -273 69q-122 70 -192 195q-70 122 -70 279q0 155 70 280q71 124 192 193q117 69 273 69q154 0 274 -69q121 -71 191 -193q69 -123 69 -280q0 -159 -69 -279q-69 -123 -191 -195q-120 -69 -274 -69zM635 84q125 0 221 57q96 60 154 160q55 101 55 234
q0 132 -55 233q-58 100 -154 160q-96 57 -221 57q-127 0 -219 -57q-99 -58 -154 -160q-57 -99 -57 -233q0 -135 57 -234q55 -102 154 -160q92 -57 219 -57zM770 1260q-44 0 -80 22q-37 20 -76 57q-40 35 -57 47q-24 15 -51 15q-49 0 -76 -35q-30 -42 -33 -98h-67
q3 91 49 149q47 56 121 56q44 0 82 -21q27 -16 73 -59q31 -27 60 -45q24 -17 49 -17q49 0 76 35q29 37 32 94h68q-3 -90 -49 -145t-121 -55z" />
    <glyph glyph-name="odieresis" unicode="&#xf6;" horiz-adv-x="1269" 
d="M635 -8q-156 0 -273 69q-122 70 -192 195q-70 122 -70 279q0 155 70 280q71 124 192 193q117 69 273 69q154 0 274 -69q121 -71 191 -193q69 -123 69 -280q0 -159 -69 -279q-69 -123 -191 -195q-120 -69 -274 -69zM635 84q125 0 221 57q96 60 154 160q55 101 55 234
q0 132 -55 233q-58 100 -154 160q-96 57 -221 57q-127 0 -219 -57q-99 -58 -154 -160q-57 -99 -57 -233q0 -135 57 -234q55 -102 154 -160q92 -57 219 -57zM459 1298q-28 0 -51 23t-23 51q0 30 23 53q21 21 51 21q32 0 53 -21q20 -20 20 -53q0 -29 -22 -51q-23 -23 -51 -23z
M811 1298q-28 0 -51 23t-23 51q0 30 23 53q21 21 51 21q32 0 53 -21t21 -53q0 -30 -21 -51q-23 -23 -53 -23z" />
    <glyph glyph-name="divide" unicode="&#xf7;" horiz-adv-x="1165" 
d="M582 1018q-35 0 -56 24q-22 22 -22 58q0 32 22 57q23 23 56 23q34 0 57 -23t23 -57q0 -35 -23 -58q-24 -24 -57 -24zM147 672v88h871v-88h-871zM582 254q-34 0 -56 25q-22 22 -22 57q0 32 22 57q23 23 56 23q34 0 57 -23t23 -57t-23 -57q-22 -25 -57 -25z" />
    <glyph glyph-name="oslash" unicode="&#xf8;" horiz-adv-x="1269" 
d="M635 -8q-156 0 -273 69q-122 70 -192 195q-70 122 -70 279q0 155 70 280q71 124 192 193q117 69 273 69q154 0 274 -69q121 -71 191 -193q69 -123 69 -280q0 -159 -69 -279q-69 -123 -191 -195q-120 -69 -274 -69zM635 84q125 0 221 57q96 60 154 160q55 101 55 234
q0 132 -55 233q-58 100 -154 160q-96 57 -221 57q-127 0 -219 -57q-99 -58 -154 -160q-57 -99 -57 -233q0 -135 57 -234q55 -102 154 -160q92 -57 219 -57zM141 -145l910 1355h77l-909 -1355h-78z" />
    <glyph glyph-name="ugrave" unicode="&#xf9;" 
d="M1051 1069h102v-1069h-98v229q-51 -112 -158 -174q-103 -63 -246 -63q-207 0 -327 117q-119 116 -119 335v625h102v-616q0 -180 92 -275q91 -94 260 -94q180 0 287 113q105 114 105 303v569zM686 1243l-321 242h147l285 -242h-111z" />
    <glyph glyph-name="uacute" unicode="&#xfa;" 
d="M1051 1069h102v-1069h-98v229q-51 -112 -158 -174q-103 -63 -246 -63q-207 0 -327 117q-119 116 -119 335v625h102v-616q0 -180 92 -275q91 -94 260 -94q180 0 287 113q105 114 105 303v569zM563 1243l285 242h147l-321 -242h-111z" />
    <glyph glyph-name="ucircumflex" unicode="&#xfb;" 
d="M1051 1069h102v-1069h-98v229q-51 -112 -158 -174q-103 -63 -246 -63q-207 0 -327 117q-119 116 -119 335v625h102v-616q0 -180 92 -275q91 -94 260 -94q180 0 287 113q105 114 105 303v569zM995 1243h-102l-213 178l-213 -178h-102l258 242h114z" />
    <glyph glyph-name="udieresis" unicode="&#xfc;" 
d="M1051 1069h102v-1069h-98v229q-51 -112 -158 -174q-103 -63 -246 -63q-207 0 -327 117q-119 116 -119 335v625h102v-616q0 -180 92 -275q91 -94 260 -94q180 0 287 113q105 114 105 303v569zM504 1298q-28 0 -51 23t-23 51q0 30 23 53q21 21 51 21q32 0 53 -21t21 -53
q0 -28 -23 -51t-51 -23zM856 1298q-28 0 -51 23t-23 51q0 30 23 53q21 21 51 21q32 0 53 -21t21 -53q0 -30 -21 -51q-23 -23 -53 -23z" />
    <glyph glyph-name="yacute" unicode="&#xfd;" horiz-adv-x="1081" 
d="M971 1069h104l-549 -1214q-62 -143 -141 -201q-85 -60 -192 -60q-71 0 -138 25q-61 23 -110 72l51 78q84 -84 199 -84q78 0 133 43q57 44 102 147l57 129l-481 1065h109l428 -956zM395 1243l285 242h147l-321 -242h-111z" />
    <glyph glyph-name="thorn" unicode="&#xfe;" horiz-adv-x="1382" 
d="M754 1077q153 0 270 -69q120 -70 190 -193q68 -124 68 -280q0 -157 -68 -281q-70 -126 -190 -193q-117 -69 -270 -69q-143 0 -256 67q-114 65 -179 185v-641h-102v1917h102v-695q64 119 179 187q115 65 256 65zM748 84q125 0 221 57t155 160q56 103 56 234q0 130 -56 233
q-59 103 -155 160t-221 57q-128 0 -220 -57q-97 -57 -153 -160q-58 -101 -58 -233q0 -133 58 -234q56 -103 153 -160q92 -57 220 -57z" />
    <glyph glyph-name="ydieresis" unicode="&#xff;" horiz-adv-x="1081" 
d="M971 1069h104l-549 -1214q-62 -143 -141 -201q-85 -60 -192 -60q-71 0 -138 25q-61 23 -110 72l51 78q84 -84 199 -84q78 0 133 43q57 44 102 147l57 129l-481 1065h109l428 -956zM336 1298q-28 0 -51 23t-23 51q0 30 23 53q21 21 51 21q32 0 53 -21t21 -53
q0 -28 -23 -51t-51 -23zM688 1298q-28 0 -51 23t-23 51q0 30 23 53q21 21 51 21q32 0 53 -21t21 -53q0 -30 -21 -51q-23 -23 -53 -23z" />
    <glyph glyph-name="Amacron" unicode="&#x100;" horiz-adv-x="1443" 
d="M1321 0l-184 403h-832l-182 -403h-113l660 1434h104l660 -1434h-113zM346 492h752l-377 827zM422 1634v74h602v-74h-602z" />
    <glyph glyph-name="amacron" unicode="&#x101;" horiz-adv-x="1193" 
d="M578 1077q199 0 305 -100t106 -299v-678h-98v190q-52 -93 -150 -145q-100 -53 -235 -53q-177 0 -281 84q-104 82 -104 221q0 133 96 217q94 82 303 82h367v86q0 150 -80 227q-84 78 -238 78q-109 0 -202 -37q-100 -38 -166 -98l-51 74q82 73 192 112t236 39zM520 76
q134 0 228 61q93 63 139 178v201h-365q-158 0 -227 -57q-72 -60 -72 -158q0 -104 78 -164q76 -61 219 -61zM272 1327v74h602v-74h-602z" />
    <glyph glyph-name="Abreve" unicode="&#x102;" horiz-adv-x="1443" 
d="M1321 0l-184 403h-832l-182 -403h-113l660 1434h104l660 -1434h-113zM346 492h752l-377 827zM723 1542q-124 0 -207 68q-85 70 -88 182h76q3 -83 65 -131q60 -51 154 -51q93 0 156 51q60 48 63 131h76q-3 -114 -86 -182t-209 -68z" />
    <glyph glyph-name="abreve" unicode="&#x103;" horiz-adv-x="1193" 
d="M578 1077q199 0 305 -100t106 -299v-678h-98v190q-52 -93 -150 -145q-100 -53 -235 -53q-177 0 -281 84q-104 82 -104 221q0 133 96 217q94 82 303 82h367v86q0 150 -80 227q-84 78 -238 78q-109 0 -202 -37q-100 -38 -166 -98l-51 74q82 73 192 112t236 39zM520 76
q134 0 228 61q93 63 139 178v201h-365q-158 0 -227 -57q-72 -60 -72 -158q0 -104 78 -164q76 -61 219 -61zM573 1235q-123 0 -206 68q-85 70 -88 182h75q3 -83 66 -131q60 -51 153 -51t156 51q61 49 64 131h75q-3 -114 -86 -182t-209 -68z" />
    <glyph glyph-name="Aogonek" unicode="&#x104;" horiz-adv-x="1443" 
d="M1321 0l-184 403h-832l-182 -403h-113l660 1434h104l660 -1434h-113zM346 492h752l-377 827zM1309 -444q-95 0 -152 51q-57 48 -57 133q0 182 284 305l50 -45q-254 -111 -254 -254q0 -61 39 -90q39 -33 100 -33q35 0 70 12q31 8 57 31l29 -59q-68 -51 -166 -51z" />
    <glyph glyph-name="aogonek" unicode="&#x105;" horiz-adv-x="1193" 
d="M578 1077q199 0 305 -100t106 -299v-678h-98v190q-52 -93 -150 -145q-100 -53 -235 -53q-177 0 -281 84q-104 82 -104 221q0 133 96 217q94 82 303 82h367v86q0 150 -80 227q-84 78 -238 78q-109 0 -202 -37q-100 -38 -166 -98l-51 74q82 73 192 112t236 39zM520 76
q134 0 228 61q93 63 139 178v201h-365q-158 0 -227 -57q-72 -60 -72 -158q0 -104 78 -164q76 -61 219 -61zM864 -444q-94 0 -151 51q-58 49 -58 133q0 182 285 305l49 -45q-254 -111 -254 -254q0 -61 39 -90q39 -33 100 -33q36 0 70 12q31 8 57 31l29 -59q-68 -51 -166 -51z
" />
    <glyph glyph-name="Cacute" unicode="&#x106;" horiz-adv-x="1466" 
d="M856 -10q-210 0 -379 94q-173 97 -266 260q-98 165 -98 373t98 373q93 163 266 260q169 94 379 94q156 0 287 -49q133 -53 223 -150l-66 -67q-173 170 -440 170q-182 0 -328 -82q-150 -84 -231 -226q-84 -147 -84 -323q0 -175 84 -322q82 -143 231 -227q146 -82 328 -82
q265 0 440 172l66 -68q-88 -95 -223 -149q-128 -51 -287 -51zM721 1550l285 242h147l-322 -242h-110z" />
    <glyph glyph-name="cacute" unicode="&#x107;" horiz-adv-x="1136" 
d="M641 -8q-159 0 -279 69q-122 70 -192 195q-70 122 -70 279t70 282q71 124 192 193q122 67 279 67q129 0 236 -49q106 -53 170 -147l-76 -56q-59 80 -142 121q-82 39 -188 39q-125 0 -223 -55q-100 -57 -156 -160q-57 -99 -57 -235q0 -137 57 -236q57 -104 156 -158
q96 -57 223 -57q101 0 188 41q85 42 142 119l76 -56q-65 -96 -170 -145q-105 -51 -236 -51zM489 1243l285 242h148l-322 -242h-111z" />
    <glyph glyph-name="Ccircumflex" unicode="&#x108;" horiz-adv-x="1466" 
d="M856 -10q-210 0 -379 94q-173 97 -266 260q-98 165 -98 373t98 373q93 163 266 260q169 94 379 94q156 0 287 -49q133 -53 223 -150l-66 -67q-173 170 -440 170q-182 0 -328 -82q-150 -84 -231 -226q-84 -147 -84 -323q0 -175 84 -322q82 -143 231 -227q146 -82 328 -82
q265 0 440 172l66 -68q-88 -95 -223 -149q-128 -51 -287 -51zM1153 1550h-102l-213 179l-213 -179h-103l258 242h115z" />
    <glyph glyph-name="ccircumflex" unicode="&#x109;" horiz-adv-x="1136" 
d="M641 -8q-159 0 -279 69q-122 70 -192 195q-70 122 -70 279t70 282q71 124 192 193q122 67 279 67q129 0 236 -49q106 -53 170 -147l-76 -56q-59 80 -142 121q-82 39 -188 39q-125 0 -223 -55q-100 -57 -156 -160q-57 -99 -57 -235q0 -137 57 -236q57 -104 156 -158
q96 -57 223 -57q101 0 188 41q85 42 142 119l76 -56q-65 -96 -170 -145q-105 -51 -236 -51zM922 1243h-103l-213 178l-213 -178h-102l258 242h115z" />
    <glyph glyph-name="Cdotaccent" unicode="&#x10a;" horiz-adv-x="1466" 
d="M856 -10q-210 0 -379 94q-173 97 -266 260q-98 165 -98 373t98 373q93 163 266 260q169 94 379 94q156 0 287 -49q133 -53 223 -150l-66 -67q-173 170 -440 170q-182 0 -328 -82q-150 -84 -231 -226q-84 -147 -84 -323q0 -175 84 -322q82 -143 231 -227q146 -82 328 -82
q265 0 440 172l66 -68q-88 -95 -223 -149q-128 -51 -287 -51zM838 1608q-37 0 -58 24q-22 22 -22 56q0 33 24 57q22 22 56 22q32 0 57 -22q23 -26 23 -57q0 -33 -23 -56q-24 -24 -57 -24z" />
    <glyph glyph-name="cdotaccent" unicode="&#x10b;" horiz-adv-x="1136" 
d="M641 -8q-159 0 -279 69q-122 70 -192 195q-70 122 -70 279t70 282q71 124 192 193q122 67 279 67q129 0 236 -49q106 -53 170 -147l-76 -56q-59 80 -142 121q-82 39 -188 39q-125 0 -223 -55q-100 -57 -156 -160q-57 -99 -57 -235q0 -137 57 -236q57 -104 156 -158
q96 -57 223 -57q101 0 188 41q85 42 142 119l76 -56q-65 -96 -170 -145q-105 -51 -236 -51zM606 1300q-35 0 -57 25q-23 23 -23 55q0 33 25 58q22 22 55 22t58 -22q22 -25 22 -58t-22 -55q-25 -25 -58 -25z" />
    <glyph glyph-name="Ccaron" unicode="&#x10c;" horiz-adv-x="1466" 
d="M856 -10q-210 0 -379 94q-173 97 -266 260q-98 165 -98 373t98 373q93 163 266 260q169 94 379 94q156 0 287 -49q133 -53 223 -150l-66 -67q-173 170 -440 170q-182 0 -328 -82q-150 -84 -231 -226q-84 -147 -84 -323q0 -175 84 -322q82 -143 231 -227q146 -82 328 -82
q265 0 440 172l66 -68q-88 -95 -223 -149q-128 -51 -287 -51zM1051 1792h102l-258 -242h-115l-258 242h103l213 -176z" />
    <glyph glyph-name="ccaron" unicode="&#x10d;" horiz-adv-x="1136" 
d="M641 -8q-159 0 -279 69q-122 70 -192 195q-70 122 -70 279t70 282q71 124 192 193q122 67 279 67q129 0 236 -49q106 -53 170 -147l-76 -56q-59 80 -142 121q-82 39 -188 39q-125 0 -223 -55q-100 -57 -156 -160q-57 -99 -57 -235q0 -137 57 -236q57 -104 156 -158
q96 -57 223 -57q101 0 188 41q85 42 142 119l76 -56q-65 -96 -170 -145q-105 -51 -236 -51zM819 1485h103l-258 -242h-115l-258 242h102l213 -176z" />
    <glyph glyph-name="Dcaron" unicode="&#x10e;" horiz-adv-x="1691" 
d="M250 0v1434h567q219 0 397 -93q176 -93 269 -254q96 -166 96 -370q0 -203 -96 -369q-94 -163 -269 -256q-176 -92 -397 -92h-567zM354 94h455q199 0 350 80q151 77 234 219q82 140 82 324q0 183 -82 323q-83 142 -234 222q-151 77 -350 77h-455v-1245zM1004 1790h102
l-258 -242h-115l-258 242h103l213 -176z" />
    <glyph glyph-name="dcaron" unicode="&#x10f;" horiz-adv-x="1382" 
d="M1065 1520h102v-1520h-100v252q-64 -126 -178 -193q-113 -67 -260 -67q-154 0 -271 69q-121 71 -188 193q-70 122 -70 281q0 157 70 282q67 122 188 193q119 67 271 67q145 0 258 -67q112 -66 178 -189v699zM635 84q125 0 221 57q96 60 154 160q55 101 55 234
q0 132 -55 233q-58 100 -154 160q-96 57 -221 57q-127 0 -219 -57q-99 -58 -154 -160q-57 -99 -57 -233q0 -135 57 -234q55 -102 154 -160q92 -57 219 -57zM1364 1192v379h88l-12 -379h-76z" />
    <glyph glyph-name="Dcroat" unicode="&#x110;" horiz-adv-x="1697" 
d="M256 0v1434h567q220 0 398 -93q175 -93 268 -254q96 -166 96 -370q0 -203 -96 -369q-95 -164 -268 -256q-176 -92 -398 -92h-567zM360 94h455q199 0 350 80q151 77 234 219q82 140 82 324q0 183 -82 323q-83 142 -234 222q-151 77 -350 77h-455v-1245zM33 684v88h770v-88
h-770z" />
    <glyph glyph-name="dcroat" unicode="&#x111;" horiz-adv-x="1382" 
d="M1065 1520h102v-1520h-100v252q-64 -126 -178 -193q-113 -67 -260 -67q-154 0 -271 69q-121 71 -188 193q-70 122 -70 281q0 157 70 282q67 122 188 193q119 67 271 67q145 0 258 -67q112 -66 178 -189v699zM635 84q125 0 221 57q96 60 154 160q55 101 55 234
q0 132 -55 233q-58 100 -154 160q-96 57 -221 57q-127 0 -219 -57q-99 -58 -154 -160q-57 -99 -57 -233q0 -135 57 -234q55 -102 154 -160q92 -57 219 -57zM594 1255v78h790v-78h-790z" />
    <glyph glyph-name="Emacron" unicode="&#x112;" 
d="M354 94h885v-94h-989v1434h958v-95h-854v-565h764v-92h-764v-588zM430 1634v74h602v-74h-602z" />
    <glyph glyph-name="emacron" unicode="&#x113;" horiz-adv-x="1222" 
d="M1122 539l-2 -29h-919q3 -124 63 -221q58 -99 162 -152q103 -53 227 -53q110 0 195 39q90 38 147 110l60 -67q-71 -84 -174 -129q-105 -45 -230 -45q-161 0 -284 69q-124 70 -195 193q-72 126 -72 281q0 153 68 280q64 122 182 193q115 69 262 69q146 0 262 -67
q117 -72 183 -193q65 -124 65 -278zM612 987q-114 0 -202 -49q-93 -55 -144 -141q-54 -88 -63 -207h819q-6 118 -61 205q-54 87 -146 141q-86 51 -203 51zM311 1327v74h602v-74h-602z" />
    <glyph glyph-name="Ebreve" unicode="&#x114;" 
d="M354 94h885v-94h-989v1434h958v-95h-854v-565h764v-92h-764v-588zM731 1542q-124 0 -207 68q-85 70 -88 182h76q3 -83 66 -131q60 -51 153 -51t156 51q60 48 63 131h76q-3 -114 -86 -182t-209 -68z" />
    <glyph glyph-name="ebreve" unicode="&#x115;" horiz-adv-x="1222" 
d="M1122 539l-2 -29h-919q3 -124 63 -221q58 -99 162 -152q103 -53 227 -53q110 0 195 39q90 38 147 110l60 -67q-71 -84 -174 -129q-105 -45 -230 -45q-161 0 -284 69q-124 70 -195 193q-72 126 -72 281q0 153 68 280q64 122 182 193q115 69 262 69q146 0 262 -67
q117 -72 183 -193q65 -124 65 -278zM612 987q-114 0 -202 -49q-93 -55 -144 -141q-54 -88 -63 -207h819q-6 118 -61 205q-54 87 -146 141q-86 51 -203 51zM612 1235q-123 0 -206 68q-86 70 -89 182h76q3 -83 66 -131q60 -51 153 -51t156 51q60 48 63 131h76
q-3 -114 -86 -182t-209 -68z" />
    <glyph glyph-name="Edotaccent" unicode="&#x116;" 
d="M354 94h885v-94h-989v1434h958v-95h-854v-565h764v-92h-764v-588zM731 1608q-36 0 -57 24q-23 23 -23 56q0 32 25 57q22 22 55 22q32 0 57 -22q23 -26 23 -57q0 -33 -23 -56q-24 -24 -57 -24z" />
    <glyph glyph-name="edotaccent" unicode="&#x117;" horiz-adv-x="1222" 
d="M1122 539l-2 -29h-919q3 -124 63 -221q58 -99 162 -152q103 -53 227 -53q110 0 195 39q90 38 147 110l60 -67q-71 -84 -174 -129q-105 -45 -230 -45q-161 0 -284 69q-124 70 -195 193q-72 126 -72 281q0 153 68 280q64 122 182 193q115 69 262 69q146 0 262 -67
q117 -72 183 -193q65 -124 65 -278zM612 987q-114 0 -202 -49q-93 -55 -144 -141q-54 -88 -63 -207h819q-6 118 -61 205q-54 87 -146 141q-86 51 -203 51zM612 1300q-35 0 -57 25q-23 23 -23 55q0 33 25 58q22 22 55 22t58 -22q22 -25 22 -58t-22 -55q-25 -25 -58 -25z" />
    <glyph glyph-name="Eogonek" unicode="&#x118;" 
d="M354 94h885v-94h-989v1434h958v-95h-854v-565h764v-92h-764v-588zM1114 -444q-94 0 -151 51q-58 49 -58 133q0 182 285 305l49 -45q-254 -111 -254 -254q0 -61 39 -90q39 -33 100 -33q36 0 70 12q31 8 57 31l29 -59q-68 -51 -166 -51z" />
    <glyph glyph-name="eogonek" unicode="&#x119;" horiz-adv-x="1222" 
d="M1122 539l-2 -29h-919q3 -124 63 -221q58 -99 162 -152q103 -53 227 -53q110 0 195 39q90 38 147 110l60 -67q-24 -28 -76 -72q-141 -126 -188 -200q-50 -77 -50 -146q0 -63 39 -92q36 -33 101 -33q75 0 127 43l28 -59q-68 -51 -164 -51q-94 0 -151 51q-59 53 -59 137
q0 138 135 264q-82 -16 -146 -16q-161 0 -284 69q-124 70 -195 193q-72 126 -72 281q0 153 68 280q64 122 182 193q115 69 262 69q146 0 262 -67q117 -72 183 -193q65 -124 65 -278zM612 987q-114 0 -202 -49q-93 -55 -144 -141q-54 -88 -63 -207h819q-6 118 -61 205
q-54 87 -146 141q-86 51 -203 51z" />
    <glyph glyph-name="Ecaron" unicode="&#x11a;" 
d="M354 94h885v-94h-989v1434h958v-95h-854v-565h764v-92h-764v-588zM944 1792h103l-259 -242h-114l-258 242h102l213 -176z" />
    <glyph glyph-name="ecaron" unicode="&#x11b;" horiz-adv-x="1222" 
d="M1122 539l-2 -29h-919q3 -124 63 -221q58 -99 162 -152q103 -53 227 -53q110 0 195 39q90 38 147 110l60 -67q-71 -84 -174 -129q-105 -45 -230 -45q-161 0 -284 69q-124 70 -195 193q-72 126 -72 281q0 153 68 280q64 122 182 193q115 69 262 69q146 0 262 -67
q117 -72 183 -193q65 -124 65 -278zM612 987q-114 0 -202 -49q-93 -55 -144 -141q-54 -88 -63 -207h819q-6 118 -61 205q-54 87 -146 141q-86 51 -203 51zM825 1485h103l-258 -242h-115l-258 242h102l213 -176z" />
    <glyph glyph-name="Gcircumflex" unicode="&#x11c;" horiz-adv-x="1583" 
d="M1274 217v494h100v-537q-98 -91 -227 -137q-136 -47 -285 -47q-214 0 -383 94q-175 96 -268 260q-98 165 -98 373t98 373q93 164 268 260q169 94 385 94q160 0 291 -49q128 -51 225 -148l-65 -69q-91 91 -201 131q-110 39 -248 39q-185 0 -331 -82q-153 -84 -234 -226
q-84 -147 -84 -323q0 -175 86 -320q82 -143 232 -227t331 -84q246 0 408 131zM1145 1548h-103l-213 178l-213 -178h-102l258 242h115z" />
    <glyph glyph-name="gcircumflex" unicode="&#x11d;" horiz-adv-x="1396" 
d="M1081 1069h99v-954q0 -268 -129 -394q-130 -127 -389 -127q-148 0 -279 46q-134 47 -211 124l55 78q80 -74 193 -114q115 -41 239 -41q214 0 316 102t102 313v181q-64 -116 -182 -181q-114 -63 -262 -63q-152 0 -271 67q-120 63 -192 185q-70 119 -70 268t70 268
q72 122 192 185q121 65 271 65q145 0 266 -65q116 -62 182 -185v242zM641 131q124 0 225 55q98 50 158 152q55 94 55 221t-55 221q-62 100 -158 152q-103 53 -225 53q-123 0 -223 -53q-98 -53 -156 -152q-57 -92 -57 -221t57 -221q57 -101 156 -152q98 -55 223 -55z
M973 1243h-103l-213 178l-213 -178h-102l258 242h115z" />
    <glyph glyph-name="Gbreve" unicode="&#x11e;" horiz-adv-x="1583" 
d="M1274 217v494h100v-537q-98 -91 -227 -137q-136 -47 -285 -47q-214 0 -383 94q-175 96 -268 260q-98 165 -98 373t98 373q93 164 268 260q169 94 385 94q160 0 291 -49q128 -51 225 -148l-65 -69q-91 91 -201 131q-110 39 -248 39q-185 0 -331 -82q-153 -84 -234 -226
q-84 -147 -84 -323q0 -175 86 -320q82 -143 232 -227t331 -84q246 0 408 131zM829 1540q-123 0 -206 68q-85 70 -88 182h75q3 -83 66 -131q60 -51 153 -51t156 51q61 49 64 131h75q-3 -114 -86 -182t-209 -68z" />
    <glyph glyph-name="gbreve" unicode="&#x11f;" horiz-adv-x="1396" 
d="M1081 1069h99v-954q0 -268 -129 -394q-130 -127 -389 -127q-148 0 -279 46q-134 47 -211 124l55 78q80 -74 193 -114q115 -41 239 -41q214 0 316 102t102 313v181q-64 -116 -182 -181q-114 -63 -262 -63q-152 0 -271 67q-120 63 -192 185q-70 119 -70 268t70 268
q72 122 192 185q121 65 271 65q145 0 266 -65q116 -62 182 -185v242zM641 131q124 0 225 55q98 50 158 152q55 94 55 221t-55 221q-62 100 -158 152q-103 53 -225 53q-123 0 -223 -53q-98 -53 -156 -152q-57 -92 -57 -221t57 -221q57 -101 156 -152q98 -55 223 -55z
M657 1235q-123 0 -206 68q-86 70 -89 182h76q3 -83 66 -131q60 -51 153 -51t156 51q61 49 64 131h75q-3 -114 -86 -182t-209 -68z" />
    <glyph glyph-name="Gdotaccent" unicode="&#x120;" horiz-adv-x="1583" 
d="M1274 217v494h100v-537q-98 -91 -227 -137q-136 -47 -285 -47q-214 0 -383 94q-175 96 -268 260q-98 165 -98 373t98 373q93 164 268 260q169 94 385 94q160 0 291 -49q128 -51 225 -148l-65 -69q-91 91 -201 131q-110 39 -248 39q-185 0 -331 -82q-153 -84 -234 -226
q-84 -147 -84 -323q0 -175 86 -320q82 -143 232 -227t331 -84q246 0 408 131zM829 1606q-36 0 -57 24q-22 22 -22 56q0 33 24 57q22 22 55 22t58 -22q22 -25 22 -57q0 -34 -22 -56q-24 -24 -58 -24z" />
    <glyph glyph-name="gdotaccent" unicode="&#x121;" horiz-adv-x="1396" 
d="M1081 1069h99v-954q0 -268 -129 -394q-130 -127 -389 -127q-148 0 -279 46q-134 47 -211 124l55 78q80 -74 193 -114q115 -41 239 -41q214 0 316 102t102 313v181q-64 -116 -182 -181q-114 -63 -262 -63q-152 0 -271 67q-120 63 -192 185q-70 119 -70 268t70 268
q72 122 192 185q121 65 271 65q145 0 266 -65q116 -62 182 -185v242zM641 131q124 0 225 55q98 50 158 152q55 94 55 221t-55 221q-62 100 -158 152q-103 53 -225 53q-123 0 -223 -53q-98 -53 -156 -152q-57 -92 -57 -221t57 -221q57 -101 156 -152q98 -55 223 -55z
M657 1300q-35 0 -57 25q-22 22 -22 55q0 34 24 58q22 22 55 22t58 -22q22 -25 22 -58t-22 -55q-25 -25 -58 -25z" />
    <glyph glyph-name="uni0122" unicode="&#x122;" horiz-adv-x="1583" 
d="M1274 217v494h100v-537q-98 -91 -227 -137q-136 -47 -285 -47q-214 0 -383 94q-175 96 -268 260q-98 165 -98 373t98 373q93 164 268 260q169 94 385 94q160 0 291 -49q128 -51 225 -148l-65 -69q-91 91 -201 131q-110 39 -248 39q-185 0 -331 -82q-153 -84 -234 -226
q-84 -147 -84 -323q0 -175 86 -320q82 -143 232 -227t331 -84q246 0 408 131zM825 -229q33 0 54 -21q20 -20 20 -49q0 -35 -18 -82l-54 -154h-61l41 168q-23 6 -39 25t-16 43q0 29 20 49q21 21 53 21z" />
    <glyph glyph-name="uni0123" unicode="&#x123;" horiz-adv-x="1396" 
d="M1081 1069h99v-954q0 -268 -129 -394q-130 -127 -389 -127q-148 0 -279 46q-134 47 -211 124l55 78q80 -74 193 -114q115 -41 239 -41q214 0 316 102t102 313v181q-64 -116 -182 -181q-114 -63 -262 -63q-152 0 -271 67q-120 63 -192 185q-70 119 -70 268t70 268
q72 122 192 185q121 65 271 65q145 0 266 -65q116 -62 182 -185v242zM641 131q124 0 225 55q98 50 158 152q55 94 55 221t-55 221q-62 100 -158 152q-103 53 -225 53q-123 0 -223 -53q-98 -53 -156 -152q-57 -92 -57 -221t57 -221q57 -101 156 -152q98 -55 223 -55z
M678 1370q27 -6 43 -22q14 -17 14 -43q0 -33 -20 -50q-20 -20 -58 -20q-35 0 -55 20q-22 22 -22 50q0 24 8 45q3 7 5 13.5t3 10.5t2 6l66 201h65z" />
    <glyph glyph-name="Hcircumflex" unicode="&#x124;" horiz-adv-x="1667" 
d="M1313 1434h104v-1434h-104v682h-959v-682h-104v1434h104v-660h959v660zM1149 1550h-102l-213 179l-213 -179h-103l258 242h115z" />
    <glyph glyph-name="hcircumflex" unicode="&#x125;" horiz-adv-x="1378" 
d="M739 1077q202 0 318 -116q117 -117 117 -336v-625h-103v616q0 179 -90 275q-91 94 -256 94q-190 0 -297 -113q-109 -115 -109 -303v-569h-102v1520h102v-674q55 110 164 172q109 59 256 59zM584 1636h-103l-213 179l-213 -179h-102l258 242h115z" />
    <glyph glyph-name="Hbar" unicode="&#x126;" horiz-adv-x="1679" 
d="M1319 1434h104v-1434h-104v682h-959v-682h-104v1434h104v-660h959v660zM31 1071v86h1616v-86h-1616z" />
    <glyph glyph-name="hbar" unicode="&#x127;" horiz-adv-x="1378" 
d="M739 1077q202 0 318 -116q117 -117 117 -336v-625h-103v616q0 179 -90 275q-91 94 -256 94q-190 0 -297 -113q-109 -115 -109 -303v-569h-102v1520h102v-674q55 110 164 172q109 59 256 59zM0 1255v78h791v-78h-791z" />
    <glyph glyph-name="Itilde" unicode="&#x128;" horiz-adv-x="604" 
d="M250 0v1434h104v-1434h-104zM438 1567q-44 0 -80 22q-31 18 -75 58q-36 31 -58 47q-22 14 -51 14q-49 0 -76 -35q-29 -41 -32 -98h-68q3 91 49 149q47 56 121 56q44 0 82 -21q30 -18 74 -59q33 -29 59 -45q24 -17 49 -17q49 0 76 35q30 39 33 94h67q-3 -90 -49 -145
t-121 -55z" />
    <glyph glyph-name="itilde" unicode="&#x129;" horiz-adv-x="534" 
d="M217 0v1069h102v-1069h-102zM381 1260q-44 0 -72 22q-37 26 -65 59q-18 20 -43 45q-18 15 -41 15q-35 0 -56 -35q-22 -39 -22 -98h-68q0 96 37 151q39 54 105 54q43 0 73 -21q36 -28 64 -61q25 -28 43 -43t41 -15q36 0 57 35q21 34 21 92h67q0 -93 -37 -145
q-37 -55 -104 -55z" />
    <glyph glyph-name="Imacron" unicode="&#x12a;" horiz-adv-x="604" 
d="M250 0v1434h104v-1434h-104zM57 1636v74h492v-74h-492z" />
    <glyph glyph-name="imacron" unicode="&#x12b;" horiz-adv-x="534" 
d="M217 0v1069h102v-1069h-102zM23 1327v74h491v-74h-491z" />
    <glyph glyph-name="Ibreve" unicode="&#x12c;" horiz-adv-x="604" 
d="M250 0v1434h104v-1434h-104zM303 1542q-124 0 -207 68q-85 70 -88 182h76q3 -83 66 -131q60 -51 153 -51t156 51q60 48 63 131h76q-3 -114 -86 -182t-209 -68z" />
    <glyph glyph-name="ibreve" unicode="&#x12d;" horiz-adv-x="534" 
d="M217 0v1069h102v-1069h-102zM268 1235q-106 0 -174 68q-69 66 -69 182h73q0 -83 47 -133q46 -49 123 -49q79 0 125 49q45 48 45 133h74q0 -114 -68 -182q-71 -68 -176 -68z" />
    <glyph glyph-name="Iogonek" unicode="&#x12e;" horiz-adv-x="604" 
d="M250 0v1434h104v-1434h-104zM322 -444q-71 0 -117 49q-45 45 -45 125q0 174 155 317l39 -47q-71 -74 -92 -135q-24 -65 -24 -125q0 -57 26 -86q28 -31 68 -31q45 0 78 33l26 -55q-39 -45 -114 -45z" />
    <glyph glyph-name="iogonek" unicode="&#x12f;" horiz-adv-x="534" 
d="M217 0v1069h102v-1069h-102zM268 1329q-34 0 -59 25q-25 22 -25 57q0 34 25 59t59 25q35 0 60 -22q24 -24 24 -60q0 -35 -24 -59q-25 -25 -60 -25zM287 -444q-71 0 -117 49q-45 45 -45 125q0 173 156 317l38 -47q-71 -74 -92 -135q-24 -65 -24 -125q0 -57 26 -86
q28 -31 68 -31q45 0 78 33l26 -55q-39 -45 -114 -45z" />
    <glyph glyph-name="Idotaccent" unicode="&#x130;" horiz-adv-x="604" 
d="M250 0v1434h104v-1434h-104zM303 1608q-36 0 -57 24q-23 23 -23 56q0 32 25 57q22 22 55 22q32 0 57 -22q23 -26 23 -57q0 -33 -23 -56q-24 -24 -57 -24z" />
    <glyph glyph-name="dotlessi" unicode="&#x131;" horiz-adv-x="534" 
d="M217 0v1069h102v-1069h-102z" />
    <glyph glyph-name="IJ" unicode="&#x132;" horiz-adv-x="1466" 
d="M670 -10q-130 0 -242 37q-123 39 -209 100l47 86q77 -57 189 -94q100 -33 217 -33q217 0 336 131q116 131 116 391v826h105v-824q0 -304 -150 -460q-151 -160 -409 -160zM238 608v826h104v-826h-104z" />
    <glyph glyph-name="ij" unicode="&#x133;" horiz-adv-x="1079" 
d="M217 0v1069h102v-1069h-102zM268 1329q-34 0 -59 25q-25 22 -25 57q0 34 25 59t59 25q35 0 60 -22q24 -24 24 -60q0 -35 -24 -59q-25 -25 -60 -25zM575 -406q-62 0 -124 19q-59 18 -97 53l41 76q65 -59 174 -59q95 0 144 55t49 160v1171h102v-1175q0 -139 -76 -218
q-76 -82 -213 -82zM813 1329q-34 0 -59 25q-25 22 -25 57q0 34 25 59t59 25t59 -22q25 -25 25 -60q0 -34 -25 -59t-59 -25z" />
    <glyph glyph-name="Jcircumflex" unicode="&#x134;" horiz-adv-x="1005" 
d="M379 -10q-116 0 -217 55q-100 51 -164 150l63 69q56 -84 142 -133q80 -47 176 -47q143 0 215 84q70 82 70 254v917h-529v95h633v-1012q0 -217 -98 -324q-99 -108 -291 -108zM768 1550h-102l-213 179l-213 -179h-103l258 242h115z" />
    <glyph glyph-name="jcircumflex" unicode="&#x135;" horiz-adv-x="544" 
d="M41 -406q-63 0 -125 19q-58 18 -96 53l41 76q65 -59 174 -59q94 0 143 55t49 160v1171h103v-1175q0 -139 -76 -218q-76 -82 -213 -82zM543 1243h-101l-163 176l-164 -176h-101l209 242h111z" />
    <glyph glyph-name="uni0136" unicode="&#x136;" horiz-adv-x="1439" 
d="M1292 0l-616 707l-322 -330v-377h-104v1434h104v-922l895 922h127l-631 -652l674 -782h-127zM762 -229q32 0 53 -21t21 -49q0 -33 -19 -82l-53 -154h-62l41 168q-22 5 -38 25q-17 20 -17 43q0 28 21 49t53 21z" />
    <glyph glyph-name="uni0137" unicode="&#x137;" horiz-adv-x="1204" 
d="M1053 0l-455 571l-279 -254v-317h-102v1520h102v-1076l685 625h131l-461 -432l506 -637h-127zM633 -229q32 0 53 -21t21 -49q0 -33 -19 -82l-53 -154h-62l41 168q-23 6 -39 25t-16 43q0 28 21 49t53 21z" />
    <glyph glyph-name="kgreenlandic" unicode="&#x138;" horiz-adv-x="1179" 
d="M1053 0l-455 571l-279 -254v-317h-102v1069h102v-625l685 625h131l-461 -432l506 -637h-127z" />
    <glyph glyph-name="Lacute" unicode="&#x139;" horiz-adv-x="1198" 
d="M250 0v1434h104v-1340h826v-94h-930zM186 1550l285 242h147l-321 -242h-111z" />
    <glyph glyph-name="lacute" unicode="&#x13a;" horiz-adv-x="534" 
d="M217 0v1520h102v-1520h-102zM152 1694l284 241h148l-322 -241h-110z" />
    <glyph glyph-name="uni013B" unicode="&#x13b;" horiz-adv-x="1198" 
d="M250 0v1434h104v-1340h826v-94h-930zM737 -229q33 0 54 -21q20 -20 20 -49q0 -35 -18 -82l-54 -154h-61l41 168q-23 6 -39 25t-16 43q0 29 20 49q21 21 53 21z" />
    <glyph glyph-name="uni013C" unicode="&#x13c;" horiz-adv-x="534" 
d="M217 0v1520h102v-1520h-102zM268 -229q33 0 54 -21q20 -20 20 -49q0 -35 -18 -82l-54 -154h-61l41 168q-23 6 -39 25t-16 43q0 29 20 49q21 21 53 21z" />
    <glyph glyph-name="Lcaron" unicode="&#x13d;" horiz-adv-x="1198" 
d="M250 0v1434h104v-1340h826v-94h-930zM907 1106v379h88l-12 -379h-76z" />
    <glyph glyph-name="lcaron" unicode="&#x13e;" horiz-adv-x="534" 
d="M217 0v1520h102v-1520h-102zM514 1192v379h88l-12 -379h-76z" />
    <glyph glyph-name="Ldot" unicode="&#x13f;" horiz-adv-x="1198" 
d="M250 0v1434h104v-1340h826v-94h-930zM901 682q-33 0 -55 25q-25 25 -25 57q0 34 25 59q22 25 55 25q35 0 60 -25q22 -25 22 -59q0 -32 -22 -57q-25 -25 -60 -25z" />
    <glyph glyph-name="ldot" unicode="&#x140;" horiz-adv-x="587" 
d="M217 0v1520h102v-1520h-102zM561 641q-33 0 -55 25q-23 23 -23 55t23 55t55 23t55 -23t23 -55t-23 -55q-22 -25 -55 -25z" />
    <glyph glyph-name="Lslash" unicode="&#x141;" horiz-adv-x="1204" 
d="M256 0v1434h104v-1340h826v-94h-930zM109 547l-50 63l557 416l50 -63z" />
    <glyph glyph-name="lslash" unicode="&#x142;" horiz-adv-x="546" 
d="M223 0v1520h103v-1520h-103zM72 520l-47 64l452 340l49 -64z" />
    <glyph glyph-name="Nacute" unicode="&#x143;" horiz-adv-x="1667" 
d="M1313 1434h104v-1434h-86l-977 1245v-1245h-104v1434h88l975 -1246v1246zM717 1550l284 242h148l-322 -242h-110z" />
    <glyph glyph-name="nacute" unicode="&#x144;" horiz-adv-x="1378" 
d="M739 1077q202 0 318 -116q117 -117 117 -336v-625h-103v616q0 179 -90 275q-91 94 -256 94q-190 0 -297 -113q-109 -115 -109 -303v-569h-102v1069h98v-231q54 111 166 176q105 63 258 63zM575 1243l285 242h148l-322 -242h-111z" />
    <glyph glyph-name="uni0145" unicode="&#x145;" horiz-adv-x="1667" 
d="M1313 1434h104v-1434h-86l-977 1245v-1245h-104v1434h88l975 -1246v1246zM834 -229q32 0 53 -21q20 -20 20 -49q0 -35 -18 -82l-53 -154h-62l41 168q-23 6 -39 25t-16 43q0 29 20 49q21 21 54 21z" />
    <glyph glyph-name="uni0146" unicode="&#x146;" horiz-adv-x="1378" 
d="M739 1077q202 0 318 -116q117 -117 117 -336v-625h-103v616q0 179 -90 275q-91 94 -256 94q-190 0 -297 -113q-109 -115 -109 -303v-569h-102v1069h98v-231q54 111 166 176q105 63 258 63zM692 -229q32 0 53 -21t21 -49q0 -35 -18 -82l-54 -154h-61l41 168q-23 6 -39 25
q-17 20 -17 43q0 28 21 49t53 21z" />
    <glyph glyph-name="Ncaron" unicode="&#x147;" horiz-adv-x="1667" 
d="M1313 1434h104v-1434h-86l-977 1245v-1245h-104v1434h88l975 -1246v1246zM1047 1792h102l-258 -242h-115l-258 242h103l213 -176z" />
    <glyph glyph-name="ncaron" unicode="&#x148;" horiz-adv-x="1378" 
d="M739 1077q202 0 318 -116q117 -117 117 -336v-625h-103v616q0 179 -90 275q-91 94 -256 94q-190 0 -297 -113q-109 -115 -109 -303v-569h-102v1069h98v-231q54 111 166 176q105 63 258 63zM905 1485h103l-258 -242h-115l-258 242h102l213 -176z" />
    <glyph glyph-name="napostrophe" unicode="&#x149;" horiz-adv-x="1499" 
d="M125 901l10 533h78l-23 -533h-65zM860 1077q202 0 318 -116t116 -336v-625h-102v616q0 179 -90 275q-91 94 -256 94q-190 0 -297 -113q-109 -115 -109 -303v-569h-102v1069h98v-231q54 111 166 176q105 63 258 63z" />
    <glyph glyph-name="Eng" unicode="&#x14a;" horiz-adv-x="1667" 
d="M1313 1434h104v-1399q0 -441 -387 -441q-110 0 -205 50q-97 51 -157 137l57 74q55 -79 135 -123q74 -45 170 -45q141 0 213 84q70 82 70 252l-959 1222v-1245h-104v1434h88l975 -1246v1246z" />
    <glyph glyph-name="eng" unicode="&#x14b;" horiz-adv-x="1378" 
d="M739 1077q202 0 318 -116q117 -117 117 -336v-731q0 -139 -76 -218q-76 -82 -213 -82q-63 0 -125 19q-58 18 -96 53l43 76q65 -59 172 -59q94 0 143 55t49 160v718q0 179 -90 275q-91 94 -256 94q-190 0 -297 -113q-109 -115 -109 -303v-569h-102v1069h98v-231
q54 111 166 176q105 63 258 63z" />
    <glyph glyph-name="Omacron" unicode="&#x14c;" horiz-adv-x="1716" 
d="M858 -10q-209 0 -381 96q-173 97 -266 260q-98 165 -98 371q0 205 98 370q95 168 266 263q169 94 381 94t381 -94q170 -95 268 -260q97 -171 97 -373t-97 -373q-98 -165 -268 -260q-169 -94 -381 -94zM858 86q183 0 326 82q147 84 229 227q84 147 84 322q0 176 -84 323
q-81 141 -229 226q-143 82 -326 82t-326 -82q-150 -84 -231 -226q-84 -147 -84 -323q0 -175 84 -322q82 -143 231 -227q143 -82 326 -82zM557 1634v74h602v-74h-602z" />
    <glyph glyph-name="omacron" unicode="&#x14d;" horiz-adv-x="1269" 
d="M635 -8q-156 0 -273 69q-122 70 -192 195q-70 122 -70 279q0 155 70 280q71 124 192 193q117 69 273 69q154 0 274 -69q121 -71 191 -193q69 -123 69 -280q0 -159 -69 -279q-69 -123 -191 -195q-120 -69 -274 -69zM635 84q125 0 221 57q96 60 154 160q55 101 55 234
q0 132 -55 233q-58 100 -154 160q-96 57 -221 57q-127 0 -219 -57q-99 -58 -154 -160q-57 -99 -57 -233q0 -135 57 -234q55 -102 154 -160q92 -57 219 -57zM334 1327v74h602v-74h-602z" />
    <glyph glyph-name="Obreve" unicode="&#x14e;" horiz-adv-x="1716" 
d="M858 -10q-209 0 -381 96q-173 97 -266 260q-98 165 -98 371q0 205 98 370q95 168 266 263q169 94 381 94t381 -94q170 -95 268 -260q97 -171 97 -373t-97 -373q-98 -165 -268 -260q-169 -94 -381 -94zM858 86q183 0 326 82q147 84 229 227q84 147 84 322q0 176 -84 323
q-81 141 -229 226q-143 82 -326 82t-326 -82q-150 -84 -231 -226q-84 -147 -84 -323q0 -175 84 -322q82 -143 231 -227q143 -82 326 -82zM858 1542q-124 0 -207 68q-85 70 -88 182h76q3 -83 66 -131q60 -51 153 -51t156 51q60 48 63 131h76q-3 -114 -86 -182t-209 -68z" />
    <glyph glyph-name="obreve" unicode="&#x14f;" horiz-adv-x="1269" 
d="M635 -8q-156 0 -273 69q-122 70 -192 195q-70 122 -70 279q0 155 70 280q71 124 192 193q117 69 273 69q154 0 274 -69q121 -71 191 -193q69 -123 69 -280q0 -159 -69 -279q-69 -123 -191 -195q-120 -69 -274 -69zM635 84q125 0 221 57q96 60 154 160q55 101 55 234
q0 132 -55 233q-58 100 -154 160q-96 57 -221 57q-127 0 -219 -57q-99 -58 -154 -160q-57 -99 -57 -233q0 -135 57 -234q55 -102 154 -160q92 -57 219 -57zM635 1235q-124 0 -207 68q-85 70 -88 182h76q3 -83 65 -131q60 -51 154 -51q93 0 156 51q60 48 63 131h76
q-3 -114 -86 -182t-209 -68z" />
    <glyph glyph-name="Ohungarumlaut" unicode="&#x150;" horiz-adv-x="1716" 
d="M858 -10q-209 0 -381 96q-173 97 -266 260q-98 165 -98 371q0 205 98 370q95 168 266 263q169 94 381 94t381 -94q170 -95 268 -260q97 -171 97 -373t-97 -373q-98 -165 -268 -260q-169 -94 -381 -94zM858 86q183 0 326 82q147 84 229 227q84 147 84 322q0 176 -84 323
q-81 141 -229 226q-143 82 -326 82t-326 -82q-150 -84 -231 -226q-84 -147 -84 -323q0 -175 84 -322q82 -143 231 -227q143 -82 326 -82zM651 1550l211 242h125l-235 -242h-101zM965 1550l211 242h122l-233 -242h-100z" />
    <glyph glyph-name="ohungarumlaut" unicode="&#x151;" horiz-adv-x="1269" 
d="M635 -8q-156 0 -273 69q-122 70 -192 195q-70 122 -70 279q0 155 70 280q71 124 192 193q117 69 273 69q154 0 274 -69q121 -71 191 -193q69 -123 69 -280q0 -159 -69 -279q-69 -123 -191 -195q-120 -69 -274 -69zM635 84q125 0 221 57q96 60 154 160q55 101 55 234
q0 132 -55 233q-58 100 -154 160q-96 57 -221 57q-127 0 -219 -57q-99 -58 -154 -160q-57 -99 -57 -233q0 -135 57 -234q55 -102 154 -160q92 -57 219 -57zM428 1243l211 242h125l-236 -242h-100zM741 1243l211 242h123l-233 -242h-101z" />
    <glyph glyph-name="OE" unicode="&#x152;" horiz-adv-x="2287" 
d="M1274 94h883v-94h-1283q-221 0 -397 92q-171 86 -268 254q-96 166 -96 369q0 206 96 372q95 164 268 254q178 93 397 93h1254v-95h-854v-565h762v-92h-762v-588zM879 94h290v1245h-290q-198 0 -347 -79t-233 -222q-82 -143 -82 -323q0 -182 82 -322q84 -143 233 -219
q151 -80 347 -80z" />
    <glyph glyph-name="oe" unicode="&#x153;" horiz-adv-x="2189" 
d="M2087 539v-29h-920q3 -122 64 -221q58 -99 162 -152q103 -53 227 -53q110 0 195 39q90 38 147 110l59 -67q-70 -85 -176 -129q-102 -45 -227 -45q-175 0 -309 84q-130 82 -193 231q-59 -146 -186 -229q-127 -86 -295 -86q-156 0 -273 69q-122 70 -192 195
q-70 122 -70 279q0 155 70 280q71 124 192 193q117 69 273 69q165 0 293 -84q126 -83 188 -227q60 149 180 229q119 82 283 82q144 0 260 -67q118 -71 182 -193q66 -126 66 -278zM1579 987q-115 0 -203 -49q-92 -54 -143 -141q-55 -90 -64 -207h820q-9 116 -62 205
q-55 88 -145 141q-89 51 -203 51zM635 84q125 0 221 57q96 60 154 160q55 101 55 234q0 132 -55 233q-58 100 -154 160q-96 57 -221 57q-127 0 -219 -57q-99 -58 -154 -160q-57 -99 -57 -233q0 -135 57 -234q55 -102 154 -160q92 -57 219 -57z" />
    <glyph glyph-name="Racute" unicode="&#x154;" horiz-adv-x="1474" 
d="M1364 0h-119l-342 479q-85 -10 -139 -10h-410v-469h-104v1434h514q270 0 424 -127q153 -129 153 -357q0 -169 -86 -284q-90 -119 -249 -164zM354 561h410q229 0 350 103t121 286q0 186 -121 289q-118 100 -350 100h-410v-778zM637 1550l285 242h147l-321 -242h-111z" />
    <glyph glyph-name="racute" unicode="&#x155;" horiz-adv-x="806" 
d="M315 836q49 115 154 180q104 61 254 61v-100l-25 2q-176 0 -278 -111q-101 -113 -101 -311v-557h-102v1069h98v-233zM354 1243l285 242h147l-321 -242h-111z" />
    <glyph glyph-name="uni0156" unicode="&#x156;" horiz-adv-x="1474" 
d="M1364 0h-119l-342 479q-85 -10 -139 -10h-410v-469h-104v1434h514q270 0 424 -127q153 -129 153 -357q0 -169 -86 -284q-90 -119 -249 -164zM354 561h410q229 0 350 103t121 286q0 186 -121 289q-118 100 -350 100h-410v-778zM754 -229q32 0 53 -21q20 -20 20 -49
q0 -35 -18 -82l-53 -154h-62l41 168q-23 6 -39 25t-16 43q0 29 20 49q21 21 54 21z" />
    <glyph glyph-name="uni0157" unicode="&#x157;" horiz-adv-x="806" 
d="M315 836q49 115 154 180q104 61 254 61v-100l-25 2q-176 0 -278 -111q-101 -113 -101 -311v-557h-102v1069h98v-233zM268 -229q33 0 54 -21q20 -20 20 -49q0 -35 -18 -82l-54 -154h-61l41 168q-23 6 -39 25t-16 43q0 29 20 49q21 21 53 21z" />
    <glyph glyph-name="Rcaron" unicode="&#x158;" horiz-adv-x="1474" 
d="M1364 0h-119l-342 479q-85 -10 -139 -10h-410v-469h-104v1434h514q270 0 424 -127q153 -129 153 -357q0 -169 -86 -284q-90 -119 -249 -164zM354 561h410q229 0 350 103t121 286q0 186 -121 289q-118 100 -350 100h-410v-778zM967 1792h102l-258 -242h-115l-258 242h103
l213 -176z" />
    <glyph glyph-name="rcaron" unicode="&#x159;" horiz-adv-x="806" 
d="M315 836q49 115 154 180q104 61 254 61v-100l-25 2q-176 0 -278 -111q-101 -113 -101 -311v-557h-102v1069h98v-233zM684 1485h102l-258 -242h-114l-258 242h102l213 -176z" />
    <glyph glyph-name="Sacute" unicode="&#x15a;" horiz-adv-x="1247" 
d="M627 -10q-159 0 -299 55q-143 52 -224 139l48 78q77 -80 204 -129q122 -51 269 -51q202 0 309 78q104 76 104 202q0 96 -55 154t-137 88q-77 28 -221 64q-182 47 -252 75q-98 39 -162 115q-68 77 -68 205q0 103 56 192q55 85 170 138q111 51 282 51q118 0 234 -35
q114 -35 198 -94l-39 -84q-89 61 -188 90q-109 31 -205 31q-198 0 -301 -80q-102 -80 -102 -207q0 -96 55 -154t137 -88q86 -31 224 -65q172 -45 251 -76q95 -38 162 -111q66 -78 66 -202q0 -105 -56 -191q-58 -85 -174 -137q-114 -51 -286 -51zM539 1550l284 242h148
l-322 -242h-110z" />
    <glyph glyph-name="sacute" unicode="&#x15b;" horiz-adv-x="978" 
d="M487 -8q-132 0 -245 39q-121 42 -183 98l47 82q62 -53 170 -92q101 -37 216 -37q162 0 239 53q76 52 76 148q0 65 -41 106q-42 39 -104 57q-61 18 -170 39q-120 20 -205 50q-77 27 -133 86t-56 163q0 129 107 211q104 82 299 82q97 0 203 -28q91 -24 163 -76l-47 -82
q-67 48 -149 72q-83 24 -172 24q-150 0 -226 -55q-75 -54 -75 -146q0 -70 43 -110q47 -43 106 -60q70 -24 174 -43q113 -19 203 -47q78 -28 129 -84q53 -59 53 -157q0 -134 -110 -213q-112 -80 -312 -80zM371 1243l284 242h148l-322 -242h-110z" />
    <glyph glyph-name="Scircumflex" unicode="&#x15c;" horiz-adv-x="1247" 
d="M627 -10q-159 0 -299 55q-143 52 -224 139l48 78q77 -80 204 -129q122 -51 269 -51q202 0 309 78q104 76 104 202q0 96 -55 154t-137 88q-77 28 -221 64q-182 47 -252 75q-98 39 -162 115q-68 77 -68 205q0 103 56 192q55 85 170 138q111 51 282 51q118 0 234 -35
q114 -35 198 -94l-39 -84q-89 61 -188 90q-109 31 -205 31q-198 0 -301 -80q-102 -80 -102 -207q0 -96 55 -154t137 -88q86 -31 224 -65q172 -45 251 -76q95 -38 162 -111q66 -78 66 -202q0 -105 -56 -191q-58 -85 -174 -137q-114 -51 -286 -51zM971 1550h-103l-213 179
l-213 -179h-102l258 242h115z" />
    <glyph glyph-name="scircumflex" unicode="&#x15d;" horiz-adv-x="978" 
d="M487 -8q-132 0 -245 39q-121 42 -183 98l47 82q62 -53 170 -92q101 -37 216 -37q162 0 239 53q76 52 76 148q0 65 -41 106q-42 39 -104 57q-61 18 -170 39q-120 20 -205 50q-77 27 -133 86t-56 163q0 129 107 211q104 82 299 82q97 0 203 -28q91 -24 163 -76l-47 -82
q-67 48 -149 72q-83 24 -172 24q-150 0 -226 -55q-75 -54 -75 -146q0 -70 43 -110q47 -43 106 -60q70 -24 174 -43q113 -19 203 -47q78 -28 129 -84q53 -59 53 -157q0 -134 -110 -213q-112 -80 -312 -80zM803 1243h-103l-213 178l-213 -178h-102l258 242h115z" />
    <glyph glyph-name="Scedilla" unicode="&#x15e;" horiz-adv-x="1247" 
d="M627 -10q-159 0 -299 55q-143 52 -224 139l48 78q77 -80 204 -129q122 -51 269 -51q202 0 309 78q104 76 104 202q0 96 -55 154t-137 88q-77 28 -221 64q-182 47 -252 75q-98 39 -162 115q-68 77 -68 205q0 103 56 192q55 85 170 138q111 51 282 51q118 0 234 -35
q114 -35 198 -94l-39 -84q-89 61 -188 90q-109 31 -205 31q-198 0 -301 -80q-102 -80 -102 -207q0 -96 55 -154t137 -88q86 -31 224 -65q172 -45 251 -76q95 -38 162 -111q66 -78 66 -202q0 -105 -56 -191q-58 -85 -174 -137q-114 -51 -286 -51zM614 -444q-98 0 -161 51
l28 57q55 -43 133 -43q59 0 99 29q37 27 37 80q0 48 -35 75q-37 29 -101 29h-41l48 178h67l-33 -123q83 -6 129 -49q45 -45 45 -114q0 -76 -59 -123q-62 -47 -156 -47z" />
    <glyph glyph-name="scedilla" unicode="&#x15f;" horiz-adv-x="978" 
d="M487 -8q-132 0 -245 39q-121 42 -183 98l47 82q62 -53 170 -92q101 -37 216 -37q162 0 239 53q76 52 76 148q0 65 -41 106q-42 39 -104 57q-61 18 -170 39q-120 20 -205 50q-77 27 -133 86t-56 163q0 129 107 211q104 82 299 82q97 0 203 -28q91 -24 163 -76l-47 -82
q-67 48 -149 72q-83 24 -172 24q-150 0 -226 -55q-75 -54 -75 -146q0 -70 43 -110q47 -43 106 -60q70 -24 174 -43q113 -19 203 -47q78 -28 129 -84q53 -59 53 -157q0 -134 -110 -213q-112 -80 -312 -80zM446 -444q-98 0 -161 51l28 57q55 -43 133 -43q59 0 99 29
q37 27 37 80q0 48 -35 75q-37 29 -101 29h-40l47 178h67l-33 -123q83 -6 129 -49q46 -46 46 -114q0 -75 -60 -123q-62 -47 -156 -47z" />
    <glyph glyph-name="Scaron" unicode="&#x160;" horiz-adv-x="1247" 
d="M627 -10q-159 0 -299 55q-143 52 -224 139l48 78q77 -80 204 -129q122 -51 269 -51q202 0 309 78q104 76 104 202q0 96 -55 154t-137 88q-77 28 -221 64q-182 47 -252 75q-98 39 -162 115q-68 77 -68 205q0 103 56 192q55 85 170 138q111 51 282 51q118 0 234 -35
q114 -35 198 -94l-39 -84q-89 61 -188 90q-109 31 -205 31q-198 0 -301 -80q-102 -80 -102 -207q0 -96 55 -154t137 -88q86 -31 224 -65q172 -45 251 -76q95 -38 162 -111q66 -78 66 -202q0 -105 -56 -191q-58 -85 -174 -137q-114 -51 -286 -51zM868 1792h103l-258 -242
h-115l-258 242h102l213 -176z" />
    <glyph glyph-name="scaron" unicode="&#x161;" horiz-adv-x="978" 
d="M487 -8q-132 0 -245 39q-121 42 -183 98l47 82q62 -53 170 -92q101 -37 216 -37q162 0 239 53q76 52 76 148q0 65 -41 106q-42 39 -104 57q-61 18 -170 39q-120 20 -205 50q-77 27 -133 86t-56 163q0 129 107 211q104 82 299 82q97 0 203 -28q91 -24 163 -76l-47 -82
q-67 48 -149 72q-83 24 -172 24q-150 0 -226 -55q-75 -54 -75 -146q0 -70 43 -110q47 -43 106 -60q70 -24 174 -43q113 -19 203 -47q78 -28 129 -84q53 -59 53 -157q0 -134 -110 -213q-112 -80 -312 -80zM700 1485h103l-258 -242h-115l-258 242h102l213 -176z" />
    <glyph glyph-name="uni0162" unicode="&#x162;" horiz-adv-x="1153" 
d="M524 0v1339h-516v95h1137v-95h-516v-1339h-105zM537 -444q-99 0 -162 51l28 57q55 -43 134 -43q58 0 98 29q37 27 37 80q0 48 -35 75q-37 29 -100 29h-41l47 178h67l-32 -123q83 -6 129 -49q45 -45 45 -114q0 -75 -60 -123q-62 -47 -155 -47z" />
    <glyph glyph-name="uni0163" unicode="&#x163;" horiz-adv-x="815" 
d="M705 139l43 -71q-42 -39 -97 -56q-56 -20 -123 -20q-137 0 -215 78q-75 75 -75 213v698h-197v88h197v234h102v-234h340v-88h-340v-688q0 -107 51 -158q49 -55 148 -55q101 0 166 59zM463 -444q-99 0 -162 51l29 57q55 -43 133 -43q58 0 98 29q37 27 37 80q0 48 -35 75
q-37 29 -100 29h-41l47 178h68l-33 -123q83 -6 129 -49q45 -45 45 -114q0 -75 -60 -123q-62 -47 -155 -47z" />
    <glyph glyph-name="Tcaron" unicode="&#x164;" horiz-adv-x="1153" 
d="M524 0v1339h-516v95h1137v-95h-516v-1339h-105zM791 1792h102l-258 -242h-115l-258 242h103l213 -176z" />
    <glyph glyph-name="tcaron" unicode="&#x165;" horiz-adv-x="815" 
d="M705 139l43 -71q-42 -39 -97 -56q-56 -20 -123 -20q-137 0 -215 78q-75 75 -75 213v698h-197v88h197v234h102v-234h340v-88h-340v-688q0 -107 51 -158q49 -55 148 -55q101 0 166 59zM539 1229v334h86l-15 -334h-71z" />
    <glyph glyph-name="Tbar" unicode="&#x166;" horiz-adv-x="1153" 
d="M524 0v1339h-516v95h1137v-95h-516v-1339h-105zM193 670v88h770v-88h-770z" />
    <glyph glyph-name="tbar" unicode="&#x167;" horiz-adv-x="835" 
d="M715 139l43 -71q-43 -40 -96 -56q-56 -20 -123 -20q-137 0 -215 78q-76 76 -76 213v698h-197v88h197v234h102v-234h340v-88h-340v-688q0 -107 51 -158q49 -55 148 -55q101 0 166 59zM74 578v77h594v-77h-594z" />
    <glyph glyph-name="Utilde" unicode="&#x168;" horiz-adv-x="1624" 
d="M811 -10q-271 0 -422 157t-151 461v826h104v-822q0 -262 121 -395q119 -131 350 -131q229 0 348 131q121 133 121 395v822h104v-826q0 -304 -151 -461t-424 -157zM948 1567q-44 0 -80 22q-31 18 -75 58q-36 31 -58 47q-22 14 -51 14q-49 0 -76 -35q-30 -42 -33 -98h-67
q3 91 49 149q47 56 121 56q44 0 82 -21q30 -18 74 -59q33 -29 59 -45q24 -17 49 -17q49 0 76 35q30 39 33 94h67q-3 -90 -49 -145t-121 -55z" />
    <glyph glyph-name="utilde" unicode="&#x169;" 
d="M1051 1069h102v-1069h-98v229q-51 -112 -158 -174q-103 -63 -246 -63q-207 0 -327 117q-119 116 -119 335v625h102v-616q0 -180 92 -275q91 -94 260 -94q180 0 287 113q105 114 105 303v569zM815 1260q-44 0 -80 22q-37 20 -76 57q-40 35 -57 47q-24 15 -51 15
q-49 0 -76 -35q-30 -42 -33 -98h-67q3 91 49 149q47 56 121 56q45 0 82 -21q27 -16 73 -59q31 -27 60 -45q24 -17 49 -17q49 0 76 35q30 39 33 94h67q-3 -90 -49 -145t-121 -55z" />
    <glyph glyph-name="Umacron" unicode="&#x16a;" horiz-adv-x="1624" 
d="M811 -10q-271 0 -422 157t-151 461v826h104v-822q0 -262 121 -395q119 -131 350 -131q229 0 348 131q121 133 121 395v822h104v-826q0 -304 -151 -461t-424 -157zM512 1634v74h602v-74h-602z" />
    <glyph glyph-name="umacron" unicode="&#x16b;" 
d="M1051 1069h102v-1069h-98v229q-51 -112 -158 -174q-103 -63 -246 -63q-207 0 -327 117q-119 116 -119 335v625h102v-616q0 -180 92 -275q91 -94 260 -94q180 0 287 113q105 114 105 303v569zM379 1327v74h602v-74h-602z" />
    <glyph glyph-name="Ubreve" unicode="&#x16c;" horiz-adv-x="1624" 
d="M811 -10q-271 0 -422 157t-151 461v826h104v-822q0 -262 121 -395q119 -131 350 -131q229 0 348 131q121 133 121 395v822h104v-826q0 -304 -151 -461t-424 -157zM813 1542q-124 0 -207 68q-85 70 -88 182h76q3 -83 65 -131q60 -51 154 -51q93 0 156 51q60 48 63 131h76
q-3 -114 -86 -182t-209 -68z" />
    <glyph glyph-name="ubreve" unicode="&#x16d;" 
d="M1051 1069h102v-1069h-98v229q-51 -112 -158 -174q-103 -63 -246 -63q-207 0 -327 117q-119 116 -119 335v625h102v-616q0 -180 92 -275q91 -94 260 -94q180 0 287 113q105 114 105 303v569zM680 1235q-124 0 -207 68q-85 70 -88 182h76q3 -83 65 -131q60 -51 154 -51
q93 0 156 51q60 48 63 131h76q-3 -114 -86 -182t-209 -68z" />
    <glyph glyph-name="Uring" unicode="&#x16e;" horiz-adv-x="1624" 
d="M811 -10q-271 0 -422 157t-151 461v826h104v-822q0 -262 121 -395q119 -131 350 -131q229 0 348 131q121 133 121 395v822h104v-826q0 -304 -151 -461t-424 -157zM811 1585q-83 0 -143 60t-60 139q0 82 60 145q60 60 143 60q85 0 145 -60q60 -63 60 -145q0 -81 -58 -139
q-60 -60 -147 -60zM811 1642q61 0 102 41t41 101t-41 104q-41 41 -102 41q-59 0 -100 -41q-41 -44 -41 -104t41 -101t100 -41z" />
    <glyph glyph-name="uring" unicode="&#x16f;" 
d="M1051 1069h102v-1069h-98v229q-51 -112 -158 -174q-103 -63 -246 -63q-207 0 -327 117q-119 116 -119 335v625h102v-616q0 -180 92 -275q91 -94 260 -94q180 0 287 113q105 114 105 303v569zM678 1221q-84 0 -143 59q-60 60 -60 139q0 83 60 146q59 59 143 59
q86 0 145 -59q60 -63 60 -146q0 -81 -58 -139q-59 -59 -147 -59zM678 1278q61 0 102 41t41 100q0 61 -41 105q-41 41 -102 41q-59 0 -100 -41q-41 -44 -41 -105q0 -59 41 -100t100 -41z" />
    <glyph glyph-name="Uhungarumlaut" unicode="&#x170;" horiz-adv-x="1624" 
d="M811 -10q-271 0 -422 157t-151 461v826h104v-822q0 -262 121 -395q119 -131 350 -131q229 0 348 131q121 133 121 395v822h104v-826q0 -304 -151 -461t-424 -157zM606 1550l211 242h125l-235 -242h-101zM920 1550l210 242h123l-233 -242h-100z" />
    <glyph glyph-name="uhungarumlaut" unicode="&#x171;" 
d="M1051 1069h102v-1069h-98v229q-51 -112 -158 -174q-103 -63 -246 -63q-207 0 -327 117q-119 116 -119 335v625h102v-616q0 -180 92 -275q91 -94 260 -94q180 0 287 113q105 114 105 303v569zM473 1243l211 242h125l-236 -242h-100zM786 1243l211 242h123l-233 -242h-101z
" />
    <glyph glyph-name="Uogonek" unicode="&#x172;" horiz-adv-x="1624" 
d="M1282 1434h104v-826q0 -472 -366 -592q-309 -102 -309 -270q0 -61 39 -90q39 -33 100 -33q34 0 68 12q31 8 57 31l29 -59q-68 -51 -164 -51q-95 0 -152 51q-57 48 -57 133q0 149 174 250q-267 3 -418 160q-149 155 -149 458v826h104v-822q0 -262 121 -395
q119 -131 350 -131q229 0 348 131q121 133 121 395v822z" />
    <glyph glyph-name="uogonek" unicode="&#x173;" 
d="M1051 1069h102v-1069h-98v229q-51 -112 -158 -174q-103 -63 -246 -63q-207 0 -327 117q-119 116 -119 335v625h102v-616q0 -180 92 -275q91 -94 260 -94q180 0 287 113q105 114 105 303v569zM1028 -444q-94 0 -151 51q-58 49 -58 133q0 182 285 305l49 -45
q-254 -111 -254 -254q0 -61 39 -90q39 -33 100 -33q36 0 70 12q31 8 57 31l29 -59q-68 -51 -166 -51z" />
    <glyph glyph-name="Wcircumflex" unicode="&#x174;" horiz-adv-x="2248" 
d="M2064 1434h103l-486 -1434h-110l-445 1286l-446 -1286h-111l-487 1434h111l436 -1291l448 1291h101l446 -1293zM1440 1550h-103l-213 179l-213 -179h-102l258 242h115z" />
    <glyph glyph-name="wcircumflex" unicode="&#x175;" horiz-adv-x="1765" 
d="M1651 1069h94l-406 -1069h-96l-360 928l-363 -928h-94l-406 1069h99l356 -954l365 954h88l362 -952zM1196 1241h-102l-213 178l-213 -178h-103l258 242h115z" />
    <glyph glyph-name="Ycircumflex" unicode="&#x176;" horiz-adv-x="1280" 
d="M1270 1434l-578 -940v-494h-104v494l-578 940h115l518 -844l518 844h109zM954 1550h-102l-213 179l-213 -179h-102l258 242h114z" />
    <glyph glyph-name="ycircumflex" unicode="&#x177;" horiz-adv-x="1081" 
d="M971 1069h104l-549 -1214q-62 -143 -141 -201q-85 -60 -192 -60q-71 0 -138 25q-61 23 -110 72l51 78q84 -84 199 -84q78 0 133 43q57 44 102 147l57 129l-481 1065h109l428 -956zM827 1243h-102l-213 178l-213 -178h-102l258 242h114z" />
    <glyph glyph-name="Ydieresis" unicode="&#x178;" horiz-adv-x="1280" 
d="M1270 1434l-578 -940v-494h-104v494l-578 940h115l518 -844l518 844h109zM463 1606q-29 0 -51 22q-23 23 -23 51q0 31 23 54q20 20 51 20q33 0 53 -20q21 -21 21 -54q0 -28 -23 -51q-22 -22 -51 -22zM815 1606q-29 0 -51 22q-23 23 -23 51q0 31 23 54q20 20 51 20
q33 0 53 -20q21 -21 21 -54q0 -30 -21 -51q-22 -22 -53 -22z" />
    <glyph glyph-name="Zacute" unicode="&#x179;" horiz-adv-x="1323" 
d="M242 94h1009v-94h-1155v74l989 1265h-976v95h1120v-74zM557 1550l285 242h147l-321 -242h-111z" />
    <glyph glyph-name="zacute" unicode="&#x17a;" horiz-adv-x="1030" 
d="M221 88h719v-88h-850v70l705 911h-695v88h828v-70zM399 1243l285 242h147l-321 -242h-111z" />
    <glyph glyph-name="Zdotaccent" unicode="&#x17b;" horiz-adv-x="1323" 
d="M242 94h1009v-94h-1155v74l989 1265h-976v95h1120v-74zM674 1608q-37 0 -58 24q-22 22 -22 56q0 33 24 57q22 22 56 22q32 0 57 -22q23 -26 23 -57q0 -33 -23 -56q-24 -24 -57 -24z" />
    <glyph glyph-name="zdotaccent" unicode="&#x17c;" horiz-adv-x="1030" 
d="M221 88h719v-88h-850v70l705 911h-695v88h828v-70zM516 1300q-35 0 -57 25q-23 23 -23 55q0 33 25 58q22 22 55 22q32 0 57 -22q23 -26 23 -58t-23 -55q-25 -25 -57 -25z" />
    <glyph glyph-name="Zcaron" unicode="&#x17d;" horiz-adv-x="1323" 
d="M242 94h1009v-94h-1155v74l989 1265h-976v95h1120v-74zM887 1792h102l-258 -242h-115l-258 242h103l213 -176z" />
    <glyph glyph-name="zcaron" unicode="&#x17e;" horiz-adv-x="1030" 
d="M221 88h719v-88h-850v70l705 911h-695v88h828v-70zM729 1485h102l-258 -242h-114l-258 242h102l213 -176z" />
    <glyph glyph-name="longs" unicode="&#x17f;" horiz-adv-x="585" 
d="M555 1528q53 0 119 -17q55 -17 94 -53l-41 -78q-66 60 -166 60q-96 0 -147 -54q-52 -55 -52 -161v-1225h-102v981h-199v88h199v164q0 134 78 215q77 80 217 80z" />
    <glyph glyph-name="uni018F" unicode="&#x18f;" horiz-adv-x="1671" 
d="M819 1444q212 0 381 -94q170 -95 264 -260q97 -171 97 -371q0 -196 -97 -367q-94 -169 -262 -264q-165 -98 -366 -98q-203 0 -369 96q-167 95 -260 262q-94 166 -94 373v35h1341q-9 169 -94 303q-87 137 -227 213q-143 76 -314 76q-281 0 -465 -166l-61 73
q101 94 233 142q136 47 293 47zM836 84q164 0 301 76q137 73 221 207q85 136 94 297h-1233q12 -168 94 -299q85 -135 219 -207q136 -74 304 -74z" />
    <glyph glyph-name="florin" unicode="&#x192;" horiz-adv-x="876" 
d="M743 1440q-96 0 -155 -56q-57 -54 -72 -159l-20 -166h342l-13 -88h-338l-133 -1082q-15 -133 -100 -215q-86 -80 -221 -80q-64 0 -123 19q-53 16 -90 53l47 76q59 -59 164 -59q93 0 151 55q55 55 70 160l131 1073h-197l13 88h196l21 174q15 135 104 215q86 80 223 80
q60 0 119 -19q55 -18 90 -53l-51 -76q-30 30 -70 45t-88 15z" />
    <glyph glyph-name="Ohorn" unicode="&#x1a0;" horiz-adv-x="1716" 
d="M1249 1339q166 -90 260 -256q95 -167 95 -366q0 -202 -97 -373q-98 -165 -268 -260q-169 -94 -381 -94q-209 0 -381 96q-173 97 -266 260q-98 165 -98 371q0 208 98 373q93 164 268 260q169 94 381 94q82 0 238 -17q101 -14 178 -14q213 0 213 162q0 65 -41 133l70 29
q51 -74 51 -164q0 -116 -76 -174q-78 -60 -221 -60h-23zM858 86q179 0 326 84t229 227q84 147 84 320q0 174 -84 321q-83 144 -229 228q-143 82 -326 82t-326 -82q-148 -83 -231 -228q-84 -147 -84 -321q0 -173 84 -320q82 -143 231 -227q147 -84 326 -84z" />
    <glyph glyph-name="ohorn" unicode="&#x1a1;" horiz-adv-x="1269" 
d="M932 993q111 -70 174 -188q63 -117 63 -270q0 -159 -69 -279q-69 -123 -191 -195q-120 -69 -274 -69q-156 0 -273 69q-122 70 -192 195q-70 122 -70 279q0 155 70 280q71 124 192 193q117 69 273 69q53 0 80 -2q54 -4 55 -4q56 -6 125 -6q85 0 131 43q43 40 43 102
q0 65 -41 136l70 28q51 -74 51 -164q0 -89 -55 -147q-61 -61 -162 -70zM635 84q125 0 221 57q96 60 154 160q55 101 55 234q0 132 -55 233q-58 100 -154 160q-96 57 -221 57q-127 0 -219 -57q-99 -58 -154 -160q-57 -99 -57 -233q0 -135 57 -234q55 -102 154 -160
q92 -57 219 -57z" />
    <glyph glyph-name="Uhorn" unicode="&#x1af;" horiz-adv-x="1630" 
d="M811 -10q-271 0 -422 157t-151 461v826h104v-822q0 -262 121 -395q119 -131 350 -131q229 0 348 131q121 133 121 395v822h104v-826q0 -304 -151 -461t-424 -157zM1339 1352v82h27q74 0 107 39q32 38 32 100q0 67 -41 135l72 29q49 -76 49 -164q0 -102 -55 -160
q-55 -61 -164 -61h-27z" />
    <glyph glyph-name="uhorn" unicode="&#x1b0;" horiz-adv-x="1376" 
d="M1051 1069h102v-1069h-98v229q-51 -112 -158 -174q-103 -63 -246 -63q-207 0 -327 117q-119 116 -119 335v625h102v-616q0 -180 92 -275q91 -94 260 -94q180 0 287 113q105 114 105 303v569zM1077 987v82h27q73 0 106 39t33 100q0 67 -41 135l72 29q49 -76 49 -164
q0 -101 -55 -159q-56 -62 -164 -62h-27z" />
    <glyph glyph-name="uni01B7" unicode="&#x1b7;" horiz-adv-x="1247" 
d="M602 809q255 -3 389 -113q133 -112 133 -293q0 -186 -137 -299q-138 -114 -389 -114q-166 0 -311 53q-143 52 -219 137l45 80q72 -78 200 -127t285 -49q199 0 311 86q109 86 109 233q0 151 -111 234q-116 84 -334 84h-94v76l455 544h-817v93h946v-74z" />
    <glyph glyph-name="uni01C4" unicode="&#x1c4;" horiz-adv-x="2985" 
d="M250 0v1434h567q219 0 397 -93q176 -93 269 -254q96 -166 96 -370q0 -203 -96 -369q-94 -163 -269 -256q-176 -92 -397 -92h-567zM354 94h455q199 0 350 80q151 77 234 219q82 140 82 324q0 183 -82 323q-83 142 -234 222q-151 77 -350 77h-455v-1245zM1886 94h1010v-94
h-1155v74l989 1265h-977v95h1120v-74zM2531 1792h103l-258 -242h-115l-258 242h102l213 -176z" />
    <glyph glyph-name="uni01C5" unicode="&#x1c5;" horiz-adv-x="2721" 
d="M250 0v1434h567q219 0 397 -93q176 -93 269 -254q96 -166 96 -370q0 -203 -96 -369q-94 -163 -269 -256q-176 -92 -397 -92h-567zM354 94h455q199 0 350 80q151 77 234 219q82 140 82 324q0 183 -82 323q-83 142 -234 222q-151 77 -350 77h-455v-1245zM1913 88h719v-88
h-850v70l704 911h-694v88h827v-70zM2421 1485h102l-258 -242h-115l-258 242h103l213 -176z" />
    <glyph glyph-name="uni01C6" unicode="&#x1c6;" horiz-adv-x="2445" 
d="M1065 1520h102v-1520h-100v252q-64 -126 -178 -193q-113 -67 -260 -67q-154 0 -271 69q-121 71 -188 193q-70 122 -70 281q0 157 70 282q67 122 188 193q119 67 271 67q145 0 258 -67q112 -66 178 -189v699zM635 84q125 0 221 57q96 60 154 160q55 101 55 234
q0 132 -55 233q-58 100 -154 160q-96 57 -221 57q-127 0 -219 -57q-99 -58 -154 -160q-57 -99 -57 -233q0 -135 57 -234q55 -102 154 -160q92 -57 219 -57zM1604 88h718v-88h-849v70l704 911h-694v88h827v-70zM2111 1485h103l-258 -242h-115l-258 242h103l212 -176z" />
    <glyph glyph-name="uni01C7" unicode="&#x1c7;" horiz-adv-x="2203" 
d="M250 0v1434h104v-1340h826v-94h-930zM1577 -10q-116 0 -217 55q-100 51 -164 150l64 69q56 -85 141 -133q80 -47 176 -47q143 0 215 84q70 82 70 254v917h-529v95h633v-1012q0 -217 -98 -324q-99 -108 -291 -108z" />
    <glyph glyph-name="uni01C8" unicode="&#x1c8;" horiz-adv-x="1742" 
d="M250 0v1434h104v-1340h826v-94h-930zM1239 -406q-63 0 -125 19q-58 18 -96 53l41 76q65 -59 174 -59q94 0 143 55t49 160v1171h103v-1175q0 -139 -76 -218q-76 -82 -213 -82zM1477 1329q-35 0 -60 25q-24 21 -24 57q0 35 24 59q25 25 60 25q34 0 59 -22q25 -25 25 -60
q0 -34 -25 -59t-59 -25z" />
    <glyph glyph-name="uni01C9" unicode="&#x1c9;" horiz-adv-x="1079" 
d="M217 0v1520h102v-1520h-102zM575 -406q-62 0 -124 19q-59 18 -97 53l41 76q65 -59 174 -59q95 0 144 55t49 160v1171h102v-1175q0 -139 -76 -218q-76 -82 -213 -82zM813 1329q-34 0 -59 25q-25 22 -25 57q0 34 25 59t59 25t59 -22q25 -25 25 -60q0 -34 -25 -59t-59 -25z
" />
    <glyph glyph-name="uni01CA" unicode="&#x1ca;" horiz-adv-x="2672" 
d="M1313 1434h104v-1434h-86l-977 1245v-1245h-104v1434h88l975 -1246v1246zM2046 -10q-116 0 -217 55q-100 51 -164 150l64 69q56 -85 141 -133q80 -47 176 -47q143 0 215 84q70 82 70 254v917h-529v95h633v-1012q0 -217 -98 -324q-99 -108 -291 -108z" />
    <glyph glyph-name="uni01CB" unicode="&#x1cb;" horiz-adv-x="2211" 
d="M1313 1434h104v-1434h-86l-977 1245v-1245h-104v1434h88l975 -1246v1246zM1708 -406q-63 0 -125 19q-58 18 -96 53l41 76q65 -59 174 -59q94 0 143 55t49 160v1171h103v-1175q0 -139 -76 -218q-76 -82 -213 -82zM1946 1329q-35 0 -60 25q-24 21 -24 57q0 35 24 59
q25 25 60 25q34 0 59 -22q25 -25 25 -60q0 -34 -25 -59t-59 -25z" />
    <glyph glyph-name="uni01CC" unicode="&#x1cc;" horiz-adv-x="1923" 
d="M739 1077q202 0 318 -116q117 -117 117 -336v-625h-103v616q0 179 -90 275q-91 94 -256 94q-190 0 -297 -113q-109 -115 -109 -303v-569h-102v1069h98v-231q54 111 166 176q105 63 258 63zM1419 -406q-63 0 -125 19q-58 18 -96 53l41 76q65 -59 174 -59q94 0 143 55
q50 56 50 160v1171h102v-1175q0 -139 -76 -218q-76 -82 -213 -82zM1657 1329q-35 0 -60 25q-24 21 -24 57q0 35 24 59q25 25 60 25q34 0 59 -22q25 -25 25 -60q0 -34 -25 -59t-59 -25z" />
    <glyph glyph-name="uni01CD" unicode="&#x1cd;" horiz-adv-x="1443" 
d="M1321 0l-184 403h-832l-182 -403h-113l660 1434h104l660 -1434h-113zM346 492h752l-377 827zM936 1792h102l-258 -242h-114l-258 242h102l213 -176z" />
    <glyph glyph-name="uni01CE" unicode="&#x1ce;" horiz-adv-x="1193" 
d="M578 1077q199 0 305 -100t106 -299v-678h-98v190q-52 -93 -150 -145q-100 -53 -235 -53q-177 0 -281 84q-104 82 -104 221q0 133 96 217q94 82 303 82h367v86q0 150 -80 227q-84 78 -238 78q-109 0 -202 -37q-100 -38 -166 -98l-51 74q82 73 192 112t236 39zM520 76
q134 0 228 61q93 63 139 178v201h-365q-158 0 -227 -57q-72 -60 -72 -158q0 -104 78 -164q76 -61 219 -61zM786 1485h103l-258 -242h-115l-258 242h102l213 -176z" />
    <glyph glyph-name="uni01D3" unicode="&#x1d3;" horiz-adv-x="1624" 
d="M811 -10q-271 0 -422 157t-151 461v826h104v-822q0 -262 121 -395q119 -131 350 -131q229 0 348 131q121 133 121 395v822h104v-826q0 -304 -151 -461t-424 -157zM1026 1792h102l-258 -242h-114l-258 242h102l213 -176z" />
    <glyph glyph-name="uni01D4" unicode="&#x1d4;" 
d="M1051 1069h102v-1069h-98v229q-51 -112 -158 -174q-103 -63 -246 -63q-207 0 -327 117q-119 116 -119 335v625h102v-616q0 -180 92 -275q91 -94 260 -94q180 0 287 113q105 114 105 303v569zM893 1485h102l-258 -242h-114l-258 242h102l213 -176z" />
    <glyph glyph-name="uni01E4" unicode="&#x1e4;" horiz-adv-x="1648" 
d="M1274 217v494h100v-537q-98 -91 -227 -137q-136 -47 -285 -47q-214 0 -383 94q-175 96 -268 260q-98 165 -98 373t98 373q93 164 268 260q169 94 385 94q160 0 291 -49q128 -51 225 -148l-65 -69q-91 91 -201 131q-110 39 -248 39q-185 0 -331 -82q-153 -84 -234 -226
q-84 -147 -84 -323q0 -175 86 -320q82 -143 232 -227t331 -84q246 0 408 131zM844 438v88h758v-88h-758z" />
    <glyph glyph-name="uni01E5" unicode="&#x1e5;" horiz-adv-x="1404" 
d="M1311 -55v-78h-170q-54 -143 -170 -205q-121 -68 -309 -68q-148 0 -279 46q-134 47 -211 124l55 78q80 -74 193 -114q115 -41 239 -41q285 0 373 180h-434v78h463q16 75 16 157v195q-64 -113 -182 -178q-116 -64 -262 -64q-148 0 -271 66q-120 63 -192 182
q-70 116 -70 264t70 264q73 120 192 183q117 63 271 63q149 0 266 -63q115 -62 182 -183v238h99v-954q0 -77 -17 -170h148zM641 145q120 0 225 54q97 50 158 149q55 94 55 219t-55 219q-62 101 -158 150q-103 53 -225 53q-123 0 -223 -53q-97 -50 -156 -150
q-57 -92 -57 -219t57 -219q58 -98 156 -149q102 -54 223 -54z" />
    <glyph glyph-name="Gcaron" unicode="&#x1e6;" horiz-adv-x="1583" 
d="M1274 217v494h100v-537q-98 -91 -227 -137q-136 -47 -285 -47q-214 0 -383 94q-175 96 -268 260q-98 165 -98 373t98 373q93 164 268 260q169 94 385 94q160 0 291 -49q128 -51 225 -148l-65 -69q-91 91 -201 131q-110 39 -248 39q-185 0 -331 -82q-153 -84 -234 -226
q-84 -147 -84 -323q0 -175 86 -320q82 -143 232 -227t331 -84q246 0 408 131zM1042 1790h103l-258 -242h-115l-258 242h102l213 -176z" />
    <glyph glyph-name="gcaron" unicode="&#x1e7;" horiz-adv-x="1396" 
d="M1081 1069h99v-954q0 -268 -129 -394q-130 -127 -389 -127q-148 0 -279 46q-134 47 -211 124l55 78q80 -74 193 -114q115 -41 239 -41q214 0 316 102t102 313v181q-64 -116 -182 -181q-114 -63 -262 -63q-152 0 -271 67q-120 63 -192 185q-70 119 -70 268t70 268
q72 122 192 185q121 65 271 65q145 0 266 -65q116 -62 182 -185v242zM641 131q124 0 225 55q98 50 158 152q55 94 55 221t-55 221q-62 100 -158 152q-103 53 -225 53q-123 0 -223 -53q-98 -53 -156 -152q-57 -92 -57 -221t57 -221q57 -101 156 -152q98 -55 223 -55z
M870 1485h103l-258 -242h-115l-258 242h102l213 -176z" />
    <glyph glyph-name="uni01E8" unicode="&#x1e8;" horiz-adv-x="1439" 
d="M1292 0l-616 707l-322 -330v-377h-104v1434h104v-922l895 922h127l-631 -652l674 -782h-127zM975 1792h102l-258 -242h-114l-259 242h103l213 -176z" />
    <glyph glyph-name="uni01E9" unicode="&#x1e9;" horiz-adv-x="1204" 
d="M1053 0l-455 571l-279 -254v-317h-102v1520h102v-1076l685 625h131l-461 -432l506 -637h-127zM481 1935h103l-258 -241h-115l-258 241h102l213 -176z" />
    <glyph glyph-name="uni01EA" unicode="&#x1ea;" horiz-adv-x="1716" 
d="M858 1444q212 0 381 -94q170 -95 268 -260q97 -171 97 -373q0 -182 -74 -330q-78 -150 -203 -244q-129 -96 -285 -131q-135 -31 -223 -104q-90 -75 -90 -162q0 -61 39 -90q39 -33 100 -33q36 0 70 12q31 8 57 31l29 -59q-68 -51 -166 -51q-94 0 -151 51q-58 49 -58 133
q0 64 41 129t133 121q-197 9 -362 104q-163 94 -256 260q-92 164 -92 363q0 208 98 373q93 163 266 260q169 94 381 94zM858 86q183 0 326 82q147 84 229 227q84 147 84 322q0 176 -84 323q-81 141 -229 226q-143 82 -326 82t-326 -82q-150 -84 -231 -226q-84 -147 -84 -323
q0 -175 84 -322q82 -143 231 -227q143 -82 326 -82z" />
    <glyph glyph-name="uni01EB" unicode="&#x1eb;" horiz-adv-x="1269" 
d="M635 1077q154 0 274 -69q121 -71 191 -193q69 -123 69 -280q0 -174 -82 -302q-82 -131 -227 -196q-174 -82 -233 -150q-62 -71 -62 -141q0 -61 39 -90q39 -33 101 -33q32 0 67 12q31 8 57 31l29 -59q-68 -51 -164 -51q-94 0 -151 51q-58 49 -58 131q0 146 172 254h-22
q-156 0 -273 69q-122 70 -192 195q-70 122 -70 279q0 155 70 280q71 124 192 193q117 69 273 69zM635 84q125 0 221 57q96 60 154 160q55 101 55 234q0 132 -55 233q-58 100 -154 160q-96 57 -221 57q-127 0 -219 -57q-99 -58 -154 -160q-57 -99 -57 -233q0 -135 57 -234
q55 -102 154 -160q92 -57 219 -57z" />
    <glyph glyph-name="uni01EE" unicode="&#x1ee;" horiz-adv-x="1247" 
d="M602 809q255 -3 389 -113q133 -112 133 -293q0 -186 -137 -299q-138 -114 -389 -114q-166 0 -311 53q-143 52 -219 137l45 80q72 -78 200 -127t285 -49q199 0 311 86q109 86 109 233q0 151 -111 234q-116 84 -334 84h-94v76l455 544h-817v93h946v-74zM813 1792h102
l-258 -242h-114l-258 242h102l213 -176z" />
    <glyph glyph-name="uni01EF" unicode="&#x1ef;" horiz-adv-x="1030" 
d="M461 428q237 -3 364 -115q125 -113 125 -299q0 -188 -129 -305t-368 -117q-157 0 -293 56q-136 53 -209 141l47 80q66 -81 188 -131q117 -51 265 -51q191 0 292 88q103 86 103 239q0 154 -105 242q-106 86 -311 86h-90v74l428 561h-768v92h895v-74zM659 1485h103
l-258 -242h-115l-258 242h102l213 -176z" />
    <glyph glyph-name="Aringacute" unicode="&#x1fa;" horiz-adv-x="1443" 
d="M1321 0l-184 403h-832l-182 -403h-113l660 1434h104l660 -1434h-113zM346 492h752l-377 827zM1063 2068l-180 -159q43 -55 43 -125q0 -81 -58 -139q-60 -60 -147 -60q-83 0 -143 60t-60 139q0 82 60 145q60 60 143 60q62 0 115 -35l165 164zM721 1642q61 0 102 41t41 101
t-41 104q-41 41 -102 41q-59 0 -100 -41q-41 -44 -41 -104t41 -101t100 -41z" />
    <glyph glyph-name="aringacute" unicode="&#x1fb;" horiz-adv-x="1193" 
d="M578 1077q199 0 305 -100t106 -299v-678h-98v190q-52 -93 -150 -145q-100 -53 -235 -53q-177 0 -281 84q-104 82 -104 221q0 133 96 217q94 82 303 82h367v86q0 150 -80 227q-84 78 -238 78q-109 0 -202 -37q-100 -38 -166 -98l-51 74q82 73 192 112t236 39zM520 76
q134 0 228 61q93 63 139 178v201h-365q-158 0 -227 -57q-72 -60 -72 -158q0 -104 78 -164q76 -61 219 -61zM913 1704l-180 -160q43 -55 43 -125q0 -82 -57 -139q-59 -59 -148 -59q-84 0 -143 59t-59 139q0 84 59 146q59 59 143 59q62 0 115 -35l166 164zM571 1278
q62 0 103 41t41 100q0 61 -41 105q-41 41 -103 41q-59 0 -100 -41q-41 -44 -41 -105q0 -59 41 -100t100 -41z" />
    <glyph glyph-name="AEacute" unicode="&#x1fc;" horiz-adv-x="2093" 
d="M1077 94h885v-94h-989v403h-600l-250 -403h-113l889 1434h1032v-95h-854v-565h764v-92h-764v-588zM426 492h547v847h-23zM907 1550l285 242h147l-321 -242h-111z" />
    <glyph glyph-name="aeacute" unicode="&#x1fd;" horiz-adv-x="2013" 
d="M1913 547l-2 -33h-922q3 -124 64 -223q60 -101 159 -152q101 -55 230 -55q107 0 192 39q90 38 150 110l61 -67q-74 -86 -178 -129q-102 -45 -227 -45q-157 0 -287 71q-131 72 -201 205q-47 -142 -166 -209t-272 -67q-183 0 -289 86q-104 82 -104 223q0 127 96 211
q94 82 303 82h367v88q0 150 -80 227q-84 78 -238 78q-109 0 -202 -37q-100 -38 -166 -98l-51 74q82 73 192 112q107 39 233 39q323 0 390 -254q63 118 180 187q113 67 256 67q146 0 262 -67q116 -70 184 -191q66 -123 66 -272zM1401 987q-109 0 -197 -49q-90 -50 -147 -137
q-57 -86 -66 -207h819q-9 120 -63 205q-59 89 -148 139q-88 49 -198 49zM520 76q164 0 268 90q99 88 99 248v100h-365q-158 0 -227 -57q-72 -60 -72 -154q0 -107 80 -166q76 -61 217 -61zM821 1243l285 242h147l-321 -242h-111z" />
    <glyph glyph-name="Oslashacute" unicode="&#x1fe;" horiz-adv-x="1716" 
d="M858 -10q-209 0 -381 96q-173 97 -266 260q-98 165 -98 371q0 205 98 370q95 168 266 263q169 94 381 94t381 -94q170 -95 268 -260q97 -171 97 -373t-97 -373q-98 -165 -268 -260q-169 -94 -381 -94zM858 86q183 0 326 82q147 84 229 227q84 147 84 322q0 176 -84 323
q-81 141 -229 226q-143 82 -326 82t-326 -82q-150 -84 -231 -226q-84 -147 -84 -323q0 -175 84 -322q82 -143 231 -227q143 -82 326 -82zM188 -143l1250 1720h92l-1249 -1720h-93zM741 1550l285 242h148l-322 -242h-111z" />
    <glyph glyph-name="oslashacute" unicode="&#x1ff;" horiz-adv-x="1269" 
d="M635 -8q-156 0 -273 69q-122 70 -192 195q-70 122 -70 279q0 155 70 280q71 124 192 193q117 69 273 69q154 0 274 -69q121 -71 191 -193q69 -123 69 -280q0 -159 -69 -279q-69 -123 -191 -195q-120 -69 -274 -69zM635 84q125 0 221 57q96 60 154 160q55 101 55 234
q0 132 -55 233q-58 100 -154 160q-96 57 -221 57q-127 0 -219 -57q-99 -58 -154 -160q-57 -99 -57 -233q0 -135 57 -234q55 -102 154 -160q92 -57 219 -57zM141 -145l910 1355h77l-909 -1355h-78zM516 1243l285 242h147l-321 -242h-111z" />
    <glyph glyph-name="uni0200" unicode="&#x200;" horiz-adv-x="1443" 
d="M1321 0l-184 403h-832l-182 -403h-113l660 1434h104l660 -1434h-113zM346 492h752l-377 827zM516 1550l-233 242h123l210 -242h-100zM829 1550l-235 242h125l211 -242h-101z" />
    <glyph glyph-name="uni0201" unicode="&#x201;" horiz-adv-x="1193" 
d="M578 1077q199 0 305 -100t106 -299v-678h-98v190q-52 -93 -150 -145q-100 -53 -235 -53q-177 0 -281 84q-104 82 -104 221q0 133 96 217q94 82 303 82h367v86q0 150 -80 227q-84 78 -238 78q-109 0 -202 -37q-100 -38 -166 -98l-51 74q82 73 192 112t236 39zM520 76
q134 0 228 61q93 63 139 178v201h-365q-158 0 -227 -57q-72 -60 -72 -158q0 -104 78 -164q76 -61 219 -61zM367 1243l-234 242h123l211 -242h-100zM680 1243l-236 242h125l211 -242h-100z" />
    <glyph glyph-name="uni0202" unicode="&#x202;" horiz-adv-x="1443" 
d="M1321 0l-184 403h-832l-182 -403h-113l660 1434h104l660 -1434h-113zM346 492h752l-377 827zM428 1550q3 113 88 183q82 67 207 67q127 0 209 -67q83 -68 86 -183h-76q-3 82 -63 133q-65 50 -156 50q-92 0 -154 -50t-65 -133h-76z" />
    <glyph glyph-name="uni0203" unicode="&#x203;" horiz-adv-x="1193" 
d="M578 1077q199 0 305 -100t106 -299v-678h-98v190q-52 -93 -150 -145q-100 -53 -235 -53q-177 0 -281 84q-104 82 -104 221q0 133 96 217q94 82 303 82h367v86q0 150 -80 227q-84 78 -238 78q-109 0 -202 -37q-100 -38 -166 -98l-51 74q82 73 192 112t236 39zM520 76
q134 0 228 61q93 63 139 178v201h-365q-158 0 -227 -57q-72 -60 -72 -158q0 -104 78 -164q76 -61 219 -61zM279 1243q3 112 88 182q83 68 206 68q126 0 209 -68t86 -182h-75q-3 81 -64 133q-64 49 -156 49t-153 -49q-63 -51 -66 -133h-75z" />
    <glyph glyph-name="uni0204" unicode="&#x204;" 
d="M354 94h885v-94h-989v1434h958v-95h-854v-565h764v-92h-764v-588zM524 1550l-233 242h123l211 -242h-101zM838 1550l-236 242h125l211 -242h-100z" />
    <glyph glyph-name="uni0205" unicode="&#x205;" horiz-adv-x="1222" 
d="M1122 539l-2 -29h-919q3 -124 63 -221q58 -99 162 -152q103 -53 227 -53q110 0 195 39q90 38 147 110l60 -67q-71 -84 -174 -129q-105 -45 -230 -45q-161 0 -284 69q-124 70 -195 193q-72 126 -72 281q0 153 68 280q64 122 182 193q115 69 262 69q146 0 262 -67
q117 -72 183 -193q65 -124 65 -278zM612 987q-114 0 -202 -49q-93 -55 -144 -141q-54 -88 -63 -207h819q-6 118 -61 205q-54 87 -146 141q-86 51 -203 51zM406 1243l-234 242h123l211 -242h-100zM719 1243l-236 242h125l211 -242h-100z" />
    <glyph glyph-name="uni0206" unicode="&#x206;" 
d="M354 94h885v-94h-989v1434h958v-95h-854v-565h764v-92h-764v-588zM436 1550q3 113 88 183q82 67 207 67q127 0 209 -67q83 -68 86 -183h-76q-3 82 -63 133q-65 50 -156 50t-153 -50q-63 -51 -66 -133h-76z" />
    <glyph glyph-name="uni0207" unicode="&#x207;" horiz-adv-x="1222" 
d="M1122 539l-2 -29h-919q3 -124 63 -221q58 -99 162 -152q103 -53 227 -53q110 0 195 39q90 38 147 110l60 -67q-71 -84 -174 -129q-105 -45 -230 -45q-161 0 -284 69q-124 70 -195 193q-72 126 -72 281q0 153 68 280q64 122 182 193q115 69 262 69q146 0 262 -67
q117 -72 183 -193q65 -124 65 -278zM612 987q-114 0 -202 -49q-93 -55 -144 -141q-54 -88 -63 -207h819q-6 118 -61 205q-54 87 -146 141q-86 51 -203 51zM317 1243q3 112 89 182q83 68 206 68q126 0 209 -68t86 -182h-76q-3 82 -63 133q-64 49 -156 49t-153 -49
q-63 -51 -66 -133h-76z" />
    <glyph glyph-name="uni0208" unicode="&#x208;" horiz-adv-x="604" 
d="M250 0v1434h104v-1434h-104zM96 1550l-233 242h123l211 -242h-101zM410 1550l-236 242h125l211 -242h-100z" />
    <glyph glyph-name="uni0209" unicode="&#x209;" horiz-adv-x="534" 
d="M217 0v1069h102v-1069h-102zM61 1243l-233 242h123l211 -242h-101zM375 1243l-236 242h125l211 -242h-100z" />
    <glyph glyph-name="uni020A" unicode="&#x20a;" horiz-adv-x="604" 
d="M250 0v1434h104v-1434h-104zM8 1550q3 113 88 183q82 67 207 67q127 0 209 -67q83 -68 86 -183h-76q-3 82 -63 133q-65 50 -156 50t-153 -50q-63 -51 -66 -133h-76z" />
    <glyph glyph-name="uni020B" unicode="&#x20b;" horiz-adv-x="534" 
d="M217 0v1069h102v-1069h-102zM25 1243q0 116 69 182q68 68 174 68q105 0 176 -68q68 -68 68 -182h-74q0 85 -45 133q-46 49 -125 49q-77 0 -123 -49q-47 -50 -47 -133h-73z" />
    <glyph glyph-name="uni020C" unicode="&#x20c;" horiz-adv-x="1716" 
d="M858 -10q-209 0 -381 96q-173 97 -266 260q-98 165 -98 371q0 205 98 370q95 168 266 263q169 94 381 94t381 -94q170 -95 268 -260q97 -171 97 -373t-97 -373q-98 -165 -268 -260q-169 -94 -381 -94zM858 86q183 0 326 82q147 84 229 227q84 147 84 322q0 176 -84 323
q-81 141 -229 226q-143 82 -326 82t-326 -82q-150 -84 -231 -226q-84 -147 -84 -323q0 -175 84 -322q82 -143 231 -227q143 -82 326 -82zM651 1550l-233 242h123l211 -242h-101zM965 1550l-236 242h125l211 -242h-100z" />
    <glyph glyph-name="uni020D" unicode="&#x20d;" horiz-adv-x="1269" 
d="M635 -8q-156 0 -273 69q-122 70 -192 195q-70 122 -70 279q0 155 70 280q71 124 192 193q117 69 273 69q154 0 274 -69q121 -71 191 -193q69 -123 69 -280q0 -159 -69 -279q-69 -123 -191 -195q-120 -69 -274 -69zM635 84q125 0 221 57q96 60 154 160q55 101 55 234
q0 132 -55 233q-58 100 -154 160q-96 57 -221 57q-127 0 -219 -57q-99 -58 -154 -160q-57 -99 -57 -233q0 -135 57 -234q55 -102 154 -160q92 -57 219 -57zM428 1243l-233 242h122l211 -242h-100zM741 1243l-235 242h125l211 -242h-101z" />
    <glyph glyph-name="uni020E" unicode="&#x20e;" horiz-adv-x="1716" 
d="M858 -10q-209 0 -381 96q-173 97 -266 260q-98 165 -98 371q0 205 98 370q95 168 266 263q169 94 381 94t381 -94q170 -95 268 -260q97 -171 97 -373t-97 -373q-98 -165 -268 -260q-169 -94 -381 -94zM858 86q183 0 326 82q147 84 229 227q84 147 84 322q0 176 -84 323
q-81 141 -229 226q-143 82 -326 82t-326 -82q-150 -84 -231 -226q-84 -147 -84 -323q0 -175 84 -322q82 -143 231 -227q143 -82 326 -82zM563 1550q3 113 88 183q82 67 207 67q127 0 209 -67q83 -68 86 -183h-76q-3 82 -63 133q-65 50 -156 50t-153 -50q-63 -51 -66 -133
h-76z" />
    <glyph glyph-name="uni020F" unicode="&#x20f;" horiz-adv-x="1269" 
d="M635 -8q-156 0 -273 69q-122 70 -192 195q-70 122 -70 279q0 155 70 280q71 124 192 193q117 69 273 69q154 0 274 -69q121 -71 191 -193q69 -123 69 -280q0 -159 -69 -279q-69 -123 -191 -195q-120 -69 -274 -69zM635 84q125 0 221 57q96 60 154 160q55 101 55 234
q0 132 -55 233q-58 100 -154 160q-96 57 -221 57q-127 0 -219 -57q-99 -58 -154 -160q-57 -99 -57 -233q0 -135 57 -234q55 -102 154 -160q92 -57 219 -57zM340 1243q3 112 88 182q83 68 207 68q126 0 209 -68t86 -182h-76q-3 82 -63 133q-64 49 -156 49q-93 0 -154 -49
q-62 -50 -65 -133h-76z" />
    <glyph glyph-name="uni0210" unicode="&#x210;" horiz-adv-x="1474" 
d="M1364 0h-119l-342 479q-85 -10 -139 -10h-410v-469h-104v1434h514q270 0 424 -127q153 -129 153 -357q0 -169 -86 -284q-90 -119 -249 -164zM354 561h410q229 0 350 103t121 286q0 186 -121 289q-118 100 -350 100h-410v-778zM547 1550l-234 242h123l211 -242h-100z
M860 1550l-235 242h125l211 -242h-101z" />
    <glyph glyph-name="uni0211" unicode="&#x211;" horiz-adv-x="806" 
d="M315 836q49 115 154 180q104 61 254 61v-100l-25 2q-176 0 -278 -111q-101 -113 -101 -311v-557h-102v1069h98v-233zM264 1243l-233 242h123l211 -242h-101zM578 1243l-236 242h125l211 -242h-100z" />
    <glyph glyph-name="uni0212" unicode="&#x212;" horiz-adv-x="1474" 
d="M1364 0h-119l-342 479q-85 -10 -139 -10h-410v-469h-104v1434h514q270 0 424 -127q153 -129 153 -357q0 -169 -86 -284q-90 -119 -249 -164zM354 561h410q229 0 350 103t121 286q0 186 -121 289q-118 100 -350 100h-410v-778zM459 1550q3 113 88 183q82 67 207 67
q127 0 209 -67q83 -68 86 -183h-76q-3 81 -64 133q-65 50 -155 50q-92 0 -154 -50t-65 -133h-76z" />
    <glyph glyph-name="uni0213" unicode="&#x213;" horiz-adv-x="806" 
d="M315 836q49 115 154 180q104 61 254 61v-100l-25 2q-176 0 -278 -111q-101 -113 -101 -311v-557h-102v1069h98v-233zM176 1243q3 112 88 182q83 68 207 68q126 0 209 -68t86 -182h-76q-3 82 -63 133q-64 49 -156 49q-93 0 -154 -49q-62 -50 -65 -133h-76z" />
    <glyph glyph-name="uni0214" unicode="&#x214;" horiz-adv-x="1624" 
d="M811 -10q-271 0 -422 157t-151 461v826h104v-822q0 -262 121 -395q119 -131 350 -131q229 0 348 131q121 133 121 395v822h104v-826q0 -304 -151 -461t-424 -157zM606 1550l-233 242h123l211 -242h-101zM920 1550l-236 242h125l211 -242h-100z" />
    <glyph glyph-name="uni0215" unicode="&#x215;" 
d="M1051 1069h102v-1069h-98v229q-51 -112 -158 -174q-103 -63 -246 -63q-207 0 -327 117q-119 116 -119 335v625h102v-616q0 -180 92 -275q91 -94 260 -94q180 0 287 113q105 114 105 303v569zM473 1243l-233 242h122l211 -242h-100zM786 1243l-235 242h125l211 -242h-101z
" />
    <glyph glyph-name="uni0216" unicode="&#x216;" horiz-adv-x="1624" 
d="M811 -10q-271 0 -422 157t-151 461v826h104v-822q0 -262 121 -395q119 -131 350 -131q229 0 348 131q121 133 121 395v822h104v-826q0 -304 -151 -461t-424 -157zM518 1550q3 113 88 183q82 67 207 67q127 0 209 -67q83 -68 86 -183h-76q-3 82 -63 133q-65 50 -156 50
q-92 0 -154 -50t-65 -133h-76z" />
    <glyph glyph-name="uni0217" unicode="&#x217;" 
d="M1051 1069h102v-1069h-98v229q-51 -112 -158 -174q-103 -63 -246 -63q-207 0 -327 117q-119 116 -119 335v625h102v-616q0 -180 92 -275q91 -94 260 -94q180 0 287 113q105 114 105 303v569zM385 1243q3 112 88 182q83 68 207 68q126 0 209 -68t86 -182h-76
q-3 82 -63 133q-64 49 -156 49q-93 0 -154 -49q-62 -50 -65 -133h-76z" />
    <glyph glyph-name="uni0218" unicode="&#x218;" horiz-adv-x="1247" 
d="M627 -10q-159 0 -299 55q-143 52 -224 139l48 78q77 -80 204 -129q122 -51 269 -51q202 0 309 78q104 76 104 202q0 96 -55 154t-137 88q-77 28 -221 64q-182 47 -252 75q-98 39 -162 115q-68 77 -68 205q0 103 56 192q55 85 170 138q111 51 282 51q118 0 234 -35
q114 -35 198 -94l-39 -84q-89 61 -188 90q-109 31 -205 31q-198 0 -301 -80q-102 -80 -102 -207q0 -96 55 -154t137 -88q86 -31 224 -65q172 -45 251 -76q95 -38 162 -111q66 -78 66 -202q0 -105 -56 -191q-58 -85 -174 -137q-114 -51 -286 -51zM655 -229q33 0 54 -21
q20 -20 20 -49q0 -35 -18 -82l-54 -154h-61l41 168q-23 6 -39 25t-16 43q0 29 20 49q21 21 53 21z" />
    <glyph glyph-name="uni0219" unicode="&#x219;" horiz-adv-x="978" 
d="M487 -8q-132 0 -245 39q-121 42 -183 98l47 82q62 -53 170 -92q101 -37 216 -37q162 0 239 53q76 52 76 148q0 65 -41 106q-42 39 -104 57q-61 18 -170 39q-120 20 -205 50q-77 27 -133 86t-56 163q0 129 107 211q104 82 299 82q97 0 203 -28q91 -24 163 -76l-47 -82
q-67 48 -149 72q-83 24 -172 24q-150 0 -226 -55q-75 -54 -75 -146q0 -70 43 -110q47 -43 106 -60q70 -24 174 -43q113 -19 203 -47q78 -28 129 -84q53 -59 53 -157q0 -134 -110 -213q-112 -80 -312 -80zM487 -229q33 0 54 -21q20 -20 20 -49q0 -35 -18 -82l-54 -154h-61
l41 168q-23 6 -39 25t-16 43q0 29 20 49q21 21 53 21z" />
    <glyph glyph-name="uni021A" unicode="&#x21a;" horiz-adv-x="1153" 
d="M524 0v1339h-516v95h1137v-95h-516v-1339h-105zM578 -229q32 0 53 -21q20 -20 20 -49q0 -35 -18 -82l-53 -154h-62l41 168q-23 6 -39 25t-16 43q0 29 20 49q21 21 54 21z" />
    <glyph glyph-name="uni021B" unicode="&#x21b;" horiz-adv-x="815" 
d="M705 139l43 -71q-42 -39 -97 -56q-56 -20 -123 -20q-137 0 -215 78q-75 75 -75 213v698h-197v88h197v234h102v-234h340v-88h-340v-688q0 -107 51 -158q49 -55 148 -55q101 0 166 59zM504 -229q32 0 53 -21t21 -49q0 -33 -19 -82l-53 -154h-62l41 168q-23 6 -39 25t-16 43
q0 28 21 49t53 21z" />
    <glyph glyph-name="uni021E" unicode="&#x21e;" horiz-adv-x="1667" 
d="M1313 1434h104v-1434h-104v682h-959v-682h-104v1434h104v-660h959v660zM1047 1792h102l-258 -242h-115l-258 242h103l213 -176z" />
    <glyph glyph-name="uni021F" unicode="&#x21f;" horiz-adv-x="1378" 
d="M739 1077q202 0 318 -116q117 -117 117 -336v-625h-103v616q0 179 -90 275q-91 94 -256 94q-190 0 -297 -113q-109 -115 -109 -303v-569h-102v1520h102v-674q55 110 164 172q109 59 256 59zM481 1935h103l-258 -241h-115l-258 241h102l213 -176z" />
    <glyph glyph-name="uni022A" unicode="&#x22a;" horiz-adv-x="1716" 
d="M858 -10q-209 0 -381 96q-173 97 -266 260q-98 165 -98 371q0 205 98 370q95 168 266 263q169 94 381 94t381 -94q170 -95 268 -260q97 -171 97 -373t-97 -373q-98 -165 -268 -260q-169 -94 -381 -94zM858 86q183 0 326 82q147 84 229 227q84 147 84 322q0 176 -84 323
q-81 141 -229 226q-143 82 -326 82t-326 -82q-150 -84 -231 -226q-84 -147 -84 -323q0 -175 84 -322q82 -143 231 -227q143 -82 326 -82zM684 1606q-29 0 -51 22q-23 23 -23 51q0 29 23 52q20 20 51 20t51 -20q21 -21 21 -52q0 -30 -21 -51q-22 -22 -51 -22zM1034 1606
q-29 0 -51 22t-22 51q0 30 22 52q20 20 51 20t51 -20q21 -21 21 -52q0 -30 -21 -51q-22 -22 -51 -22zM557 1860v69h602v-69h-602z" />
    <glyph glyph-name="uni022B" unicode="&#x22b;" horiz-adv-x="1269" 
d="M635 -8q-156 0 -273 69q-122 70 -192 195q-70 122 -70 279q0 155 70 280q71 124 192 193q117 69 273 69q154 0 274 -69q121 -71 191 -193q69 -123 69 -280q0 -159 -69 -279q-69 -123 -191 -195q-120 -69 -274 -69zM635 84q125 0 221 57q96 60 154 160q55 101 55 234
q0 132 -55 233q-58 100 -154 160q-96 57 -221 57q-127 0 -219 -57q-99 -58 -154 -160q-57 -99 -57 -233q0 -135 57 -234q55 -102 154 -160q92 -57 219 -57zM461 1298q-28 0 -51 23t-23 51t23 51q21 21 51 21t51 -21q20 -20 20 -51t-20 -51q-23 -23 -51 -23zM811 1298
q-28 0 -51 23t-23 51t23 51q21 21 51 21t51 -21t21 -51t-21 -51q-23 -23 -51 -23zM334 1552v70h602v-70h-602z" />
    <glyph glyph-name="uni022C" unicode="&#x22c;" horiz-adv-x="1716" 
d="M858 -10q-209 0 -381 96q-173 97 -266 260q-98 165 -98 371q0 205 98 370q95 168 266 263q169 94 381 94t381 -94q170 -95 268 -260q97 -171 97 -373t-97 -373q-98 -165 -268 -260q-169 -94 -381 -94zM858 86q183 0 326 82q147 84 229 227q84 147 84 322q0 176 -84 323
q-81 141 -229 226q-143 82 -326 82t-326 -82q-150 -84 -231 -226q-84 -147 -84 -323q0 -175 84 -322q82 -143 231 -227q143 -82 326 -82zM991 1573q-41 0 -73 16q-31 14 -80 45q-31 22 -58 37q-24 12 -51 12q-48 0 -74 -26q-25 -25 -28 -78h-68q3 83 47 127q45 45 121 45
q42 0 74 -14q23 -11 78 -47q38 -27 59 -37q23 -13 49 -13q49 0 76 27q26 26 29 74h65q-3 -77 -47 -121q-47 -47 -119 -47zM557 1860v69h602v-69h-602z" />
    <glyph glyph-name="uni022D" unicode="&#x22d;" horiz-adv-x="1269" 
d="M635 -8q-156 0 -273 69q-122 70 -192 195q-70 122 -70 279q0 155 70 280q71 124 192 193q117 69 273 69q154 0 274 -69q121 -71 191 -193q69 -123 69 -280q0 -159 -69 -279q-69 -123 -191 -195q-120 -69 -274 -69zM635 84q125 0 221 57q96 60 154 160q55 101 55 234
q0 132 -55 233q-58 100 -154 160q-96 57 -221 57q-127 0 -219 -57q-99 -58 -154 -160q-57 -99 -57 -233q0 -135 57 -234q55 -102 154 -160q92 -57 219 -57zM768 1266q-42 0 -74 16q-31 14 -80 45q-36 25 -57 37q-24 12 -51 12q-48 0 -74 -26t-29 -78h-67q3 83 47 127
q45 45 121 45q42 0 74 -14q12 -6 77 -48q31 -21 60 -36q23 -13 49 -13q49 0 76 27q25 25 28 74h66q-3 -77 -47 -121q-47 -47 -119 -47zM334 1552v70h602v-70h-602z" />
    <glyph glyph-name="uni0230" unicode="&#x230;" horiz-adv-x="1716" 
d="M858 -10q-209 0 -381 96q-173 97 -266 260q-98 165 -98 371q0 205 98 370q95 168 266 263q169 94 381 94t381 -94q170 -95 268 -260q97 -171 97 -373t-97 -373q-98 -165 -268 -260q-169 -94 -381 -94zM858 86q183 0 326 82q147 84 229 227q84 147 84 322q0 176 -84 323
q-81 141 -229 226q-143 82 -326 82t-326 -82q-150 -84 -231 -226q-84 -147 -84 -323q0 -175 84 -322q82 -143 231 -227q143 -82 326 -82zM858 1606q-29 0 -51 22q-23 23 -23 51q0 31 23 54q20 20 51 20q33 0 53 -20q21 -21 21 -54q0 -30 -21 -51q-22 -22 -53 -22zM557 1864
v69h602v-69h-602z" />
    <glyph glyph-name="uni0231" unicode="&#x231;" horiz-adv-x="1269" 
d="M635 -8q-156 0 -273 69q-122 70 -192 195q-70 122 -70 279q0 155 70 280q71 124 192 193q117 69 273 69q154 0 274 -69q121 -71 191 -193q69 -123 69 -280q0 -159 -69 -279q-69 -123 -191 -195q-120 -69 -274 -69zM635 84q125 0 221 57q96 60 154 160q55 101 55 234
q0 132 -55 233q-58 100 -154 160q-96 57 -221 57q-127 0 -219 -57q-99 -58 -154 -160q-57 -99 -57 -233q0 -135 57 -234q55 -102 154 -160q92 -57 219 -57zM635 1298q-28 0 -51 23t-23 51q0 30 23 53q21 21 51 21q32 0 53 -21t21 -53q0 -30 -21 -51q-23 -23 -53 -23z
M334 1556v70h602v-70h-602z" />
    <glyph glyph-name="uni0232" unicode="&#x232;" horiz-adv-x="1280" 
d="M1270 1434l-578 -940v-494h-104v494l-578 940h115l518 -844l518 844h109zM338 1634v74h602v-74h-602z" />
    <glyph glyph-name="uni0233" unicode="&#x233;" horiz-adv-x="1081" 
d="M971 1069h104l-549 -1214q-62 -143 -141 -201q-85 -60 -192 -60q-71 0 -138 25q-61 23 -110 72l51 78q84 -84 199 -84q78 0 133 43q57 44 102 147l57 129l-481 1065h109l428 -956zM211 1327v74h602v-74h-602z" />
    <glyph glyph-name="uni0237" unicode="&#x237;" horiz-adv-x="544" 
d="M41 -406q-63 0 -125 19q-58 18 -96 53l41 76q65 -59 174 -59q94 0 143 55t49 160v1171h103v-1175q0 -139 -76 -218q-76 -82 -213 -82z" />
  </font>
</defs>
</svg>
