<svg fill="#8a7955" id="delsuites-logo" xmlns="http://www.w3.org/2000/svg" xmlns:xlink="http://www.w3.org/1999/xlink" x="0px"
	 y="0px" viewBox="0 0 200 200" style="enable-background:new 0 0 200 200;" xml:space="preserve">
<g>
	<path d="M91.5,19.1c-1.9,0.8-4.2,2.2-5.1,3c-1.5,1.4-2,1.3-5-0.5c-2-1.2-5.1-2.1-7.5-2.1c-3.8,0-5,0.7-11.9,7
		c-10.8,9.8-16.7,10.9-21.3,3.9c-4.2-6.4-6.2-7.9-10.2-7.9c-2.7,0-4.8,0.8-6.9,2.6c-1.7,1.4-3.1,2.9-3.1,3.3c0,0.3,2,3.3,4.5,6.6
		c9.8,13,10.7,23,4.1,42.8C25,90,24.7,94.3,27.5,100c1.1,2.2,1.9,5.5,2,7.2c0,2.7-0.4,3.3-2.1,3.3c-1.1,0-3.4,1.3-5,3
		c-2.9,2.8-3,3.4-2.8,10.2c0.2,7,0.2,7.3-2.2,7.7c-1.3,0.1-2.7,0.8-3.1,1.5c-0.4,0.6-0.8,7-0.8,14.3c0,12.1,0.2,13.3,1.9,14.3
		c1.1,0.5,2.9,1,4,1c3.1,0,2.9,5.6-0.4,8.6c-2.8,2.6-3.4,8.4-1.1,10.3c0.9,0.8,4.8,1.1,11.2,0.9L39,182l0.3-4.6
		c0.2-3.5-0.2-4.9-1.8-6.4c-1.2-1.1-2-3.1-2-5.2v-3.3l64.7,0.2c61.7,0.3,64.8,0.4,65.1,2.1c0.2,1-0.8,3.5-2.2,5.6
		c-2.8,3.9-3.4,8.9-1.4,10.9c0.8,0.8,4.7,1.2,10.9,1.2c7.9,0,9.8-0.3,10.3-1.6c1.3-3.3,0.5-7.4-2-10.3c-3.4-4.1-2.9-7,1.6-8.5
		l3.5-1.1v-14.5v-14.4l-2.5-0.6c-2.3-0.5-2.5-1.1-3.1-8c-0.7-10.2-1.4-11.2-8.1-13.4c-2.3-0.7-2.2-4,0.2-9.5
		c2.8-6.1,2.5-10.3-1.6-23.3c-2.1-6.5-3.8-14.3-4.1-18.4c-0.5-6.2-0.2-7.9,2-12.8c1.5-3.1,4.5-8.3,6.7-11.5s3.8-6.4,3.5-7.2
		c-0.9-2.4-6-4.9-9.7-4.9c-3.6,0-6.5,2.4-10.2,8.3c-4.1,6.7-11,5-22-5.2c-6-5.5-7-6.1-10.9-6.1c-3,0-5.3,0.7-7.2,2.2
		c-2.2,1.7-3.1,1.9-4.4,1C107.1,17.3,98.6,16,91.5,19.1z M105.6,22.5c1.9,0.6,4.6,2.1,5.9,3.5c3,3.2,5.4,3.2,9.2,0
		c4.5-3.8,6.9-3.2,14.5,3.6c12.2,11.1,18.9,12.7,25.2,6c2-2.1,4.5-5.1,5.7-6.6c1.7-2.3,2.5-2.7,4.7-2.1c3.4,0.8,3.4,1.7-0.4,7.2
		c-10,14.5-10.7,22.4-3.9,43.9l4.3,13.9l-2.1,6.1c-1.2,3.3-2.2,7.5-2.2,9.3v3.2l-66.2-0.2L34,110l-0.3-3.5c-0.2-1.9-1.2-5.8-2.3-8.5
		c-2.3-5.6-2.7-3.4,4.1-26.4c1.6-5.8,3-12.2,3-14.3c0-5.6-3.6-15.4-8.1-22.2c-2.1-3.2-3.9-6.2-3.9-6.7s1.2-1.2,2.7-1.5
		c2.2-0.6,3.1-0.2,4.9,2.2c6.8,8.6,7.7,9.4,11.1,10C51,40.2,55.7,38,64,30.5c4.6-4.1,8.6-7,9.9-7c1.2,0,3.8,1.1,5.8,2.5
		c4.3,2.9,6,3.1,7.9,0.8c1.8-2.2,8.8-5.3,11.9-5.3C100.9,21.5,103.6,22,105.6,22.5z M174.3,115.7c0.7,0.7,1.2,3.9,1.2,7.5
		c0,5.1-0.3,6.4-1.9,7.3c-1.3,0.7-26.1,1-73.6,1s-72.3-0.3-73.6-1c-2.7-1.5-2.8-13.4-0.1-14.9C28.9,114,172.7,114.1,174.3,115.7z
		 M182.5,146.5v11l-82.3-0.2L18,157l-0.3-9.4c-0.1-5.2-0.1-10,0.2-10.8c0.4-1.1,15.4-1.3,82.6-1.3h82V146.5z M30.5,165.5
		c0,2.5-0.4,3-2.5,3s-2.5-0.5-2.5-3s0.4-3,2.5-3S30.5,163,30.5,165.5z M174.5,165.5c0,2.5-0.4,3-2.5,3c-2.1,0-2.5-0.5-2.5-3
		s0.4-3,2.5-3C174.1,162.5,174.5,163,174.5,165.5z M35.3,176.2c0.3,2.2,0,2.3-6.7,2.3c-6.9,0-7.1-0.1-7.1-2.5c0-2.6,0.1-2.6,6.8-2.3
		C34.4,174,35,174.2,35.3,176.2z M178.9,175.1c1,2.7-0.3,3.4-6.9,3.4c-6.6,0-7.9-0.7-6.9-3.4C166,172.8,178,172.8,178.9,175.1z"/>
	<path d="M95.6,27.6c-1.3,0.5-3.7,2-5.3,3.4c-3.8,3.2-8.2,3.2-12.4,0c-1.8-1.4-3.5-2.5-3.9-2.5c-0.3,0-3.4,2.7-6.9,5.9
		c-7.9,7.4-11.1,9.1-18.9,9.9C44.8,44.7,42,45.4,42,46c0.1,0.5,0.5,3.7,0.9,6.9c1,6.7,0.3,10.5-4.9,27.6l-3.6,11.6l2.5,6.4l2.4,6.5
		H100h60.6l2.6-6.3c2.8-7.1,3-5.7-2.8-23.7c-3.1-9.6-3.9-17.7-2.7-27.5c0.3-2.3-0.1-2.5-5.2-3.1c-7.5-0.8-12.2-3.2-19.6-10.1
		c-3.4-3.2-6.5-5.8-6.9-5.8s-2,1.1-3.7,2.5c-3.8,3.2-8.7,3.3-12.5,0.1C104.2,26.5,100.6,25.6,95.6,27.6z M107.1,34.5
		c4.8,4.1,9.2,4.7,14.9,2l4.6-2.2l4.9,4.6c5.4,5.1,13.9,9.6,18.1,9.6c2.6,0,2.7,0.1,3.1,9.2c0.4,6.1,1.5,12.4,3.3,18.3
		c5.1,16.6,5,15.7,3,20.8l-1.8,4.7h-56.8H43.5l-2-4c-1.1-2.1-2-4.7-2-5.6c0-0.9,1.6-6.7,3.6-12.8c2.7-8.3,3.8-13.4,4.2-20.4
		c0.3-5.6,0.9-9.5,1.6-9.7c10-2.5,12.8-3.9,18.5-9c3.4-3,6.4-5.5,6.6-5.5c0.3,0,2.2,0.9,4.2,2c5.9,3.2,9.4,2.6,15.6-2.6
		C97.9,30.5,102.8,30.7,107.1,34.5z"/>
</g>
<g>
	<path d="M69.9,51.6c-0.3,0.6-0.1,2.2,0.7,3.5c1,1.9,1,2.7,0.1,3.6c-0.7,0.7-1.2,1.8-1.2,2.5c0,1.6,3.2,1.7,4.8,0.1
		c0.8-0.8,1.5-0.8,2.6,0.2c0.9,0.7,2.3,0.9,3.2,0.6c1.4-0.6,1.5-0.9,0.1-2.9c-1.3-1.9-1.3-2.6-0.1-4.2c1-1.4,1.1-2.2,0.2-3.2
		c-0.9-1.1-1.4-1.1-2.9,0.3c-1.8,1.6-2,1.6-3.7,0.1C71.5,50.2,70.9,50.1,69.9,51.6z"/>
	<path d="M94.9,51.6c-0.3,0.6-0.1,2.2,0.7,3.5c1,1.9,1,2.7,0.1,3.6c-0.7,0.7-1.2,1.8-1.2,2.5c0,1.6,3.2,1.7,4.8,0.1
		c0.8-0.8,1.5-0.8,2.6,0.2c0.9,0.7,2.3,0.9,3.2,0.6c1.4-0.6,1.5-0.9,0.1-2.9c-1.3-1.9-1.3-2.6-0.1-4.2c1-1.4,1.1-2.2,0.2-3.2
		c-0.9-1.1-1.4-1.1-2.9,0.3c-1.8,1.6-2,1.6-3.7,0.1C96.5,50.2,95.9,50.1,94.9,51.6z"/>
	<path d="M119.9,51.6c-0.3,0.6-0.1,2.2,0.7,3.5c1,1.9,1,2.7,0.1,3.6c-0.7,0.7-1.2,1.8-1.2,2.5c0,1.6,3.2,1.7,4.8,0.1
		c0.8-0.8,1.5-0.8,2.6,0.2c0.9,0.7,2.3,0.9,3.2,0.6c1.4-0.6,1.5-0.9,0.1-2.9c-1.3-1.9-1.3-2.6-0.1-4.2c1-1.4,1.1-2.2,0.2-3.2
		c-0.9-1.1-1.4-1.1-2.9,0.3c-1.8,1.6-2,1.6-3.7,0.1C121.5,50.2,120.9,50.1,119.9,51.6z"/>
	<path d="M57.5,76.5c-1.2,0.7-1.2,1.3-0.1,3.4c1.2,2.1,1.2,2.8,0.1,4.1c-2,2.4,0.3,4.4,3.1,2.6c1.5-0.9,2.4-1,3.2-0.2
		c1.5,1.5,4.7,1.4,4.7-0.2c0-0.7-0.5-1.8-1.2-2.5c-0.9-0.9-0.8-1.7,0.2-3.7c1.9-3.5-0.1-5.7-2.8-3.2c-1.6,1.4-2.1,1.5-3.8,0.3
		C59.6,76.2,58.3,76,57.5,76.5z"/>
	<path d="M82.5,76.5c-1.2,0.7-1.2,1.3-0.1,3.4c1.2,2.1,1.2,2.8,0.1,4.1c-2,2.4,0.3,4.4,3.1,2.6c1.5-0.9,2.4-1,3.2-0.2
		c1.5,1.5,4.7,1.4,4.7-0.2c0-0.7-0.5-1.8-1.2-2.5c-0.9-0.9-0.8-1.7,0.2-3.7c1.9-3.5-0.1-5.7-2.8-3.2c-1.6,1.4-2.1,1.5-3.8,0.3
		C84.6,76.2,83.3,76,82.5,76.5z"/>
	<path d="M107.5,76.5c-1.2,0.7-1.2,1.3-0.1,3.4c1.2,2.1,1.2,2.8,0.1,4.1c-2,2.4,0.3,4.4,3.1,2.6c1.5-0.9,2.4-1,3.2-0.2
		c1.5,1.5,4.7,1.4,4.7-0.2c0-0.7-0.5-1.8-1.2-2.5c-0.9-0.9-0.8-1.7,0.2-3.7c1.9-3.5-0.1-5.7-2.8-3.2c-1.6,1.4-2.1,1.5-3.8,0.3
		C109.6,76.2,108.3,76,107.5,76.5z"/>
	<path d="M132.5,76.5c-1.2,0.7-1.2,1.3-0.1,3.4c1.2,2.1,1.2,2.8,0.1,4.1c-2,2.4,0.3,4.4,3.1,2.6c1.5-0.9,2.4-1,3.2-0.2
		c1.5,1.5,4.7,1.4,4.7-0.2c0-0.7-0.5-1.8-1.2-2.5c-0.9-0.9-0.8-1.7,0.2-3.7c1.9-3.5-0.1-5.7-2.8-3.2c-1.6,1.4-2.1,1.5-3.8,0.3
		C134.6,76.2,133.3,76,132.5,76.5z"/>
</g>
</svg>
